999
dxflib 3.12.2.0
  0
SECTION
  2
HEADER
  9
$ACADVER
  1
AC1015
  9
$HANDSEED
  5
FFFF
  9
$ANGBASE
 50
0.0
  9
$ATTMODE
 70
1
  9
$AUNITS
 70
0
  9
$AUPREC
 70
0
  9
$CELTSCALE
 40
1.0
  9
$CHAMFERA
 40
0.0
  9
$CHAMFERB
 40
0.0
  9
$CHAMFERC
 40
0.0
  9
$CHAMFERD
 40
0.0
  9
$CMLJUST
 70
0
  9
$CMLSCALE
 40
1.0
  9
$DIMADEC
 70
0
  9
$DIMALTD
 70
2
  9
$DIMALTF
 40
25.399999999999999
  9
$DIMALTRND
 40
0.0
  9
$DIMALTTD
 70
2
  9
$DIMALTTZ
 70
0
  9
$DIMALTU
 70
2
  9
$DIMALTZ
 70
0
  9
$DIMAPOST
  1

  9
$DIMASZ
 40
2.5
  9
$DIMATFIT
 70
3
  9
$DIMAUNIT
 70
0
  9
$DIMAZIN
 70
2
  9
$DIMCEN
 40
0.09
  9
$DIMDEC
 70
4
  9
$DIMDLE
 40
0.0
  9
$DIMDLI
 40
0.38
  9
$DIMDSEP
 70
46
  9
$DIMEXE
 40
1.25
  9
$DIMEXO
 40
0.625
  9
$DIMFRAC
 70
0
  9
$DIMGAP
 40
0.625
  9
$DIMJUST
 70
0
  9
$DIMLFAC
 40
1.0
  9
$DIMLUNIT
 70
2
  9
$DIMLWD
 70
-2
  9
$DIMLWE
 70
-2
  9
$DIMPOST
  1

  9
$DIMRND
 40
0.0
  9
$DIMSCALE
 40
1.0
  9
$DIMTAD
 70
0
  9
$DIMTDEC
 70
4
  9
$DIMTFAC
 40
1.0
  9
$DIMTM
 40
0.0
  9
$DIMTOLJ
 70
1
  9
$DIMTP
 40
0.0
  9
$DIMTSZ
 40
0.0
  9
$DIMTVP
 40
0.0
  9
$DIMTXT
 40
2.5
  9
$DIMTZIN
 70
0
  9
$DIMZIN
 70
8
  9
$DWGCODEPAGE
  3
ANSI_1252
  9
$ELEVATION
 40
0.0
  9
$EXTMAX
 10
-100000000000000000000.0
 20
-100000000000000000000.0
 30
-100000000000000000000.0
  9
$EXTMIN
 10
100000000000000000000.0
 20
100000000000000000000.0
 30
100000000000000000000.0
  9
$FILLETRAD
 40
0.5
  9
$INSBASE
 10
0.0
 20
0.0
 30
0.0
  9
$INSUNITS
 70
4
  9
$LIMMAX
 10
12.0
 20
9.0
  9
$LIMMIN
 10
0.0
 20
0.0
  9
$LTSCALE
 40
1.0
  9
$LUNITS
 70
2
  9
$LUPREC
 70
4
  9
$MAXACTVP
 70
2
  9
$MEASUREMENT
 70
1
  9
$PDMODE
 70
0
  9
$PDSIZE
 40
0.0
  9
$PELEVATION
 40
0.0
  9
$PEXTMAX
 10
-100000000000000000000.0
 20
-100000000000000000000.0
 30
-100000000000000000000.0
  9
$PEXTMIN
 10
100000000000000000000.0
 20
100000000000000000000.0
 30
100000000000000000000.0
  9
$PINSBASE
 10
0.0
 20
0.0
 30
0.0
  9
$PLIMMAX
 10
12.0
 20
9.0
  9
$PLIMMIN
 10
0.0
 20
0.0
  9
$PLINEWID
 40
0.0
  9
$PROXYGRAPHICS
 70
1
  9
$PUCSORG
 10
0.0
 20
0.0
 30
0.0
  9
$PUCSXDIR
 10
1.0
 20
0.0
 30
0.0
  9
$PUCSYDIR
 10
0.0
 20
1.0
 30
0.0
  9
$SHADEDGE
 70
3
  9
$SHADEDIF
 70
70
  9
$SKETCHINC
 40
0.1
  9
$SPLINESEGS
 70
8
  9
$SPLINETYPE
 70
6
  9
$SURFTAB1
 70
6
  9
$SURFTAB2
 70
6
  9
$SURFTYPE
 70
6
  9
$SURFU
 70
6
  9
$SURFV
 70
6
  9
$TEXTSIZE
 40
2.5
  9
$THICKNESS
 40
0.0
  9
$TRACEWID
 40
0.05
  9
$TREEDEPTH
 70
3020
  9
$UCSORG
 10
0.0
 20
0.0
 30
0.0
  9
$UCSXDIR
 10
1.0
 20
0.0
 30
0.0
  9
$UCSYDIR
 10
0.0
 20
1.0
 30
0.0
  9
$UNITMODE
 70
0
  9
$USERI1
 70
0
  9
$USERI2
 70
0
  9
$USERI3
 70
0
  9
$USERI4
 70
0
  9
$USERI5
 70
0
  9
$USERR1
 40
0.0
  9
$USERR2
 40
0.0
  9
$USERR3
 40
0.0
  9
$USERR4
 40
0.0
  9
$USERR5
 40
0.0
  0
ENDSEC
  0
SECTION
  2
TABLES
  0
TABLE
  2
VPORT
  5
8
100
AcDbSymbolTable
 70
1
  0
VPORT
  5
30
100
AcDbSymbolTableRecord
100
AcDbViewportTableRecord
  2
*Active
 70
0
 10
0.0
 20
0.0
 11
1.0
 21
1.0
 12
286.30555555555549
 22
148.5
 13
0.0
 23
0.0
 14
10.0
 24
10.0
 15
10.0
 25
10.0
 16
0.0
 26
0.0
 36
1.0
 17
0.0
 27
0.0
 37
0.0
 40
297.0
 41
1.92798353909465
 42
50.0
 43
0.0
 44
0.0
 50
0.0
 51
0.0
 71
0
 72
100
 73
1
 74
3
 75
1
 76
1
 77
0
 78
0
281
0
 65
1
110
0.0
120
0.0
130
0.0
111
1.0
121
0.0
131
0.0
112
0.0
122
1.0
132
0.0
 79
0
146
0.0
  0
ENDTAB
  0
TABLE
  2
LTYPE
  5
5
100
AcDbSymbolTable
 70
50
  0
LTYPE
  5
16
100
AcDbSymbolTableRecord
100
AcDbLinetypeTableRecord
  2
Continuous
 70
0
  3
Solid line
 72
65
 73
0
 40
0.0
  0
LTYPE
  5
31
100
AcDbSymbolTableRecord
100
AcDbLinetypeTableRecord
  2
GAS_LINE
 70
0
  3
Gas line ----GAS----GAS----GAS----GAS----GAS----GAS--
 72
65
 73
3
 40
24.130000000000003
 49
12.699999999999999
 74
0
 49
-5.0800000000000001
 74
0
 49
-6.3499999999999996
 74
0
  0
LTYPE
  5
32
100
AcDbSymbolTableRecord
100
AcDbLinetypeTableRecord
  2
PHANTOM2
 70
0
  3
Phantom (.5x) ___ _ _ ___ _ _ ___ _ _ ___ _ _
 72
65
 73
6
 40
31.750000000000004
 49
15.875
 74
0
 49
-3.1749999999999998
 74
0
 49
3.1749999999999998
 74
0
 49
-3.1749999999999998
 74
0
 49
3.1749999999999998
 74
0
 49
-3.1749999999999998
 74
0
  0
LTYPE
  5
33
100
AcDbSymbolTableRecord
100
AcDbLinetypeTableRecord
  2
ACAD_ISO08W100
 70
0
  3
ISO long-dash short-dash ____ __ ____ __ ____ _
 72
65
 73
4
 40
36.0
 49
24.0
 74
0
 49
-3.0
 74
0
 49
6.0
 74
0
 49
-3.0
 74
0
  0
LTYPE
  5
34
100
AcDbSymbolTableRecord
100
AcDbLinetypeTableRecord
  2
ACAD_ISO09W100
 70
0
  3
ISO long-dash double-short-dash ____ __ __ ____
 72
65
 73
6
 40
45.0
 49
24.0
 74
0
 49
-3.0
 74
0
 49
6.0
 74
0
 49
-3.0
 74
0
 49
6.0
 74
0
 49
-3.0
 74
0
  0
LTYPE
  5
35
100
AcDbSymbolTableRecord
100
AcDbLinetypeTableRecord
  2
DRAINAGE
 70
0
  3
Drainage ---->---->---->----
 72
65
 73
2
 40
10.16
 49
5.0800000000000001
 74
0
 49
5.0800000000000001
 74
0
  0
LTYPE
  5
36
100
AcDbSymbolTableRecord
100
AcDbLinetypeTableRecord
  2
ZIGZAG
 70
0
  3
Zig zag /\/\/\/\/\/\/\/\/\/\/\/\/\/\/\/\/\/\/\/\/\/\/\/
 72
65
 73
4
 40
20.32254
 49
0.00254
 74
0
 49
-5.0800000000000001
 74
0
 49
-10.16
 74
0
 49
-5.0800000000000001
 74
0
  0
LTYPE
  5
15
100
AcDbSymbolTableRecord
100
AcDbLinetypeTableRecord
  2
BYLAYER
 70
0
  3

 72
65
 73
0
 40
0.0
  0
LTYPE
  5
37
100
AcDbSymbolTableRecord
100
AcDbLinetypeTableRecord
  2
BORDER2
 70
0
  3
Border (.5x) __.__.__.__.__.__.__.__.__.__.__.
 72
65
 73
6
 40
22.224999999999998
 49
6.3499999999999996
 74
0
 49
-3.1749999999999998
 74
0
 49
6.3499999999999996
 74
0
 49
-3.1749999999999998
 74
0
 49
0.0
 74
0
 49
-3.1749999999999998
 74
0
  0
LTYPE
  5
38
100
AcDbSymbolTableRecord
100
AcDbLinetypeTableRecord
  2
DASHED
 70
0
  3
Dashed __ __ __ __ __ __ __ __ __ __ __ __ __ _
 72
65
 73
2
 40
19.049999999999997
 49
12.699999999999999
 74
0
 49
-6.3499999999999996
 74
0
  0
LTYPE
  5
39
100
AcDbSymbolTableRecord
100
AcDbLinetypeTableRecord
  2
ACAD_ISO05W100
 70
0
  3
ISO long-dash double-dot ____ .. ____ .. ____ . 
 72
65
 73
6
 40
33.0
 49
24.0
 74
0
 49
-3.0
 74
0
 49
0.0
 74
0
 49
-3.0
 74
0
 49
0.0
 74
0
 49
-3.0
 74
0
  0
LTYPE
  5
3A
100
AcDbSymbolTableRecord
100
AcDbLinetypeTableRecord
  2
ACAD_ISO04W100
 70
0
  3
ISO long-dash dot ____ . ____ . ____ . ____ . _
 72
65
 73
4
 40
30.0
 49
24.0
 74
0
 49
-3.0
 74
0
 49
0.0
 74
0
 49
-3.0
 74
0
  0
LTYPE
  5
3B
100
AcDbSymbolTableRecord
100
AcDbLinetypeTableRecord
  2
DRAINAGE2
 70
0
  3
Drainage reversed----<----<----<----
 72
65
 73
2
 40
10.16
 49
5.0800000000000001
 74
0
 49
5.0800000000000001
 74
0
  0
LTYPE
  5
3C
100
AcDbSymbolTableRecord
100
AcDbLinetypeTableRecord
  2
CENTERX2
 70
0
  3
Center (2x) ________  __  ________  __  _____
 72
65
 73
4
 40
101.60000000000001
 49
63.5
 74
0
 49
-12.699999999999999
 74
0
 49
12.699999999999999
 74
0
 49
-12.699999999999999
 74
0
  0
LTYPE
  5
3D
100
AcDbSymbolTableRecord
100
AcDbLinetypeTableRecord
  2
DOT
 70
0
  3
Dot . . . . . . . . . . . . . . . . . . . . . . . .
 72
65
 73
2
 40
6.3499999999999996
 49
0.0
 74
0
 49
-6.3499999999999996
 74
0
  0
LTYPE
  5
3E
100
AcDbSymbolTableRecord
100
AcDbLinetypeTableRecord
  2
ACAD_ISO03W100
 70
0
  3
ISO dash space __    __    __    __    __    __
 72
65
 73
2
 40
30.0
 49
12.0
 74
0
 49
-18.0
 74
0
  0
LTYPE
  5
3F
100
AcDbSymbolTableRecord
100
AcDbLinetypeTableRecord
  2
ACAD_ISO07W100
 70
0
  3
ISO dot . . . . . . . . . . . . . . . . . . . . 
 72
65
 73
2
 40
3.0
 49
0.0
 74
0
 49
-3.0
 74
0
  0
LTYPE
  5
40
100
AcDbSymbolTableRecord
100
AcDbLinetypeTableRecord
  2
DASHDOT2
 70
0
  3
Dash dot (.5x) _._._._._._._._._._._._._._._.
 72
65
 73
4
 40
12.699999999999999
 49
6.3499999999999996
 74
0
 49
-3.1749999999999998
 74
0
 49
0.0
 74
0
 49
-3.1749999999999998
 74
0
  0
LTYPE
  5
41
100
AcDbSymbolTableRecord
100
AcDbLinetypeTableRecord
  2
BATTING
 70
0
  3
Batting SSSSSSSSSSSSSSSSSSSSSSSSSSSSSSSSSSSSSSSSSSSSSSS
 72
65
 73
4
 40
10.16254
 49
0.00254
 74
0
 49
-2.54
 74
0
 49
-5.0800000000000001
 74
0
 49
-2.54
 74
0
  0
LTYPE
  5
42
100
AcDbSymbolTableRecord
100
AcDbLinetypeTableRecord
  2
CENTER2
 70
0
  3
Center (.5x) ___ _ ___ _ ___ _ ___ _ ___ _ ___
 72
65
 73
4
 40
28.575000000000003
 49
19.050000000000001
 74
0
 49
-3.1749999999999998
 74
0
 49
3.1749999999999998
 74
0
 49
-3.1749999999999998
 74
0
  0
LTYPE
  5
43
100
AcDbSymbolTableRecord
100
AcDbLinetypeTableRecord
  2
DIVIDE2
 70
0
  3
Divide (.5x) __..__..__..__..__..__..__..__.._
 72
65
 73
6
 40
15.875
 49
6.3499999999999996
 74
0
 49
-3.1749999999999998
 74
0
 49
0.0
 74
0
 49
-3.1749999999999998
 74
0
 49
0.0
 74
0
 49
-3.1749999999999998
 74
0
  0
LTYPE
  5
44
100
AcDbSymbolTableRecord
100
AcDbLinetypeTableRecord
  2
DASHDOT
 70
0
  3
Dash dot __ . __ . __ . __ . __ . __ . __ . __
 72
65
 73
4
 40
25.399999999999999
 49
12.699999999999999
 74
0
 49
-6.3499999999999996
 74
0
 49
0.0
 74
0
 49
-6.3499999999999996
 74
0
  0
LTYPE
  5
45
100
AcDbSymbolTableRecord
100
AcDbLinetypeTableRecord
  2
ACAD_ISO12W100
 70
0
  3
ISO dash double-dot __ . . __ . . __ . . __ . . 
 72
65
 73
6
 40
21.0
 49
12.0
 74
0
 49
-3.0
 74
0
 49
0.0
 74
0
 49
-3.0
 74
0
 49
0.0
 74
0
 49
-3.0
 74
0
  0
LTYPE
  5
46
100
AcDbSymbolTableRecord
100
AcDbLinetypeTableRecord
  2
ACAD_ISO10W100
 70
0
  3
ISO dash dot __ . __ . __ . __ . __ . __ . __ . 
 72
65
 73
4
 40
18.0
 49
12.0
 74
0
 49
-3.0
 74
0
 49
0.0
 74
0
 49
-3.0
 74
0
  0
LTYPE
  5
47
100
AcDbSymbolTableRecord
100
AcDbLinetypeTableRecord
  2
BORDER
 70
0
  3
Border __ __ . __ __ . __ __ . __ __ . __ __ .
 72
65
 73
6
 40
44.449999999999996
 49
12.699999999999999
 74
0
 49
-6.3499999999999996
 74
0
 49
12.699999999999999
 74
0
 49
-6.3499999999999996
 74
0
 49
0.0
 74
0
 49
-6.3499999999999996
 74
0
  0
LTYPE
  5
48
100
AcDbSymbolTableRecord
100
AcDbLinetypeTableRecord
  2
DOTX2
 70
0
  3
Dot (2x) .  .  .  .  .  .  .  .  .  .  .  .  .  .
 72
65
 73
2
 40
12.699999999999999
 49
0.0
 74
0
 49
-12.699999999999999
 74
0
  0
LTYPE
  5
49
100
AcDbSymbolTableRecord
100
AcDbLinetypeTableRecord
  2
FENCELINE1
 70
0
  3
Fenceline circle ----0-----0----0-----0----0-----0--
 72
65
 73
4
 40
36.829999999999998
 49
6.3499999999999996
 74
0
 49
-2.54
 74
0
 49
-2.54
 74
0
 49
25.399999999999999
 74
0
  0
LTYPE
  5
4A
100
AcDbSymbolTableRecord
100
AcDbLinetypeTableRecord
  2
DIVIDEX2
 70
0
  3
Divide (2x) ________  .  .  ________  .  .  _
 72
65
 73
6
 40
63.5
 49
25.399999999999999
 74
0
 49
-12.699999999999999
 74
0
 49
0.0
 74
0
 49
-12.699999999999999
 74
0
 49
0.0
 74
0
 49
-12.699999999999999
 74
0
  0
LTYPE
  5
4B
100
AcDbSymbolTableRecord
100
AcDbLinetypeTableRecord
  2
ACAD_ISO13W100
 70
0
  3
ISO double-dash double-dot __ __ . . __ __ . . _
 72
65
 73
8
 40
36.0
 49
12.0
 74
0
 49
-3.0
 74
0
 49
12.0
 74
0
 49
-3.0
 74
0
 49
0.0
 74
0
 49
-3.0
 74
0
 49
0.0
 74
0
 49
-3.0
 74
0
  0
LTYPE
  5
4C
100
AcDbSymbolTableRecord
100
AcDbLinetypeTableRecord
  2
CENTER
 70
0
  3
Center ____ _ ____ _ ____ _ ____ _ ____ _ ____
 72
65
 73
4
 40
50.800000000000004
 49
31.75
 74
0
 49
-6.3499999999999996
 74
0
 49
6.3499999999999996
 74
0
 49
-6.3499999999999996
 74
0
  0
LTYPE
  5
4D
100
AcDbSymbolTableRecord
100
AcDbLinetypeTableRecord
  2
DOT2
 70
0
  3
Dot (.5x) ........................................
 72
65
 73
2
 40
3.1749999999999998
 49
0.0
 74
0
 49
-3.1749999999999998
 74
0
  0
LTYPE
  5
4E
100
AcDbSymbolTableRecord
100
AcDbLinetypeTableRecord
  2
DASHEDX2
 70
0
  3
Dashed (2x) ____  ____  ____  ____  ____  ___
 72
65
 73
2
 40
38.099999999999994
 49
25.399999999999999
 74
0
 49
-12.699999999999999
 74
0
  0
LTYPE
  5
4F
100
AcDbSymbolTableRecord
100
AcDbLinetypeTableRecord
  2
TRACKS
 70
0
  3
Tracks -|-|-|-|-|-|-|-|-|-|-|-|-|-|-|-|-|-|-|-|-|-|-|-|-
 72
65
 73
2
 40
7.6200000000000001
 49
3.8100000000000001
 74
0
 49
3.8100000000000001
 74
0
  0
LTYPE
  5
50
100
AcDbSymbolTableRecord
100
AcDbLinetypeTableRecord
  2
DASHED2
 70
0
  3
Dashed (.5x) _ _ _ _ _ _ _ _ _ _ _ _ _ _ _ _ _ 
 72
65
 73
2
 40
9.5249999999999986
 49
6.3499999999999996
 74
0
 49
-3.1749999999999998
 74
0
  0
LTYPE
  5
51
100
AcDbSymbolTableRecord
100
AcDbLinetypeTableRecord
  2
DASHDOTX2
 70
0
  3
Dash dot (2x) ____  .  ____  .  ____  .  ___
 72
65
 73
4
 40
50.799999999999997
 49
25.399999999999999
 74
0
 49
-12.699999999999999
 74
0
 49
0.0
 74
0
 49
-12.699999999999999
 74
0
  0
LTYPE
  5
52
100
AcDbSymbolTableRecord
100
AcDbLinetypeTableRecord
  2
ACAD_ISO11W100
 70
0
  3
ISO double-dash dot __ __ . __ __ . __ __ . __ _
 72
65
 73
6
 40
33.0
 49
12.0
 74
0
 49
-3.0
 74
0
 49
12.0
 74
0
 49
-3.0
 74
0
 49
0.0
 74
0
 49
-3.0
 74
0
  0
LTYPE
  5
53
100
AcDbSymbolTableRecord
100
AcDbLinetypeTableRecord
  2
ACAD_ISO02W100
 70
0
  3
ISO dash __ __ __ __ __ __ __ __ __ __ __ __ __
 72
65
 73
2
 40
15.0
 49
12.0
 74
0
 49
-3.0
 74
0
  0
LTYPE
  5
54
100
AcDbSymbolTableRecord
100
AcDbLinetypeTableRecord
  2
PHANTOMX2
 70
0
  3
Phantom (2x) ____________    ____    ____   _
 72
65
 73
6
 40
127.00000000000001
 49
63.5
 74
0
 49
-12.699999999999999
 74
0
 49
12.699999999999999
 74
0
 49
-12.699999999999999
 74
0
 49
12.699999999999999
 74
0
 49
-12.699999999999999
 74
0
  0
LTYPE
  5
55
100
AcDbSymbolTableRecord
100
AcDbLinetypeTableRecord
  2
ACAD_ISO15W100
 70
0
  3
ISO double-dash triple-dot __ __ . . . __ __ . .
 72
65
 73
10
 40
39.0
 49
12.0
 74
0
 49
-3.0
 74
0
 49
12.0
 74
0
 49
-3.0
 74
0
 49
0.0
 74
0
 49
-3.0
 74
0
 49
0.0
 74
0
 49
-3.0
 74
0
 49
0.0
 74
0
 49
-3.0
 74
0
  0
LTYPE
  5
56
100
AcDbSymbolTableRecord
100
AcDbLinetypeTableRecord
  2
HIDDEN
 70
0
  3
Hidden __ __ __ __ __ __ __ __ __ __ __ __ __ __
 72
65
 73
2
 40
9.5249999999999986
 49
6.3499999999999996
 74
0
 49
-3.1749999999999998
 74
0
  0
LTYPE
  5
57
100
AcDbSymbolTableRecord
100
AcDbLinetypeTableRecord
  2
HIDDENX2
 70
0
  3
Hidden (2x) ____ ____ ____ ____ ____ ____ ____ 
 72
65
 73
2
 40
19.049999999999997
 49
12.699999999999999
 74
0
 49
-6.3499999999999996
 74
0
  0
LTYPE
  5
58
100
AcDbSymbolTableRecord
100
AcDbLinetypeTableRecord
  2
DIVIDE
 70
0
  3
Divide ____ . . ____ . . ____ . . ____ . . ____
 72
65
 73
6
 40
31.75
 49
12.699999999999999
 74
0
 49
-6.3499999999999996
 74
0
 49
0.0
 74
0
 49
-6.3499999999999996
 74
0
 49
0.0
 74
0
 49
-6.3499999999999996
 74
0
  0
LTYPE
  5
59
100
AcDbSymbolTableRecord
100
AcDbLinetypeTableRecord
  2
PHANTOM
 70
0
  3
Phantom ______  __  __  ______  __  __  ______ 
 72
65
 73
6
 40
63.500000000000007
 49
31.75
 74
0
 49
-6.3499999999999996
 74
0
 49
6.3499999999999996
 74
0
 49
-6.3499999999999996
 74
0
 49
6.3499999999999996
 74
0
 49
-6.3499999999999996
 74
0
  0
LTYPE
  5
14
100
AcDbSymbolTableRecord
100
AcDbLinetypeTableRecord
  2
BYBLOCK
 70
0
  3

 72
65
 73
0
 40
0.0
  0
LTYPE
  5
5A
100
AcDbSymbolTableRecord
100
AcDbLinetypeTableRecord
  2
ACAD_ISO14W100
 70
0
  3
ISO dash triple-dot __ . . . __ . . . __ . . . _
 72
65
 73
8
 40
24.0
 49
12.0
 74
0
 49
-3.0
 74
0
 49
0.0
 74
0
 49
-3.0
 74
0
 49
0.0
 74
0
 49
-3.0
 74
0
 49
0.0
 74
0
 49
-3.0
 74
0
  0
LTYPE
  5
5B
100
AcDbSymbolTableRecord
100
AcDbLinetypeTableRecord
  2
BORDERX2
 70
0
  3
Border (2x) ____  ____  .  ____  ____  .  ___
 72
65
 73
6
 40
88.899999999999991
 49
25.399999999999999
 74
0
 49
-12.699999999999999
 74
0
 49
25.399999999999999
 74
0
 49
-12.699999999999999
 74
0
 49
0.0
 74
0
 49
-12.699999999999999
 74
0
  0
LTYPE
  5
5C
100
AcDbSymbolTableRecord
100
AcDbLinetypeTableRecord
  2
ACAD_ISO06W100
 70
0
  3
ISO long-dash triple-dot ____ ... ____ ... ____
 72
65
 73
8
 40
36.0
 49
24.0
 74
0
 49
-3.0
 74
0
 49
0.0
 74
0
 49
-3.0
 74
0
 49
0.0
 74
0
 49
-3.0
 74
0
 49
0.0
 74
0
 49
-3.0
 74
0
  0
LTYPE
  5
5D
100
AcDbSymbolTableRecord
100
AcDbLinetypeTableRecord
  2
FENCELINE2
 70
0
  3
Fenceline square ----[]-----[]----[]-----[]----[]---
 72
65
 73
4
 40
36.829999999999998
 49
6.3499999999999996
 74
0
 49
-2.54
 74
0
 49
-2.54
 74
0
 49
25.399999999999999
 74
0
  0
LTYPE
  5
5E
100
AcDbSymbolTableRecord
100
AcDbLinetypeTableRecord
  2
HOT_WATER_SUPPLY
 70
0
  3
Hot water supply ---- HW ---- HW ---- HW ----
 72
65
 73
3
 40
22.859999999999999
 49
12.699999999999999
 74
0
 49
-5.0800000000000001
 74
0
 49
-5.0800000000000001
 74
0
  0
LTYPE
  5
5F
100
AcDbSymbolTableRecord
100
AcDbLinetypeTableRecord
  2
HIDDEN2
 70
0
  3
Hidden (.5x) _ _ _ _ _ _ _ _ _ _ _ _ _ _ _ _ _ 
 72
65
 73
2
 40
4.7624999999999993
 49
3.1749999999999998
 74
0
 49
-1.5874999999999999
 74
0
  0
ENDTAB
  0
TABLE
  2
LAYER
  5
2
100
AcDbSymbolTable
 70
4
  0
LAYER
  5
60
100
AcDbSymbolTableRecord
100
AcDbLayerTableRecord
  2
guides
 70
0
 62
1
420
16711680
  6
Continuous
370
25
390
F
  0
LAYER
  5
61
100
AcDbSymbolTableRecord
100
AcDbLayerTableRecord
  2
engrave
 70
0
 62
6
420
16711935
  6
Continuous
370
25
390
F
  0
LAYER
  5
62
100
AcDbSymbolTableRecord
100
AcDbLayerTableRecord
  2
mark
 70
0
 62
3
420
65280
  6
Continuous
370
25
390
F
  0
LAYER
  5
10
100
AcDbSymbolTableRecord
100
AcDbLayerTableRecord
  2
0
 70
0
 62
7
420
16777215
  6
Continuous
370
25
390
F
  0
ENDTAB
  0
TABLE
  2
STYLE
  5
3
100
AcDbSymbolTable
 70
13
  0
STYLE
  5
63
100
AcDbSymbolTableRecord
100
AcDbTextStyleTableRecord
  2
Standard
 70
0
 40
0.0
 41
1.0
 50
0.0
 71
0
 42
2.5
  3

  4

1001
ACAD
1000
txt
1071
0
  0
STYLE
  5
64
100
AcDbSymbolTableRecord
100
AcDbTextStyleTableRecord
  2
textstyle0
 70
0
 40
0.0
 41
1.0
 50
0.0
 71
0
 42
4.0
  3

  4

1001
ACAD
1000
Arial
1071
0
  0
STYLE
  5
65
100
AcDbSymbolTableRecord
100
AcDbTextStyleTableRecord
  2
textstyle1
 70
0
 40
0.0
 41
1.0
 50
0.0
 71
0
 42
4.0
  3

  4

1001
ACAD
1000
Arial
1071
0
  0
STYLE
  5
66
100
AcDbSymbolTableRecord
100
AcDbTextStyleTableRecord
  2
textstyle2
 70
0
 40
0.0
 41
1.0
 50
0.0
 71
0
 42
4.0
  3

  4

1001
ACAD
1000
Arial
1071
0
  0
STYLE
  5
67
100
AcDbSymbolTableRecord
100
AcDbTextStyleTableRecord
  2
textstyle3
 70
0
 40
0.0
 41
1.0
 50
0.0
 71
0
 42
4.0
  3

  4

1001
ACAD
1000
Arial
1071
0
  0
STYLE
  5
68
100
AcDbSymbolTableRecord
100
AcDbTextStyleTableRecord
  2
textstyle4
 70
0
 40
0.0
 41
1.0
 50
0.0
 71
0
 42
4.0
  3

  4

1001
ACAD
1000
Arial
1071
0
  0
STYLE
  5
69
100
AcDbSymbolTableRecord
100
AcDbTextStyleTableRecord
  2
textstyle5
 70
0
 40
0.0
 41
1.0
 50
0.0
 71
0
 42
4.0
  3

  4

1001
ACAD
1000
Arial
1071
0
  0
STYLE
  5
6A
100
AcDbSymbolTableRecord
100
AcDbTextStyleTableRecord
  2
textstyle6
 70
0
 40
0.0
 41
1.0
 50
0.0
 71
0
 42
4.0
  3

  4

1001
ACAD
1000
Arial
1071
0
  0
STYLE
  5
6B
100
AcDbSymbolTableRecord
100
AcDbTextStyleTableRecord
  2
textstyle7
 70
0
 40
0.0
 41
1.0
 50
0.0
 71
0
 42
1.5
  3

  4

1001
ACAD
1000
CourierCad
1071
0
  0
STYLE
  5
6C
100
AcDbSymbolTableRecord
100
AcDbTextStyleTableRecord
  2
textstyle8
 70
0
 40
0.0
 41
1.0
 50
0.0
 71
0
 42
4.0
  3

  4

1001
ACAD
1000
Arial
1071
0
  0
STYLE
  5
6D
100
AcDbSymbolTableRecord
100
AcDbTextStyleTableRecord
  2
textstyle9
 70
0
 40
0.0
 41
1.0
 50
0.0
 71
0
 42
4.0
  3

  4

1001
ACAD
1000
Arial
1071
0
  0
STYLE
  5
6E
100
AcDbSymbolTableRecord
100
AcDbTextStyleTableRecord
  2
textstyle10
 70
0
 40
0.0
 41
1.0
 50
0.0
 71
0
 42
4.0
  3

  4

1001
ACAD
1000
Arial
1071
0
  0
STYLE
  5
6F
100
AcDbSymbolTableRecord
100
AcDbTextStyleTableRecord
  2
textstyle11
 70
0
 40
0.0
 41
1.0
 50
0.0
 71
0
 42
4.0
  3

  4

1001
ACAD
1000
Arial
1071
0
  0
ENDTAB
  0
TABLE
  2
VIEW
  5
6
100
AcDbSymbolTable
 70
0
  0
ENDTAB
  0
TABLE
  2
UCS
  5
7
100
AcDbSymbolTable
 70
0
  0
ENDTAB
  0
TABLE
  2
APPID
  5
9
100
AcDbSymbolTable
 70
1
  0
APPID
  5
12
100
AcDbSymbolTableRecord
100
AcDbRegAppTableRecord
  2
ACAD
 70
0
  0
APPID
  5
70
100
AcDbSymbolTableRecord
100
AcDbRegAppTableRecord
  2
QCAD
 70
0
  0
ENDTAB
  0
TABLE
  2
DIMSTYLE
  5
A
100
AcDbSymbolTable
 70
1
100
AcDbDimStyleTable
 71
0
  0
DIMSTYLE
105
27
100
AcDbSymbolTableRecord
100
AcDbDimStyleTableRecord
  2
Standard
 41
2.5
 42
0.625
 43
3.75
 44
1.25
 70
0
 73
0
 74
0
 77
1
 78
8
140
2.5
141
2.5
143
0.03937007874016
147
0.625
171
3
172
1
271
2
272
2
274
3
278
44
283
0
284
8
340
63
  0
ENDTAB
  0
TABLE
  2
BLOCK_RECORD
  5
1
100
AcDbSymbolTable
 70
1
  0
BLOCK_RECORD
  5
1F
100
AcDbSymbolTableRecord
100
AcDbBlockTableRecord
  2
*Model_Space
340
22
  0
BLOCK_RECORD
  5
1B
100
AcDbSymbolTableRecord
100
AcDbBlockTableRecord
  2
*Paper_Space
340
1E
  0
BLOCK_RECORD
  5
23
100
AcDbSymbolTableRecord
100
AcDbBlockTableRecord
  2
*Paper_Space0
340
26
  0
ENDTAB
  0
ENDSEC
  0
SECTION
  2
BLOCKS
  0
BLOCK
  5
20
100
AcDbEntity
  8
0
100
AcDbBlockBegin
  2
*Model_Space
 70
0
 10
0.0
 20
0.0
 30
0.0
  3
*Model_Space
  1

  0
ENDBLK
  5
21
100
AcDbEntity
  8
0
100
AcDbBlockEnd
  0
BLOCK
  5
1C
100
AcDbEntity
 67
1
  8
0
100
AcDbBlockBegin
  2
*Paper_Space
 70
0
 10
0.0
 20
0.0
 30
0.0
  3
*Paper_Space
  1

  0
ENDBLK
  5
1D
100
AcDbEntity
 67
1
  8
0
100
AcDbBlockEnd
  0
BLOCK
  5
24
100
AcDbEntity
  8
0
100
AcDbBlockBegin
  2
*Paper_Space0
 70
0
 10
0.0
 20
0.0
 30
0.0
  3
*Paper_Space0
  1

  0
ENDBLK
  5
25
100
AcDbEntity
  8
0
100
AcDbBlockEnd
  0
ENDSEC
  0
SECTION
  2
ENTITIES
  0
LINE
  5
71
100
AcDbEntity
100
AcDbLine
  8
0
 62
256
370
-1
 48
1.0
  6
BYLAYER
 10
116.0
 20
0.0
 30
0.0
 11
204.0
 21
0.0
 31
0.0
  0
LINE
  5
72
100
AcDbEntity
100
AcDbLine
  8
0
 62
256
370
-1
 48
1.0
  6
BYLAYER
 10
104.0
 20
-12.0
 30
0.0
 11
192.0
 21
-12.0
 31
0.0
  0
LINE
  5
73
100
AcDbEntity
100
AcDbLine
  8
0
 62
256
370
-1
 48
1.0
  6
BYLAYER
 10
210.0
 20
5.9999999999999982
 30
0.0
 11
210.0
 21
94.0
 31
0.0
  0
LINE
  5
74
100
AcDbEntity
100
AcDbLine
  8
0
 62
256
370
-1
 48
1.0
  6
BYLAYER
 10
198.0
 20
-6.0000000000000018
 30
0.0
 11
198.0
 21
-2.0
 31
0.0
  0
LINE
  5
75
100
AcDbEntity
100
AcDbLine
  8
0
 62
256
370
-1
 48
1.0
  6
BYLAYER
 10
120.0
 20
100.0
 30
0.0
 11
116.0
 21
100.0
 31
0.0
  0
LINE
  5
76
100
AcDbEntity
100
AcDbLine
  8
0
 62
256
370
-1
 48
1.0
  6
BYLAYER
 10
108.0
 20
88.0
 30
0.0
 11
104.0
 21
88.0
 31
0.0
  0
LINE
  5
77
100
AcDbEntity
100
AcDbLine
  8
0
 62
256
370
-1
 48
1.0
  6
BYLAYER
 10
110.0
 20
94.0
 30
0.0
 11
110.0
 21
6.0
 31
0.0
  0
LINE
  5
78
100
AcDbEntity
100
AcDbLine
  8
0
 62
256
370
-1
 48
1.0
  6
BYLAYER
 10
98.0
 20
82.0
 30
0.0
 11
98.0
 21
-6.0
 31
0.0
  0
ARC
  5
79
100
AcDbEntity
  8
0
 62
256
370
-1
 48
1.0
  6
BYLAYER
100
AcDbCircle
 10
116.0
 20
94.0
 30
0.0
 40
6.0
100
AcDbArc
 50
90.0
 51
180.0
  0
ARC
  5
7A
100
AcDbEntity
  8
0
 62
256
370
-1
 48
1.0
  6
BYLAYER
100
AcDbCircle
 10
104.0
 20
82.0
 30
0.0
 40
6.0
100
AcDbArc
 50
90.0
 51
180.0
  0
ARC
  5
7B
100
AcDbEntity
  8
0
 62
256
370
-1
 48
1.0
  6
BYLAYER
100
AcDbCircle
 10
204.0
 20
94.0
 30
0.0
 40
6.0
100
AcDbArc
 50
0.0
 51
45.000000000000199
  0
ARC
  5
7C
100
AcDbEntity
  8
0
 62
256
370
-1
 48
1.0
  6
BYLAYER
100
AcDbCircle
 10
192.0
 20
-6.0
 30
0.0
 40
6.0
100
AcDbArc
 50
270.0
 51
0.0
  0
ARC
  5
7D
100
AcDbEntity
  8
0
 62
256
370
-1
 48
1.0
  6
BYLAYER
100
AcDbCircle
 10
204.0
 20
6.0
 30
0.0
 40
6.0
100
AcDbArc
 50
270.0
 51
0.0
  0
ARC
  5
7E
100
AcDbEntity
  8
0
 62
256
370
-1
 48
1.0
  6
BYLAYER
100
AcDbCircle
 10
104.0
 20
-6.0
 30
0.0
 40
6.0
100
AcDbArc
 50
180.0
 51
270.0
  0
ARC
  5
7F
100
AcDbEntity
  8
0
 62
256
370
-1
 48
1.0
  6
BYLAYER
100
AcDbCircle
 10
116.0
 20
6.0
 30
0.0
 40
6.0
100
AcDbArc
 50
180.0
 51
270.0
  0
LINE
  5
80
100
AcDbEntity
100
AcDbLine
  8
0
 62
256
370
-1
 48
1.0
  6
BYLAYER
 10
121.0
 20
102.0
 30
0.0
 11
121.0
 21
21.656854249492369
 31
0.0
  0
LINE
  5
81
100
AcDbEntity
100
AcDbLine
  8
0
 62
256
370
-1
 48
1.0
  6
BYLAYER
 10
120.0
 20
100.0
 30
0.0
 11
120.0
 21
19.656854249492369
 31
0.0
  0
LINE
  5
82
100
AcDbEntity
100
AcDbLine
  8
0
 62
256
370
-1
 48
1.0
  6
BYLAYER
 10
127.82842712474621
 20
18.828427124746185
 30
0.0
 11
211.0
 21
102.0
 31
0.0
  0
LINE
  5
83
100
AcDbEntity
100
AcDbLine
  8
0
 62
256
370
-1
 48
1.0
  6
BYLAYER
 10
126.82842712474618
 20
16.828427124746181
 30
0.0
 11
208.24264068711926
 21
98.242640687119277
 31
0.0
  0
ARC
  5
84
100
AcDbEntity
  8
0
 62
256
370
-1
 48
1.0
  6
BYLAYER
100
AcDbCircle
 10
125.0
 20
21.656854249492373
 30
0.0
 40
4.0
100
AcDbArc
 50
180.0
 51
315.00000000000006
  0
ARC
  5
85
100
AcDbEntity
  8
0
 62
256
370
-1
 48
1.0
  6
BYLAYER
100
AcDbCircle
 10
123.99999999999999
 20
19.656854249492373
 30
0.0
 40
4.0
100
AcDbArc
 50
180.0
 51
315.00000000000006
  0
LINE
  5
86
100
AcDbEntity
100
AcDbLine
  8
0
 62
256
370
-1
 48
1.0
  6
BYLAYER
 10
198.0
 20
-2.0
 30
0.0
 11
112.0
 21
-2.0
 31
0.0
  0
LINE
  5
87
100
AcDbEntity
100
AcDbLine
  8
0
 62
256
370
-1
 48
1.0
  6
BYLAYER
 10
108.0
 20
2.0
 30
0.0
 11
108.0
 21
88.0
 31
0.0
  0
CIRCLE
  5
88
100
AcDbEntity
100
AcDbCircle
  8
0
 62
256
370
-1
 48
1.0
  6
BYLAYER
 10
103.0
 20
78.0
 30
0.0
 40
1.45
  0
CIRCLE
  5
89
100
AcDbEntity
100
AcDbCircle
  8
0
 62
256
370
-1
 48
1.0
  6
BYLAYER
 10
118.0
 20
-7.0
 30
0.0
 40
1.45
  0
CIRCLE
  5
8A
100
AcDbEntity
100
AcDbCircle
  8
0
 62
256
370
-1
 48
1.0
  6
BYLAYER
 10
188.0
 20
-7.0
 30
0.0
 40
1.45
  0
CIRCLE
  5
8B
100
AcDbEntity
100
AcDbCircle
  8
0
 62
256
370
-1
 48
1.0
  6
BYLAYER
 10
115.0
 20
20.0
 30
0.0
 40
1.45
  0
CIRCLE
  5
8C
100
AcDbEntity
100
AcDbCircle
  8
0
 62
256
370
-1
 48
1.0
  6
BYLAYER
 10
103.0
 20
8.0
 30
0.0
 40
1.45
  0
CIRCLE
  5
8D
100
AcDbEntity
100
AcDbCircle
  8
0
 62
256
370
-1
 48
1.0
  6
BYLAYER
 10
130.0
 20
5.0
 30
0.0
 40
1.45
  0
CIRCLE
  5
8E
100
AcDbEntity
100
AcDbCircle
  8
0
 62
256
370
-1
 48
1.0
  6
BYLAYER
 10
115.0
 20
90.0
 30
0.0
 40
1.45
  0
CIRCLE
  5
8F
100
AcDbEntity
100
AcDbCircle
  8
0
 62
256
370
-1
 48
1.0
  6
BYLAYER
 10
200.0
 20
5.0
 30
0.0
 40
1.45
  0
LINE
  5
90
100
AcDbEntity
100
AcDbLine
  8
mark
 62
256
370
-1
 48
1.0
  6
BYLAYER
 10
169.49747468305833
 20
59.497474683058329
 30
0.0
 11
173.03300858899109
 21
55.961940777125584
 31
0.0
  0
LINE
  5
91
100
AcDbEntity
100
AcDbLine
  8
mark
 62
256
370
-1
 48
1.0
  6
BYLAYER
 10
204.85281374238571
 20
94.852813742385706
 30
0.0
 11
208.38834764831859
 21
91.317279836452812
 31
0.0
  0
LINE
  5
92
100
AcDbEntity
100
AcDbLine
  8
mark
 62
256
370
-1
 48
1.0
  6
BYLAYER
 10
183.63961030678928
 20
73.63961030678928
 30
0.0
 11
187.17514421272193
 21
70.104076400856599
 31
0.0
  0
LINE
  5
93
100
AcDbEntity
100
AcDbLine
  8
mark
 62
256
370
-1
 48
1.0
  6
BYLAYER
 10
176.5685424949238
 20
66.568542494923804
 30
0.0
 11
180.10407640085657
 21
63.033008588991038
 31
0.0
  0
LINE
  5
94
100
AcDbEntity
100
AcDbLine
  8
mark
 62
256
370
-1
 48
1.0
  6
BYLAYER
 10
155.35533905932738
 20
45.355339059327378
 30
0.0
 11
158.89087296526012
 21
41.819805153394633
 31
0.0
  0
LINE
  5
95
100
AcDbEntity
100
AcDbLine
  8
mark
 62
256
370
-1
 48
1.0
  6
BYLAYER
 10
148.2842712474619
 20
38.284271247461902
 30
0.0
 11
151.81980515339464
 21
34.748737341529171
 31
0.0
  0
LINE
  5
96
100
AcDbEntity
100
AcDbLine
  8
mark
 62
256
370
-1
 48
1.0
  6
BYLAYER
 10
120.0
 20
10.0
 30
0.0
 11
123.53553390593274
 21
6.4644660940672614
 31
0.0
  0
LINE
  5
97
100
AcDbEntity
100
AcDbLine
  8
mark
 62
256
370
-1
 48
1.0
  6
BYLAYER
 10
162.42640687119285
 20
52.426406871192853
 30
0.0
 11
165.96194077712556
 21
48.890872965260137
 31
0.0
  0
LINE
  5
98
100
AcDbEntity
100
AcDbLine
  8
mark
 62
256
370
-1
 48
1.0
  6
BYLAYER
 10
134.14213562373095
 20
24.142135623730951
 30
0.0
 11
137.67766952966369
 21
20.606601717798206
 31
0.0
  0
LINE
  5
99
100
AcDbEntity
100
AcDbLine
  8
mark
 62
256
370
-1
 48
1.0
  6
BYLAYER
 10
127.07106781186548
 20
17.071067811865476
 30
0.0
 11
130.60660171779821
 21
13.535533905932734
 31
0.0
  0
LINE
  5
9A
100
AcDbEntity
100
AcDbLine
  8
mark
 62
256
370
-1
 48
1.0
  6
BYLAYER
 10
141.21320343559643
 20
31.213203435596427
 30
0.0
 11
144.74873734152916
 21
27.677669529663682
 31
0.0
  0
LINE
  5
9B
100
AcDbEntity
100
AcDbLine
  8
mark
 62
256
370
-1
 48
1.0
  6
BYLAYER
 10
197.78174593052023
 20
87.781745930520231
 30
0.0
 11
201.3172798364532
 21
84.246212024587265
 31
0.0
  0
LINE
  5
9C
100
AcDbEntity
100
AcDbLine
  8
mark
 62
256
370
-1
 48
1.0
  6
BYLAYER
 10
190.71067811865476
 20
80.710678118654755
 30
0.0
 11
194.24621202458755
 21
77.175144212721946
 31
0.0
  0
LINE
  5
9D
100
AcDbEntity
100
AcDbLine
  8
mark
 62
256
370
-1
 48
1.0
  6
BYLAYER
 10
120.70710678118655
 20
10.707106781186548
 30
0.0
 11
122.82842712474618
 21
8.5857864376269042
 31
0.0
  0
LINE
  5
9E
100
AcDbEntity
100
AcDbLine
  8
mark
 62
256
370
-1
 48
1.0
  6
BYLAYER
 10
166.66904755831214
 20
56.669047558312137
 30
0.0
 11
168.79036790187166
 21
54.547727214752605
 31
0.0
  0
LINE
  5
9F
100
AcDbEntity
100
AcDbLine
  8
mark
 62
256
370
-1
 48
1.0
  6
BYLAYER
 10
121.41421356237309
 20
11.414213562373096
 30
0.0
 11
123.53553390593274
 21
9.2928932188134521
 31
0.0
  0
LINE
  5
A0
100
AcDbEntity
100
AcDbLine
  8
mark
 62
256
370
-1
 48
1.0
  6
BYLAYER
 10
122.12132034355965
 20
12.121320343559642
 30
0.0
 11
124.24264068711929
 21
9.9999999999999982
 31
0.0
  0
LINE
  5
A1
100
AcDbEntity
100
AcDbLine
  8
mark
 62
256
370
-1
 48
1.0
  6
BYLAYER
 10
122.82842712474618
 20
12.82842712474619
 30
0.0
 11
124.94974746830583
 21
10.707106781186546
 31
0.0
  0
LINE
  5
A2
100
AcDbEntity
100
AcDbLine
  8
mark
 62
256
370
-1
 48
1.0
  6
BYLAYER
 10
123.53553390593274
 20
13.535533905932738
 30
0.0
 11
126.36396103067892
 21
10.707106781186548
 31
0.0
  0
LINE
  5
A3
100
AcDbEntity
100
AcDbLine
  8
mark
 62
256
370
-1
 48
1.0
  6
BYLAYER
 10
124.24264068711929
 20
14.242640687119286
 30
0.0
 11
126.36396103067892
 21
12.121320343559642
 31
0.0
  0
LINE
  5
A4
100
AcDbEntity
100
AcDbLine
  8
mark
 62
256
370
-1
 48
1.0
  6
BYLAYER
 10
124.94974746830583
 20
14.949747468305834
 30
0.0
 11
127.07106781186548
 21
12.828427124746188
 31
0.0
  0
LINE
  5
A5
100
AcDbEntity
100
AcDbLine
  8
mark
 62
256
370
-1
 48
1.0
  6
BYLAYER
 10
125.65685424949238
 20
15.65685424949238
 30
0.0
 11
127.77817459305203
 21
13.535533905932736
 31
0.0
  0
LINE
  5
A6
100
AcDbEntity
100
AcDbLine
  8
mark
 62
256
370
-1
 48
1.0
  6
BYLAYER
 10
126.36396103067892
 20
16.363961030678929
 30
0.0
 11
128.48528137423858
 21
14.242640687119284
 31
0.0
  0
LINE
  5
A7
100
AcDbEntity
100
AcDbLine
  8
mark
 62
256
370
-1
 48
1.0
  6
BYLAYER
 10
133.4350288425444
 20
23.435028842544405
 30
0.0
 11
135.55634918610403
 21
21.313708498984774
 31
0.0
  0
LINE
  5
A8
100
AcDbEntity
100
AcDbLine
  8
mark
 62
256
370
-1
 48
1.0
  6
BYLAYER
 10
132.02081528017132
 20
22.020815280171309
 30
0.0
 11
134.14213562373095
 21
19.899494936611667
 31
0.0
  0
LINE
  5
A9
100
AcDbEntity
100
AcDbLine
  8
mark
 62
256
370
-1
 48
1.0
  6
BYLAYER
 10
127.77817459305203
 20
17.778174593052022
 30
0.0
 11
129.89949493661166
 21
15.656854249492383
 31
0.0
  0
LINE
  5
AA
100
AcDbEntity
100
AcDbLine
  8
mark
 62
256
370
-1
 48
1.0
  6
BYLAYER
 10
131.31370849898477
 20
21.313708498984759
 30
0.0
 11
133.4350288425444
 21
19.192388155425114
 31
0.0
  0
LINE
  5
AB
100
AcDbEntity
100
AcDbLine
  8
mark
 62
256
370
-1
 48
1.0
  6
BYLAYER
 10
128.48528137423858
 20
18.485281374238571
 30
0.0
 11
130.60660171779821
 21
16.363961030678933
 31
0.0
  0
LINE
  5
AC
100
AcDbEntity
100
AcDbLine
  8
mark
 62
256
370
-1
 48
1.0
  6
BYLAYER
 10
132.72792206135784
 20
22.727922061357859
 30
0.0
 11
134.8492424049175
 21
20.606601717798206
 31
0.0
  0
LINE
  5
AD
100
AcDbEntity
100
AcDbLine
  8
mark
 62
256
370
-1
 48
1.0
  6
BYLAYER
 10
129.89949493661166
 20
19.899494936611667
 30
0.0
 11
132.02081528017132
 21
17.778174593052015
 31
0.0
  0
LINE
  5
AE
100
AcDbEntity
100
AcDbLine
  8
mark
 62
256
370
-1
 48
1.0
  6
BYLAYER
 10
129.19238815542511
 20
19.192388155425121
 30
0.0
 11
131.31370849898477
 21
17.071067811865468
 31
0.0
  0
LINE
  5
AF
100
AcDbEntity
100
AcDbLine
  8
mark
 62
256
370
-1
 48
1.0
  6
BYLAYER
 10
140.50609665440987
 20
30.50609665440988
 30
0.0
 11
142.62741699796953
 21
28.384776310850231
 31
0.0
  0
LINE
  5
B0
100
AcDbEntity
100
AcDbLine
  8
mark
 62
256
370
-1
 48
1.0
  6
BYLAYER
 10
139.0918830920368
 20
29.091883092036785
 30
0.0
 11
141.21320343559643
 21
26.970562748477128
 31
0.0
  0
LINE
  5
B1
100
AcDbEntity
100
AcDbLine
  8
mark
 62
256
370
-1
 48
1.0
  6
BYLAYER
 10
134.8492424049175
 20
24.849242404917497
 30
0.0
 11
136.97056274847714
 21
22.727922061357848
 31
0.0
  0
LINE
  5
B2
100
AcDbEntity
100
AcDbLine
  8
mark
 62
256
370
-1
 48
1.0
  6
BYLAYER
 10
138.38477631085024
 20
28.384776310850238
 30
0.0
 11
140.5060966544099
 21
26.263455967290579
 31
0.0
  0
LINE
  5
B3
100
AcDbEntity
100
AcDbLine
  8
mark
 62
256
370
-1
 48
1.0
  6
BYLAYER
 10
135.55634918610406
 20
25.556349186104047
 30
0.0
 11
137.67766952966369
 21
23.435028842544401
 31
0.0
  0
LINE
  5
B4
100
AcDbEntity
100
AcDbLine
  8
mark
 62
256
370
-1
 48
1.0
  6
BYLAYER
 10
139.79898987322332
 20
29.798989873223331
 30
0.0
 11
141.92031021678298
 21
27.677669529663692
 31
0.0
  0
LINE
  5
B5
100
AcDbEntity
100
AcDbLine
  8
mark
 62
256
370
-1
 48
1.0
  6
BYLAYER
 10
136.97056274847714
 20
26.970562748477143
 30
0.0
 11
139.09188309203677
 21
24.849242404917504
 31
0.0
  0
LINE
  5
B6
100
AcDbEntity
100
AcDbLine
  8
mark
 62
256
370
-1
 48
1.0
  6
BYLAYER
 10
136.26345596729058
 20
26.263455967290593
 30
0.0
 11
138.38477631085024
 21
24.142135623730951
 31
0.0
  0
LINE
  5
B7
100
AcDbEntity
100
AcDbLine
  8
mark
 62
256
370
-1
 48
1.0
  6
BYLAYER
 10
146.16295090390227
 20
36.162950903902257
 30
0.0
 11
148.2842712474619
 21
34.041630560342625
 31
0.0
  0
LINE
  5
B8
100
AcDbEntity
100
AcDbLine
  8
mark
 62
256
370
-1
 48
1.0
  6
BYLAYER
 10
179.39696961966999
 20
69.396969619669989
 30
0.0
 11
181.51828996322965
 21
67.275649276110329
 31
0.0
  0
LINE
  5
B9
100
AcDbEntity
100
AcDbLine
  8
mark
 62
256
370
-1
 48
1.0
  6
BYLAYER
 10
178.68986283848346
 20
68.68986283848345
 30
0.0
 11
180.81118318204321
 21
66.56854249492369
 31
0.0
  0
LINE
  5
BA
100
AcDbEntity
100
AcDbLine
  8
mark
 62
256
370
-1
 48
1.0
  6
BYLAYER
 10
190.0035713374682
 20
80.003571337468216
 30
0.0
 11
192.1248916810278
 21
77.882250993908585
 31
0.0
  0
LINE
  5
BB
100
AcDbEntity
100
AcDbLine
  8
mark
 62
256
370
-1
 48
1.0
  6
BYLAYER
 10
188.5893577750951
 20
78.58935777509511
 30
0.0
 11
190.71067811865495
 21
76.468037431535251
 31
0.0
  0
LINE
  5
BC
100
AcDbEntity
100
AcDbLine
  8
mark
 62
256
370
-1
 48
1.0
  6
BYLAYER
 10
184.34671708797583
 20
74.346717087975833
 30
0.0
 11
186.46803743153544
 21
72.225396744416216
 31
0.0
  0
LINE
  5
BD
100
AcDbEntity
100
AcDbLine
  8
mark
 62
256
370
-1
 48
1.0
  6
BYLAYER
 10
187.88225099390857
 20
77.882250993908571
 30
0.0
 11
190.0035713374682
 21
75.760930650348911
 31
0.0
  0
LINE
  5
BE
100
AcDbEntity
100
AcDbLine
  8
mark
 62
256
370
-1
 48
1.0
  6
BYLAYER
 10
147.57716446627535
 20
37.577164466275356
 30
0.0
 11
149.69848480983501
 21
35.455844122715703
 31
0.0
  0
LINE
  5
BF
100
AcDbEntity
100
AcDbLine
  8
mark
 62
256
370
-1
 48
1.0
  6
BYLAYER
 10
189.29646455628165
 20
79.296464556281663
 30
0.0
 11
191.41778489984119
 21
77.175144212722145
 31
0.0
  0
LINE
  5
C0
100
AcDbEntity
100
AcDbLine
  8
mark
 62
256
370
-1
 48
1.0
  6
BYLAYER
 10
141.92031021678298
 20
31.920310216782976
 30
0.0
 11
144.04163056034261
 21
29.798989873223341
 31
0.0
  0
LINE
  5
C1
100
AcDbEntity
100
AcDbLine
  8
mark
 62
256
370
-1
 48
1.0
  6
BYLAYER
 10
145.45584412271572
 20
35.455844122715718
 30
0.0
 11
147.57716446627535
 21
33.334523779156086
 31
0.0
  0
LINE
  5
C2
100
AcDbEntity
100
AcDbLine
  8
mark
 62
256
370
-1
 48
1.0
  6
BYLAYER
 10
142.62741699796953
 20
32.627416997969519
 30
0.0
 11
144.74873734152914
 21
30.506096654409898
 31
0.0
  0
LINE
  5
C3
100
AcDbEntity
100
AcDbLine
  8
mark
 62
256
370
-1
 48
1.0
  6
BYLAYER
 10
146.8700576850888
 20
36.87005768508881
 30
0.0
 11
148.99137802864846
 21
34.74873734152915
 31
0.0
  0
LINE
  5
C4
100
AcDbEntity
100
AcDbLine
  8
mark
 62
256
370
-1
 48
1.0
  6
BYLAYER
 10
144.04163056034261
 20
34.041630560342618
 30
0.0
 11
146.16295090390224
 21
31.920310216782976
 31
0.0
  0
LINE
  5
C5
100
AcDbEntity
100
AcDbLine
  8
mark
 62
256
370
-1
 48
1.0
  6
BYLAYER
 10
143.33452377915606
 20
33.334523779156072
 30
0.0
 11
145.45584412271572
 21
31.213203435596412
 31
0.0
  0
LINE
  5
C6
100
AcDbEntity
100
AcDbLine
  8
mark
 62
256
370
-1
 48
1.0
  6
BYLAYER
 10
154.64823227814082
 20
44.648232278140831
 30
0.0
 11
156.76955262170048
 21
42.526911934581172
 31
0.0
  0
LINE
  5
C7
100
AcDbEntity
100
AcDbLine
  8
mark
 62
256
370
-1
 48
1.0
  6
BYLAYER
 10
153.23401871576775
 20
43.234018715767739
 30
0.0
 11
155.35533905932738
 21
41.112698372208101
 31
0.0
  0
LINE
  5
C8
100
AcDbEntity
100
AcDbLine
  8
mark
 62
256
370
-1
 48
1.0
  6
BYLAYER
 10
148.99137802864846
 20
38.991378028648455
 30
0.0
 11
151.11269837220809
 21
36.87005768508881
 31
0.0
  0
LINE
  5
C9
100
AcDbEntity
100
AcDbLine
  8
mark
 62
256
370
-1
 48
1.0
  6
BYLAYER
 10
152.52691193458119
 20
42.526911934581186
 30
0.0
 11
154.64823227814088
 21
40.405591591021491
 31
0.0
  0
LINE
  5
CA
100
AcDbEntity
100
AcDbLine
  8
mark
 62
256
370
-1
 48
1.0
  6
BYLAYER
 10
149.69848480983501
 20
39.698484809834994
 30
0.0
 11
151.81980515339464
 21
37.577164466275349
 31
0.0
  0
LINE
  5
CB
100
AcDbEntity
100
AcDbLine
  8
mark
 62
256
370
-1
 48
1.0
  6
BYLAYER
 10
153.94112549695427
 20
43.941125496954285
 30
0.0
 11
156.06244584051393
 21
41.819805153394626
 31
0.0
  0
LINE
  5
CC
100
AcDbEntity
100
AcDbLine
  8
mark
 62
256
370
-1
 48
1.0
  6
BYLAYER
 10
151.11269837220809
 20
41.112698372208094
 30
0.0
 11
153.23401871576772
 21
38.991378028648448
 31
0.0
  0
LINE
  5
CD
100
AcDbEntity
100
AcDbLine
  8
mark
 62
256
370
-1
 48
1.0
  6
BYLAYER
 10
150.40559159102153
 20
40.405591591021548
 30
0.0
 11
152.52691193458125
 21
38.284271247461824
 31
0.0
  0
LINE
  5
CE
100
AcDbEntity
100
AcDbLine
  8
mark
 62
256
370
-1
 48
1.0
  6
BYLAYER
 10
161.7193000900063
 20
51.719300090006307
 30
0.0
 11
163.84062043356604
 21
49.597979746446576
 31
0.0
  0
LINE
  5
CF
100
AcDbEntity
100
AcDbLine
  8
mark
 62
256
370
-1
 48
1.0
  6
BYLAYER
 10
160.30508652763322
 20
50.305086527633215
 30
0.0
 11
162.42640687119282
 21
48.183766184073598
 31
0.0
  0
LINE
  5
D0
100
AcDbEntity
100
AcDbLine
  8
mark
 62
256
370
-1
 48
1.0
  6
BYLAYER
 10
156.06244584051393
 20
46.062445840513924
 30
0.0
 11
158.18376618407362
 21
43.941125496954236
 31
0.0
  0
LINE
  5
D1
100
AcDbEntity
100
AcDbLine
  8
mark
 62
256
370
-1
 48
1.0
  6
BYLAYER
 10
159.59797974644667
 20
49.597979746446661
 30
0.0
 11
161.71930009000636
 21
47.476659402886973
 31
0.0
  0
LINE
  5
D2
100
AcDbEntity
100
AcDbLine
  8
mark
 62
256
370
-1
 48
1.0
  6
BYLAYER
 10
156.76955262170048
 20
46.769552621700477
 30
0.0
 11
158.89087296526014
 21
44.648232278140775
 31
0.0
  0
LINE
  5
D3
100
AcDbEntity
100
AcDbLine
  8
mark
 62
256
370
-1
 48
1.0
  6
BYLAYER
 10
161.01219330881975
 20
51.012193308819761
 30
0.0
 11
163.13351365237941
 21
48.890872965260108
 31
0.0
  0
LINE
  5
D4
100
AcDbEntity
100
AcDbLine
  8
mark
 62
256
370
-1
 48
1.0
  6
BYLAYER
 10
158.18376618407356
 20
48.183766184073569
 30
0.0
 11
160.30508652763316
 21
46.062445840513959
 31
0.0
  0
LINE
  5
D5
100
AcDbEntity
100
AcDbLine
  8
mark
 62
256
370
-1
 48
1.0
  6
BYLAYER
 10
157.47665940288704
 20
47.476659402887023
 30
0.0
 11
159.59797974644664
 21
45.355339059327392
 31
0.0
  0
LINE
  5
D6
100
AcDbEntity
100
AcDbLine
  8
mark
 62
256
370
-1
 48
1.0
  6
BYLAYER
 10
168.79036790187178
 20
58.790367901871782
 30
0.0
 11
170.91168824543144
 21
56.66904755831213
 31
0.0
  0
LINE
  5
D7
100
AcDbEntity
100
AcDbLine
  8
mark
 62
256
370
-1
 48
1.0
  6
BYLAYER
 10
167.3761543394987
 20
57.37615433949869
 30
0.0
 11
169.4974746830583
 21
55.25483399593908
 31
0.0
  0
LINE
  5
D8
100
AcDbEntity
100
AcDbLine
  8
mark
 62
256
370
-1
 48
1.0
  6
BYLAYER
 10
187.17514421272202
 20
77.175144212722017
 30
0.0
 11
190.00357133746809
 21
74.346717087975932
 31
0.0
  0
LINE
  5
D9
100
AcDbEntity
100
AcDbLine
  8
mark
 62
256
370
-1
 48
1.0
  6
BYLAYER
 10
201.31727983645297
 20
91.317279836452968
 30
0.0
 11
204.14570696119915
 21
88.488852711706784
 31
0.0
  0
LINE
  5
DA
100
AcDbEntity
100
AcDbLine
  8
mark
 62
256
370
-1
 48
1.0
  6
BYLAYER
 10
205.55992052357226
 20
95.559920523572259
 30
0.0
 11
207.68124086713223
 21
93.438600180012244
 31
0.0
  0
LINE
  5
DB
100
AcDbEntity
100
AcDbLine
  8
mark
 62
256
370
-1
 48
1.0
  6
BYLAYER
 10
206.26702730475881
 20
96.267027304758798
 30
0.0
 11
208.38834764831819
 21
94.145706961199423
 31
0.0
  0
LINE
  5
DC
100
AcDbEntity
100
AcDbLine
  8
mark
 62
256
370
-1
 48
1.0
  6
BYLAYER
 10
163.13351365237941
 20
53.133513652379399
 30
0.0
 11
165.25483399593904
 21
51.012193308819754
 31
0.0
  0
LINE
  5
DD
100
AcDbEntity
100
AcDbLine
  8
mark
 62
256
370
-1
 48
1.0
  6
BYLAYER
 10
206.97413408594537
 20
96.974134085945352
 30
0.0
 11
209.095454429505
 21
94.852813742385678
 31
0.0
  0
LINE
  5
DE
100
AcDbEntity
100
AcDbLine
  8
mark
 62
256
370
-1
 48
1.0
  6
BYLAYER
 10
163.84062043356596
 20
53.840620433565952
 30
0.0
 11
165.96194077712559
 21
51.719300090006307
 31
0.0
  0
LINE
  5
DF
100
AcDbEntity
100
AcDbLine
  8
mark
 62
256
370
-1
 48
1.0
  6
BYLAYER
 10
168.08326112068522
 20
58.083261120685236
 30
0.0
 11
170.20458146424491
 21
55.961940777125541
 31
0.0
  0
LINE
  5
E0
100
AcDbEntity
100
AcDbLine
  8
mark
 62
256
370
-1
 48
1.0
  6
BYLAYER
 10
165.25483399593904
 20
55.254833995939045
 30
0.0
 11
167.37615433949875
 21
53.133513652379321
 31
0.0
  0
LINE
  5
E1
100
AcDbEntity
100
AcDbLine
  8
mark
 62
256
370
-1
 48
1.0
  6
BYLAYER
 10
164.54772721475251
 20
54.547727214752499
 30
0.0
 11
166.66904755831212
 21
52.42640687119286
 31
0.0
  0
LINE
  5
E2
100
AcDbEntity
100
AcDbLine
  8
mark
 62
256
370
-1
 48
1.0
  6
BYLAYER
 10
175.86143571373725
 20
65.861435713737251
 30
0.0
 11
177.98275605729705
 21
63.740115370177456
 31
0.0
  0
LINE
  5
E3
100
AcDbEntity
100
AcDbLine
  8
mark
 62
256
370
-1
 48
1.0
  6
BYLAYER
 10
174.44722215136417
 20
64.447222151364173
 30
0.0
 11
176.56854249492366
 21
62.325901807804648
 31
0.0
  0
LINE
  5
E4
100
AcDbEntity
100
AcDbLine
  8
mark
 62
256
370
-1
 48
1.0
  6
BYLAYER
 10
170.20458146424488
 20
60.204581464244875
 30
0.0
 11
172.32590180780437
 21
58.083261120685385
 31
0.0
  0
LINE
  5
E5
100
AcDbEntity
100
AcDbLine
  8
mark
 62
256
370
-1
 48
1.0
  6
BYLAYER
 10
173.74011537017762
 20
63.740115370177612
 30
0.0
 11
175.86143571373722
 21
61.618795026618002
 31
0.0
  0
LINE
  5
E6
100
AcDbEntity
100
AcDbLine
  8
mark
 62
256
370
-1
 48
1.0
  6
BYLAYER
 10
170.91168824543144
 20
60.911688245431428
 30
0.0
 11
173.03300858899101
 21
58.790367901871818
 31
0.0
  0
LINE
  5
E7
100
AcDbEntity
100
AcDbLine
  8
mark
 62
256
370
-1
 48
1.0
  6
BYLAYER
 10
175.1543289325507
 20
65.154328932550712
 30
0.0
 11
177.27564927611019
 21
63.03300858899123
 31
0.0
  0
LINE
  5
E8
100
AcDbEntity
100
AcDbLine
  8
mark
 62
256
370
-1
 48
1.0
  6
BYLAYER
 10
172.32590180780451
 20
62.32590180780452
 30
0.0
 11
174.44722215136414
 21
60.204581464244875
 31
0.0
  0
LINE
  5
E9
100
AcDbEntity
100
AcDbLine
  8
mark
 62
256
370
-1
 48
1.0
  6
BYLAYER
 10
171.61879502661799
 20
61.618795026617974
 30
0.0
 11
173.74011537017753
 21
59.4974746830584
 31
0.0
  0
LINE
  5
EA
100
AcDbEntity
100
AcDbLine
  8
mark
 62
256
370
-1
 48
1.0
  6
BYLAYER
 10
182.93250352560273
 20
72.932503525602726
 30
0.0
 11
185.05382386916233
 21
70.811183182043123
 31
0.0
  0
LINE
  5
EB
100
AcDbEntity
100
AcDbLine
  8
mark
 62
256
370
-1
 48
1.0
  6
BYLAYER
 10
181.51828996322965
 20
71.518289963229648
 30
0.0
 11
183.63961030678928
 21
69.396969619669989
 31
0.0
  0
LINE
  5
EC
100
AcDbEntity
100
AcDbLine
  8
mark
 62
256
370
-1
 48
1.0
  6
BYLAYER
 10
177.27564927611036
 20
67.275649276110357
 30
0.0
 11
179.39696961967002
 21
65.154328932550683
 31
0.0
  0
LINE
  5
ED
100
AcDbEntity
100
AcDbLine
  8
mark
 62
256
370
-1
 48
1.0
  6
BYLAYER
 10
180.8111831820431
 20
70.811183182043095
 30
0.0
 11
182.93250352560284
 21
68.689862838483322
 31
0.0
  0
LINE
  5
EE
100
AcDbEntity
100
AcDbLine
  8
mark
 62
256
370
-1
 48
1.0
  6
BYLAYER
 10
177.98275605729691
 20
67.982756057296911
 30
0.0
 11
180.10407640085663
 21
65.861435713737194
 31
0.0
  0
LINE
  5
EF
100
AcDbEntity
100
AcDbLine
  8
mark
 62
256
370
-1
 48
1.0
  6
BYLAYER
 10
182.22539674441617
 20
72.225396744416187
 30
0.0
 11
184.34671708797569
 21
70.104076400856684
 31
0.0
  0
LINE
  5
F0
100
AcDbEntity
100
AcDbLine
  8
mark
 62
256
370
-1
 48
1.0
  6
BYLAYER
 10
185.76093065034894
 20
75.760930650348925
 30
0.0
 11
187.88225099390874
 21
73.639610306789109
 31
0.0
  0
LINE
  5
F1
100
AcDbEntity
100
AcDbLine
  8
mark
 62
256
370
-1
 48
1.0
  6
BYLAYER
 10
185.05382386916239
 20
75.053823869162372
 30
0.0
 11
187.17514421272193
 21
72.932503525602797
 31
0.0
  0
LINE
  5
F2
100
AcDbEntity
100
AcDbLine
  8
mark
 62
256
370
-1
 48
1.0
  6
BYLAYER
 10
195.66042558696057
 20
85.660425586960585
 30
0.0
 11
197.78174593052006
 21
83.539105243401139
 31
0.0
  0
LINE
  5
F3
100
AcDbEntity
100
AcDbLine
  8
mark
 62
256
370
-1
 48
1.0
  6
BYLAYER
 10
186.46803743153549
 20
76.468037431535478
 30
0.0
 11
188.58935777509532
 21
74.346717087975605
 31
0.0
  0
LINE
  5
F4
100
AcDbEntity
100
AcDbLine
  8
mark
 62
256
370
-1
 48
1.0
  6
BYLAYER
 10
194.95331880577405
 20
84.953318805774046
 30
0.0
 11
197.07463914933385
 21
82.831998462214202
 31
0.0
  0
LINE
  5
F5
100
AcDbEntity
100
AcDbLine
  8
mark
 62
256
370
-1
 48
1.0
  6
BYLAYER
 10
197.07463914933368
 20
87.074639149333692
 30
0.0
 11
199.19595949289337
 21
84.953318805774003
 31
0.0
  0
LINE
  5
F6
100
AcDbEntity
100
AcDbLine
  8
mark
 62
256
370
-1
 48
1.0
  6
BYLAYER
 10
196.36753236814712
 20
86.367532368147138
 30
0.0
 11
198.48885271170678
 21
84.246212024587479
 31
0.0
  0
LINE
  5
F7
100
AcDbEntity
100
AcDbLine
  8
mark
 62
256
370
-1
 48
1.0
  6
BYLAYER
 10
191.41778489984131
 20
81.417784899841308
 30
0.0
 11
193.53910524340108
 21
79.296464556281506
 31
0.0
  0
LINE
  5
F8
100
AcDbEntity
100
AcDbLine
  8
mark
 62
256
370
-1
 48
1.0
  6
BYLAYER
 10
192.83199846221441
 20
82.831998462214401
 30
0.0
 11
194.95331880577396
 21
80.710678118654812
 31
0.0
  0
LINE
  5
F9
100
AcDbEntity
100
AcDbLine
  8
mark
 62
256
370
-1
 48
1.0
  6
BYLAYER
 10
192.12489168102786
 20
82.124891681027847
 30
0.0
 11
194.24621202458749
 21
80.003571337468188
 31
0.0
  0
LINE
  5
FA
100
AcDbEntity
100
AcDbLine
  8
mark
 62
256
370
-1
 48
1.0
  6
BYLAYER
 10
137.67766952966369
 20
27.677669529663689
 30
0.0
 11
140.5060966544099
 21
24.849242404917483
 31
0.0
  0
LINE
  5
FB
100
AcDbEntity
100
AcDbLine
  8
mark
 62
256
370
-1
 48
1.0
  6
BYLAYER
 10
193.53910524340097
 20
83.539105243400954
 30
0.0
 11
195.66042558696074
 21
81.417784899841138
 31
0.0
  0
LINE
  5
FC
100
AcDbEntity
100
AcDbLine
  8
mark
 62
256
370
-1
 48
1.0
  6
BYLAYER
 10
130.60660171779821
 20
20.606601717798213
 30
0.0
 11
133.4350288425444
 21
17.778174593052022
 31
0.0
  0
LINE
  5
FD
100
AcDbEntity
100
AcDbLine
  8
mark
 62
256
370
-1
 48
1.0
  6
BYLAYER
 10
202.73149339882605
 20
92.731493398826061
 30
0.0
 11
204.85281374238593
 21
90.610173055266188
 31
0.0
  0
LINE
  5
FE
100
AcDbEntity
100
AcDbLine
  8
mark
 62
256
370
-1
 48
1.0
  6
BYLAYER
 10
204.14570696119915
 20
94.145706961199167
 30
0.0
 11
206.26702730475904
 21
92.024386617639252
 31
0.0
  0
LINE
  5
FF
100
AcDbEntity
100
AcDbLine
  8
mark
 62
256
370
-1
 48
1.0
  6
BYLAYER
 10
151.81980515339464
 20
41.81980515339464
 30
0.0
 11
154.64823227814085
 21
38.991378028648427
 31
0.0
  0
LINE
  5
100
100
AcDbEntity
100
AcDbLine
  8
mark
 62
256
370
-1
 48
1.0
  6
BYLAYER
 10
202.02438661763952
 20
92.024386617639522
 30
0.0
 11
204.14570696119932
 21
89.903066274079691
 31
0.0
  0
LINE
  5
101
100
AcDbEntity
100
AcDbLine
  8
mark
 62
256
370
-1
 48
1.0
  6
BYLAYER
 10
144.74873734152916
 20
34.748737341529164
 30
0.0
 11
147.57716446627535
 21
31.920310216782994
 31
0.0
  0
LINE
  5
102
100
AcDbEntity
100
AcDbLine
  8
mark
 62
256
370
-1
 48
1.0
  6
BYLAYER
 10
198.48885271170678
 20
88.488852711706784
 30
0.0
 11
200.6101730552665
 21
86.367532368147053
 31
0.0
  0
LINE
  5
103
100
AcDbEntity
100
AcDbLine
  8
mark
 62
256
370
-1
 48
1.0
  6
BYLAYER
 10
165.96194077712559
 20
55.961940777125591
 30
0.0
 11
168.79036790187172
 21
53.133513652379456
 31
0.0
  0
LINE
  5
104
100
AcDbEntity
100
AcDbLine
  8
mark
 62
256
370
-1
 48
1.0
  6
BYLAYER
 10
203.4386001800126
 20
93.438600180012614
 30
0.0
 11
205.55992052357223
 21
91.317279836452983
 31
0.0
  0
LINE
  5
105
100
AcDbEntity
100
AcDbLine
  8
mark
 62
256
370
-1
 48
1.0
  6
BYLAYER
 10
158.89087296526012
 20
48.890872965260115
 30
0.0
 11
161.71930009000636
 21
46.062445840513888
 31
0.0
  0
LINE
  5
106
100
AcDbEntity
100
AcDbLine
  8
mark
 62
256
370
-1
 48
1.0
  6
BYLAYER
 10
199.19595949289334
 20
89.195959492893323
 30
0.0
 11
201.31727983645311
 21
87.074639149333521
 31
0.0
  0
LINE
  5
107
100
AcDbEntity
100
AcDbLine
  8
mark
 62
256
370
-1
 48
1.0
  6
BYLAYER
 10
180.10407640085654
 20
70.104076400856542
 30
0.0
 11
182.93250352560267
 21
67.2756492761104
 31
0.0
  0
LINE
  5
108
100
AcDbEntity
100
AcDbLine
  8
mark
 62
256
370
-1
 48
1.0
  6
BYLAYER
 10
199.90306627407989
 20
89.903066274079876
 30
0.0
 11
202.02438661763944
 21
87.781745930520287
 31
0.0
  0
LINE
  5
109
100
AcDbEntity
100
AcDbLine
  8
mark
 62
256
370
-1
 48
1.0
  6
BYLAYER
 10
173.03300858899107
 20
63.033008588991066
 30
0.0
 11
175.86143571373717
 21
60.204581464244953
 31
0.0
  0
LINE
  5
10A
100
AcDbEntity
100
AcDbLine
  8
mark
 62
256
370
-1
 48
1.0
  6
BYLAYER
 10
200.61017305526644
 20
90.610173055266429
 30
0.0
 11
202.73149339882596
 21
88.488852711706883
 31
0.0
  0
LINE
  5
10B
100
AcDbEntity
100
AcDbLine
  8
mark
 62
256
370
-1
 48
1.0
  6
BYLAYER
 10
194.24621202458749
 20
84.246212024587493
 30
0.0
 11
197.07463914933379
 21
81.417784899841166
 31
0.0
  0
MTEXT
  5
10C
100
AcDbEntity
100
AcDbMText
  8
engrave
 62
256
370
-1
 48
1.0
  6
BYLAYER
 10
131.31370849898477
 20
12.828427124746188
 30
0.0
 40
4.0
 41
0.0
 71
2
 72
1
  1
1
  7
textstyle4
 50
45.0
 73
2
 44
1.0
  0
MTEXT
  5
10D
100
AcDbEntity
100
AcDbMText
  8
engrave
 62
256
370
-1
 48
1.0
  6
BYLAYER
 10
138.38477631085024
 20
19.899494936611649
 30
0.0
 40
4.0
 41
0.0
 71
2
 72
1
  1
2
  7
textstyle5
 50
45.0
 73
2
 44
1.0
  0
MTEXT
  5
10E
100
AcDbEntity
100
AcDbMText
  8
engrave
 62
256
370
-1
 48
1.0
  6
BYLAYER
 10
145.45584412271572
 20
26.970562748477118
 30
0.0
 40
4.0
 41
0.0
 71
2
 72
1
  1
3
  7
textstyle0
 50
45.0
 73
2
 44
1.0
  0
MTEXT
  5
10F
100
AcDbEntity
100
AcDbMText
  8
engrave
 62
256
370
-1
 48
1.0
  6
BYLAYER
 10
152.52691193458119
 20
34.041630560342611
 30
0.0
 40
4.0
 41
0.0
 71
2
 72
1
  1
4
  7
textstyle1
 50
45.0
 73
2
 44
1.0
  0
MTEXT
  5
110
100
AcDbEntity
100
AcDbMText
  8
engrave
 62
256
370
-1
 48
1.0
  6
BYLAYER
 10
159.59797974644667
 20
41.112698372208079
 30
0.0
 40
4.0
 41
0.0
 71
2
 72
1
  1
5
  7
textstyle2
 50
45.0
 73
2
 44
1.0
  0
MTEXT
  5
111
100
AcDbEntity
100
AcDbMText
  8
engrave
 62
256
370
-1
 48
1.0
  6
BYLAYER
 10
166.66904755831214
 20
48.183766184073562
 30
0.0
 40
4.0
 41
0.0
 71
2
 72
1
  1
6
  7
textstyle3
 50
45.0
 73
2
 44
1.0
  0
MTEXT
  5
112
100
AcDbEntity
100
AcDbMText
  8
engrave
 62
256
370
-1
 48
1.0
  6
BYLAYER
 10
173.74011537017765
 20
55.254833995939016
 30
0.0
 40
4.0
 41
0.0
 71
2
 72
1
  1
7
  7
textstyle8
 50
45.0
 73
2
 44
1.0
  0
MTEXT
  5
113
100
AcDbEntity
100
AcDbMText
  8
engrave
 62
256
370
-1
 48
1.0
  6
BYLAYER
 10
180.81118318204318
 20
62.325901807804421
 30
0.0
 40
4.0
 41
0.0
 71
2
 72
1
  1
8
  7
textstyle9
 50
45.0
 73
2
 44
1.0
  0
MTEXT
  5
114
100
AcDbEntity
100
AcDbMText
  8
engrave
 62
256
370
-1
 48
1.0
  6
BYLAYER
 10
187.88225099390871
 20
69.396969619669832
 30
0.0
 40
4.0
 41
0.0
 71
2
 72
1
  1
9
  7
textstyle10
 50
45.0
 73
2
 44
1.0
  0
MTEXT
  5
115
100
AcDbEntity
100
AcDbMText
  8
engrave
 62
256
370
-1
 48
1.0
  6
BYLAYER
 10
194.95331880577416
 20
76.468037431535336
 30
0.0
 40
4.0
 41
0.0
 71
2
 72
1
  1
10
  7
textstyle11
 50
45.0
 73
2
 44
1.0
  0
MTEXT
  5
116
100
AcDbEntity
100
AcDbMText
  8
engrave
 62
256
370
-1
 48
1.0
  6
BYLAYER
 10
202.02438661763952
 20
83.539105243400925
 30
0.0
 40
4.0
 41
0.0
 71
2
 72
1
  1
11
  7
textstyle6
 50
45.0
 73
2
 44
1.0
  0
MTEXT
  5
117
100
AcDbEntity
100
AcDbMText
  8
engrave
 62
256
370
-1
 48
1.0
  6
BYLAYER
 10
165.0
 20
5.0
 30
0.0
 40
1.5
 41
0.0
 71
5
 72
1
  1
https://github.com/barnyrelph/cad
  7
textstyle7
 50
0.0
 73
2
 44
1.0
  0
LINE
  5
118
100
AcDbEntity
100
AcDbLine
  8
0
 62
256
370
-1
 48
1.0
  6
BYLAYER
 10
121.0
 20
102.0
 30
0.0
 11
211.0
 21
102.0
 31
0.0
  0
LINE
  5
119
100
AcDbEntity
100
AcDbLine
  8
mark
 62
256
370
-1
 48
1.0
  6
BYLAYER
 10
121.0
 20
99.999999999999972
 30
0.0
 11
164.99999999999994
 21
56.0
 31
0.0
  0
LINE
  5
11A
100
AcDbEntity
100
AcDbLine
  8
mark
 62
256
370
-1
 48
1.0
  6
BYLAYER
 10
120.99999999999994
 20
95.999999999999972
 30
0.0
 11
162.99999999999994
 21
54.0
 31
0.0
  0
LINE
  5
11B
100
AcDbEntity
100
AcDbLine
  8
mark
 62
256
370
-1
 48
1.0
  6
BYLAYER
 10
121.0
 20
91.999999999999972
 30
0.0
 11
160.99999999999994
 21
52.0
 31
0.0
  0
LINE
  5
11C
100
AcDbEntity
100
AcDbLine
  8
mark
 62
256
370
-1
 48
1.0
  6
BYLAYER
 10
120.99999999999994
 20
87.999999999999972
 30
0.0
 11
158.99999999999994
 21
50.0
 31
0.0
  0
LINE
  5
11D
100
AcDbEntity
100
AcDbLine
  8
mark
 62
256
370
-1
 48
1.0
  6
BYLAYER
 10
203.0
 20
101.99999999999997
 30
0.0
 11
206.99999999999994
 21
98.0
 31
0.0
  0
LINE
  5
11E
100
AcDbEntity
100
AcDbLine
  8
mark
 62
256
370
-1
 48
1.0
  6
BYLAYER
 10
191.0
 20
101.99999999999997
 30
0.0
 11
200.99999999999994
 21
92.0
 31
0.0
  0
LINE
  5
11F
100
AcDbEntity
100
AcDbLine
  8
mark
 62
256
370
-1
 48
1.0
  6
BYLAYER
 10
207.0
 20
101.99999999999997
 30
0.0
 11
208.99999999999994
 21
100.0
 31
0.0
  0
LINE
  5
120
100
AcDbEntity
100
AcDbLine
  8
mark
 62
256
370
-1
 48
1.0
  6
BYLAYER
 10
183.0
 20
101.99999999999997
 30
0.0
 11
196.99999999999994
 21
88.0
 31
0.0
  0
LINE
  5
121
100
AcDbEntity
100
AcDbLine
  8
mark
 62
256
370
-1
 48
1.0
  6
BYLAYER
 10
187.0
 20
101.99999999999997
 30
0.0
 11
198.99999999999994
 21
90.0
 31
0.0
  0
LINE
  5
122
100
AcDbEntity
100
AcDbLine
  8
mark
 62
256
370
-1
 48
1.0
  6
BYLAYER
 10
195.0
 20
101.99999999999997
 30
0.0
 11
202.99999999999994
 21
94.0
 31
0.0
  0
LINE
  5
123
100
AcDbEntity
100
AcDbLine
  8
mark
 62
256
370
-1
 48
1.0
  6
BYLAYER
 10
199.0
 20
101.99999999999997
 30
0.0
 11
204.99999999999994
 21
96.0
 31
0.0
  0
LINE
  5
124
100
AcDbEntity
100
AcDbLine
  8
mark
 62
256
370
-1
 48
1.0
  6
BYLAYER
 10
134.99999999999994
 20
101.99999999999997
 30
0.0
 11
172.99999999999994
 21
64.0
 31
0.0
  0
LINE
  5
125
100
AcDbEntity
100
AcDbLine
  8
mark
 62
256
370
-1
 48
1.0
  6
BYLAYER
 10
139.0
 20
101.99999999999997
 30
0.0
 11
174.99999999999994
 21
66.0
 31
0.0
  0
LINE
  5
126
100
AcDbEntity
100
AcDbLine
  8
mark
 62
256
370
-1
 48
1.0
  6
BYLAYER
 10
143.0
 20
101.99999999999997
 30
0.0
 11
176.99999999999994
 21
68.0
 31
0.0
  0
LINE
  5
127
100
AcDbEntity
100
AcDbLine
  8
mark
 62
256
370
-1
 48
1.0
  6
BYLAYER
 10
147.0
 20
101.99999999999997
 30
0.0
 11
178.99999999999994
 21
70.0
 31
0.0
  0
LINE
  5
128
100
AcDbEntity
100
AcDbLine
  8
mark
 62
256
370
-1
 48
1.0
  6
BYLAYER
 10
123.0
 20
101.99999999999997
 30
0.0
 11
166.99999999999994
 21
58.0
 31
0.0
  0
LINE
  5
129
100
AcDbEntity
100
AcDbLine
  8
mark
 62
256
370
-1
 48
1.0
  6
BYLAYER
 10
127.0
 20
101.99999999999997
 30
0.0
 11
168.99999999999994
 21
60.0
 31
0.0
  0
LINE
  5
12A
100
AcDbEntity
100
AcDbLine
  8
mark
 62
256
370
-1
 48
1.0
  6
BYLAYER
 10
131.0
 20
101.99999999999997
 30
0.0
 11
170.99999999999994
 21
62.0
 31
0.0
  0
LINE
  5
12B
100
AcDbEntity
100
AcDbLine
  8
mark
 62
256
370
-1
 48
1.0
  6
BYLAYER
 10
167.0
 20
101.99999999999997
 30
0.0
 11
188.99999999999994
 21
80.0
 31
0.0
  0
LINE
  5
12C
100
AcDbEntity
100
AcDbLine
  8
mark
 62
256
370
-1
 48
1.0
  6
BYLAYER
 10
171.0
 20
101.99999999999997
 30
0.0
 11
190.99999999999994
 21
82.0
 31
0.0
  0
LINE
  5
12D
100
AcDbEntity
100
AcDbLine
  8
mark
 62
256
370
-1
 48
1.0
  6
BYLAYER
 10
175.0
 20
101.99999999999997
 30
0.0
 11
192.99999999999994
 21
84.0
 31
0.0
  0
LINE
  5
12E
100
AcDbEntity
100
AcDbLine
  8
mark
 62
256
370
-1
 48
1.0
  6
BYLAYER
 10
179.0
 20
101.99999999999997
 30
0.0
 11
194.99999999999994
 21
86.0
 31
0.0
  0
LINE
  5
12F
100
AcDbEntity
100
AcDbLine
  8
mark
 62
256
370
-1
 48
1.0
  6
BYLAYER
 10
150.99999999999994
 20
101.99999999999997
 30
0.0
 11
180.99999999999994
 21
72.0
 31
0.0
  0
LINE
  5
130
100
AcDbEntity
100
AcDbLine
  8
mark
 62
256
370
-1
 48
1.0
  6
BYLAYER
 10
155.0
 20
101.99999999999997
 30
0.0
 11
182.99999999999994
 21
74.0
 31
0.0
  0
LINE
  5
131
100
AcDbEntity
100
AcDbLine
  8
mark
 62
256
370
-1
 48
1.0
  6
BYLAYER
 10
159.0
 20
101.99999999999997
 30
0.0
 11
184.99999999999994
 21
76.0
 31
0.0
  0
LINE
  5
132
100
AcDbEntity
100
AcDbLine
  8
mark
 62
256
370
-1
 48
1.0
  6
BYLAYER
 10
163.0
 20
101.99999999999997
 30
0.0
 11
186.99999999999994
 21
78.0
 31
0.0
  0
LINE
  5
133
100
AcDbEntity
100
AcDbLine
  8
mark
 62
256
370
-1
 48
1.0
  6
BYLAYER
 10
121.0
 20
67.999999999999972
 30
0.0
 11
148.99999999999994
 21
40.0
 31
0.0
  0
LINE
  5
134
100
AcDbEntity
100
AcDbLine
  8
mark
 62
256
370
-1
 48
1.0
  6
BYLAYER
 10
121.0
 20
63.999999999999943
 30
0.0
 11
146.99999999999994
 21
38.0
 31
0.0
  0
LINE
  5
135
100
AcDbEntity
100
AcDbLine
  8
mark
 62
256
370
-1
 48
1.0
  6
BYLAYER
 10
121.0
 20
59.999999999999964
 30
0.0
 11
144.99999999999994
 21
36.0
 31
0.0
  0
LINE
  5
136
100
AcDbEntity
100
AcDbLine
  8
mark
 62
256
370
-1
 48
1.0
  6
BYLAYER
 10
121.0
 20
55.99999999999995
 30
0.0
 11
142.99999999999994
 21
34.0
 31
0.0
  0
LINE
  5
137
100
AcDbEntity
100
AcDbLine
  8
mark
 62
256
370
-1
 48
1.0
  6
BYLAYER
 10
121.0
 20
83.999999999999972
 30
0.0
 11
156.99999999999994
 21
48.0
 31
0.0
  0
LINE
  5
138
100
AcDbEntity
100
AcDbLine
  8
mark
 62
256
370
-1
 48
1.0
  6
BYLAYER
 10
120.99999999999994
 20
79.999999999999972
 30
0.0
 11
154.99999999999994
 21
46.0
 31
0.0
  0
LINE
  5
139
100
AcDbEntity
100
AcDbLine
  8
mark
 62
256
370
-1
 48
1.0
  6
BYLAYER
 10
121.0
 20
75.999999999999972
 30
0.0
 11
152.99999999999994
 21
44.0
 31
0.0
  0
LINE
  5
13A
100
AcDbEntity
100
AcDbLine
  8
mark
 62
256
370
-1
 48
1.0
  6
BYLAYER
 10
121.0
 20
71.999999999999943
 30
0.0
 11
150.99999999999994
 21
42.0
 31
0.0
  0
LINE
  5
13B
100
AcDbEntity
100
AcDbLine
  8
mark
 62
256
370
-1
 48
1.0
  6
BYLAYER
 10
121.0
 20
35.999999999999964
 30
0.0
 11
132.99999999999994
 21
24.0
 31
0.0
  0
LINE
  5
13C
100
AcDbEntity
100
AcDbLine
  8
mark
 62
256
370
-1
 48
1.0
  6
BYLAYER
 10
121.0
 20
31.99999999999995
 30
0.0
 11
130.99999999999994
 21
22.0
 31
0.0
  0
LINE
  5
13D
100
AcDbEntity
100
AcDbLine
  8
mark
 62
256
370
-1
 48
1.0
  6
BYLAYER
 10
121.0
 20
27.999999999999964
 30
0.0
 11
128.99999999999994
 21
20.0
 31
0.0
  0
LINE
  5
13E
100
AcDbEntity
100
AcDbLine
  8
mark
 62
256
370
-1
 48
1.0
  6
BYLAYER
 10
121.0
 20
23.99999999999995
 30
0.0
 11
126.99999999999994
 21
18.0
 31
0.0
  0
LINE
  5
13F
100
AcDbEntity
100
AcDbLine
  8
mark
 62
256
370
-1
 48
1.0
  6
BYLAYER
 10
121.0
 20
51.999999999999964
 30
0.0
 11
140.99999999999994
 21
32.0
 31
0.0
  0
LINE
  5
140
100
AcDbEntity
100
AcDbLine
  8
mark
 62
256
370
-1
 48
1.0
  6
BYLAYER
 10
121.0
 20
47.99999999999995
 30
0.0
 11
138.99999999999994
 21
30.0
 31
0.0
  0
LINE
  5
141
100
AcDbEntity
100
AcDbLine
  8
mark
 62
256
370
-1
 48
1.0
  6
BYLAYER
 10
121.0
 20
43.999999999999964
 30
0.0
 11
136.99999999999994
 21
28.0
 31
0.0
  0
LINE
  5
142
100
AcDbEntity
100
AcDbLine
  8
mark
 62
256
370
-1
 48
1.0
  6
BYLAYER
 10
121.0
 20
39.99999999999995
 30
0.0
 11
134.99999999999994
 21
26.0
 31
0.0
  0
ARC
  5
143
100
AcDbEntity
  8
0
 62
256
370
-1
 48
1.0
  6
BYLAYER
100
AcDbCircle
 10
112.0
 20
2.0
 30
0.0
 40
4.0
100
AcDbArc
 50
180.0
 51
270.0
  0
ENDSEC
  0
SECTION
  2
OBJECTS
  0
DICTIONARY
  5
C
100
AcDbDictionary
280
0
281
1
  3
ACAD_GROUP
350
D
  3
ACAD_LAYOUT
350
1A
  3
ACAD_MLINESTYLE
350
17
  3
ACAD_PLOTSETTINGS
350
19
  3
ACAD_PLOTSTYLENAME
350
E
  3
AcDbVariableDictionary
350
144
  3
QCAD_OBJECTS
350
145
  0
DICTIONARY
  5
D
100
AcDbDictionary
280
0
281
1
  0
ACDBDICTIONARYWDFLT
  5
E
100
AcDbDictionary
281
1
  3
Normal
350
F
100
AcDbDictionaryWithDefault
340
F
  0
ACDBPLACEHOLDER
  5
F
  0
DICTIONARY
  5
17
100
AcDbDictionary
280
0
281
1
  3
Standard
350
18
  0
MLINESTYLE
  5
18
100
AcDbMlineStyle
  2
STANDARD
 70
0
  3

 62
256
 51
90.0
 52
90.0
 71
2
 49
0.5
 62
256
  6
BYLAYER
 49
-0.5
 62
256
  6
BYLAYER
  0
DICTIONARY
  5
19
100
AcDbDictionary
280
0
281
1
  0
DICTIONARY
  5
1A
100
AcDbDictionary
281
1
  3
Layout1
350
1E
  3
Layout2
350
26
  3
Model
350
22
  0
LAYOUT
  5
1E
100
AcDbPlotSettings
  1

  2
none_device
  4

  6

 40
0.0
 41
0.0
 42
0.0
 43
0.0
 44
0.0
 45
0.0
 46
0.0
 47
0.0
 48
0.0
 49
0.0
140
0.0
141
0.0
142
1.0
143
1.0
 70
688
 72
0
 73
0
 74
5
  7

 75
16
147
1.0
148
0.0
149
0.0
100
AcDbLayout
  1
Layout1
 70
1
 71
1
 10
0.0
 20
0.0
 11
420.0
 21
297.0
 12
0.0
 22
0.0
 32
0.0
 14
100000000000000000000.0
 24
100000000000000000000.0
 34
100000000000000000000.0
 15
-100000000000000000000.0
 25
-100000000000000000000.0
 35
-100000000000000000000.0
146
0.0
 13
0.0
 23
0.0
 33
0.0
 16
1.0
 26
0.0
 36
0.0
 17
0.0
 27
1.0
 37
0.0
 76
0
330
1B
  0
LAYOUT
  5
22
100
AcDbPlotSettings
  1

  2
none_device
  4

  6

 40
0.0
 41
0.0
 42
0.0
 43
0.0
 44
0.0
 45
0.0
 46
0.0
 47
0.0
 48
0.0
 49
0.0
140
0.0
141
0.0
142
1.0
143
1.0
 70
1712
 72
0
 73
0
 74
0
  7

 75
0
147
1.0
148
0.0
149
0.0
100
AcDbLayout
  1
Model
 70
1
 71
0
 10
0.0
 20
0.0
 11
12.0
 21
9.0
 12
0.0
 22
0.0
 32
0.0
 14
0.0
 24
0.0
 34
0.0
 15
0.0
 25
0.0
 35
0.0
146
0.0
 13
0.0
 23
0.0
 33
0.0
 16
1.0
 26
0.0
 36
0.0
 17
0.0
 27
1.0
 37
0.0
 76
0
330
1F
  0
LAYOUT
  5
26
100
AcDbPlotSettings
  1

  2
none_device
  4

  6

 40
0.0
 41
0.0
 42
0.0
 43
0.0
 44
0.0
 45
0.0
 46
0.0
 47
0.0
 48
0.0
 49
0.0
140
0.0
141
0.0
142
1.0
143
1.0
 70
688
 72
0
 73
0
 74
5
  7

 75
16
147
1.0
148
0.0
149
0.0
100
AcDbLayout
  1
Layout2
 70
1
 71
2
 10
0.0
 20
0.0
 11
12.0
 21
9.0
 12
0.0
 22
0.0
 32
0.0
 14
0.0
 24
0.0
 34
0.0
 15
0.0
 25
0.0
 35
0.0
146
0.0
 13
0.0
 23
0.0
 33
0.0
 16
1.0
 26
0.0
 36
0.0
 17
0.0
 27
1.0
 37
0.0
 76
0
330
23
  0
DICTIONARY
  5
144
100
AcDbDictionary
281
1
  3
DIMASSOC
350
147
  3
HIDETEXT
350
146
  0
DICTIONARYVAR
  5
146
100
DictionaryVariables
280
0
  1
2
  0
DICTIONARYVAR
  5
147
100
DictionaryVariables
280
0
  1
1
  0
DICTIONARY
  5
145
100
AcDbDictionary
281
1
  3
ColorSettings/BackgroundColor
350
148
  3
ColorSettings/ColorMode
350
149
  3
Grid/DisplayGrid00
350
14A
  3
Grid/DisplayGrid01
350
14B
  3
Grid/DisplayGrid02
350
14C
  3
Grid/DisplayGrid03
350
14D
  3
Grid/GridSpacingX00
350
14E
  3
Grid/GridSpacingX01
350
14F
  3
Grid/GridSpacingX02
350
150
  3
Grid/GridSpacingX03
350
151
  3
Grid/GridSpacingY00
350
152
  3
Grid/GridSpacingY01
350
153
  3
Grid/GridSpacingY02
350
154
  3
Grid/GridSpacingY03
350
155
  3
Grid/IsometricGrid00
350
156
  3
Grid/IsometricGrid01
350
157
  3
Grid/IsometricGrid02
350
158
  3
Grid/IsometricGrid03
350
159
  3
Grid/IsometricProjection00
350
15A
  3
Grid/IsometricProjection01
350
15B
  3
Grid/IsometricProjection02
350
15C
  3
Grid/IsometricProjection03
350
15D
  3
Grid/MetaGridSpacingX00
350
15E
  3
Grid/MetaGridSpacingX01
350
15F
  3
Grid/MetaGridSpacingX02
350
160
  3
Grid/MetaGridSpacingX03
350
161
  3
Grid/MetaGridSpacingY00
350
162
  3
Grid/MetaGridSpacingY01
350
163
  3
Grid/MetaGridSpacingY02
350
164
  3
Grid/MetaGridSpacingY03
350
165
  3
MultiPageSettings/Columns
350
166
  3
MultiPageSettings/GlueMarginsBottom
350
167
  3
MultiPageSettings/GlueMarginsLeft
350
168
  3
MultiPageSettings/GlueMarginsRight
350
169
  3
MultiPageSettings/GlueMarginsTop
350
16A
  3
MultiPageSettings/PrintCropMarks
350
16B
  3
MultiPageSettings/Rows
350
16C
  3
PageSettings/OffsetX
350
16D
  3
PageSettings/OffsetY
350
16E
  3
PageSettings/PageOrientation
350
16F
  3
PageSettings/PaperHeight
350
170
  3
PageSettings/PaperWidth
350
171
  3
PageSettings/Scale
350
172
  3
PageSettings/ShowPaperBorders
350
173
  3
QCADVersion
350
174
  3
UnitSettings/PaperUnit
350
175
  0
XRECORD
  5
148
330
145
100
AcDbXrecord
280
1
1000
White
  0
XRECORD
  5
149
330
145
100
AcDbXrecord
280
1
1000
FullColor
  0
XRECORD
  5
14A
330
145
100
AcDbXrecord
280
1
290
1
  0
XRECORD
  5
14B
330
145
100
AcDbXrecord
280
1
290
1
  0
XRECORD
  5
14C
330
145
100
AcDbXrecord
280
1
290
1
  0
XRECORD
  5
14D
330
145
100
AcDbXrecord
280
1
290
1
  0
XRECORD
  5
14E
330
145
100
AcDbXrecord
280
1
1000
auto
  0
XRECORD
  5
14F
330
145
100
AcDbXrecord
280
1
1000
auto
  0
XRECORD
  5
150
330
145
100
AcDbXrecord
280
1
1000
auto
  0
XRECORD
  5
151
330
145
100
AcDbXrecord
280
1
1000
auto
  0
XRECORD
  5
152
330
145
100
AcDbXrecord
280
1
1000
auto
  0
XRECORD
  5
153
330
145
100
AcDbXrecord
280
1
1000
auto
  0
XRECORD
  5
154
330
145
100
AcDbXrecord
280
1
1000
auto
  0
XRECORD
  5
155
330
145
100
AcDbXrecord
280
1
1000
auto
  0
XRECORD
  5
156
330
145
100
AcDbXrecord
280
1
290
0
  0
XRECORD
  5
157
330
145
100
AcDbXrecord
280
1
290
0
  0
XRECORD
  5
158
330
145
100
AcDbXrecord
280
1
290
0
  0
XRECORD
  5
159
330
145
100
AcDbXrecord
280
1
290
0
  0
XRECORD
  5
15A
330
145
100
AcDbXrecord
280
1
 90
0
  0
XRECORD
  5
15B
330
145
100
AcDbXrecord
280
1
 90
0
  0
XRECORD
  5
15C
330
145
100
AcDbXrecord
280
1
 90
0
  0
XRECORD
  5
15D
330
145
100
AcDbXrecord
280
1
 90
0
  0
XRECORD
  5
15E
330
145
100
AcDbXrecord
280
1
1000
auto
  0
XRECORD
  5
15F
330
145
100
AcDbXrecord
280
1
1000
auto
  0
XRECORD
  5
160
330
145
100
AcDbXrecord
280
1
1000
auto
  0
XRECORD
  5
161
330
145
100
AcDbXrecord
280
1
1000
auto
  0
XRECORD
  5
162
330
145
100
AcDbXrecord
280
1
1000
auto
  0
XRECORD
  5
163
330
145
100
AcDbXrecord
280
1
1000
auto
  0
XRECORD
  5
164
330
145
100
AcDbXrecord
280
1
1000
auto
  0
XRECORD
  5
165
330
145
100
AcDbXrecord
280
1
1000
auto
  0
XRECORD
  5
166
330
145
100
AcDbXrecord
280
1
 90
1
  0
XRECORD
  5
167
330
145
100
AcDbXrecord
280
1
 40
10.0
  0
XRECORD
  5
168
330
145
100
AcDbXrecord
280
1
 40
10.0
  0
XRECORD
  5
169
330
145
100
AcDbXrecord
280
1
 40
10.0
  0
XRECORD
  5
16A
330
145
100
AcDbXrecord
280
1
 40
10.0
  0
XRECORD
  5
16B
330
145
100
AcDbXrecord
280
1
290
0
  0
XRECORD
  5
16C
330
145
100
AcDbXrecord
280
1
 90
1
  0
XRECORD
  5
16D
330
145
100
AcDbXrecord
280
1
 40
0.0
  0
XRECORD
  5
16E
330
145
100
AcDbXrecord
280
1
 40
0.0
  0
XRECORD
  5
16F
330
145
100
AcDbXrecord
280
1
1000
Portrait
  0
XRECORD
  5
170
330
145
100
AcDbXrecord
280
1
 40
297.0
  0
XRECORD
  5
171
330
145
100
AcDbXrecord
280
1
 40
210.0
  0
XRECORD
  5
172
330
145
100
AcDbXrecord
280
1
1000
1:1
  0
XRECORD
  5
173
330
145
100
AcDbXrecord
280
1
290
1
  0
XRECORD
  5
174
330
145
100
AcDbXrecord
280
1
1000
3.12.8
  0
XRECORD
  5
175
330
145
100
AcDbXrecord
280
1
 90
4
  0
ENDSEC
  0
EOF
