999
dxflib 3.12.2.0
  0
SECTION
  2
HEADER
  9
$ACADVER
  1
AC1015
  9
$HANDSEED
  5
FFFF
  9
$DIMADEC
 70
0
  9
$DIMASZ
 40
2.5
  9
$DIMAUNIT
 70
0
  9
$DIMAZIN
 70
2
  9
$DIMDEC
 70
4
  9
$DIMEXE
 40
1.25
  9
$DIMEXO
 40
0.625
  9
$DIMGAP
 40
0.625
  9
$DIMLUNIT
 70
2
  9
$DIMSCALE
 40
1.0
  9
$DIMTSZ
 40
0.0
  9
$DIMTXT
 40
2.5
  9
$DIMZIN
 70
8
  9
$DWGCODEPAGE
  3
ANSI_1252
  9
$INSUNITS
 70
4
  9
$LTSCALE
 40
1.0
  9
$MEASUREMENT
 70
1
  9
$PDMODE
 70
0
  9
$PDSIZE
 40
0
  0
ENDSEC
  0
SECTION
  2
TABLES
  0
TABLE
  2
VPORT
  5
8
100
AcDbSymbolTable
 70
1
  0
VPORT
  5
30
100
AcDbSymbolTableRecord
100
AcDbViewportTableRecord
  2
*Active
 70
0
 10
0.0
 20
0.0
 11
1.0
 21
1.0
 12
286.3055555555554861
 22
148.5
 13
0.0
 23
0.0
 14
10.0
 24
10.0
 15
10.0
 25
10.0
 16
0.0
 26
0.0
 36
1.0
 17
0.0
 27
0.0
 37
0.0
 40
297.0
 41
1.92798353909465
 42
50.0
 43
0.0
 44
0.0
 50
0.0
 51
0.0
 71
0
 72
100
 73
1
 74
3
 75
1
 76
1
 77
0
 78
0
281
0
 65
1
110
0.0
120
0.0
130
0.0
111
1.0
121
0.0
131
0.0
112
0.0
122
1.0
132
0.0
 79
0
146
0.0
  0
ENDTAB
  0
TABLE
  2
LTYPE
  5
5
100
AcDbSymbolTable
 70
54
  0
LTYPE
  5
16
100
AcDbSymbolTableRecord
100
AcDbLinetypeTableRecord
  2
Continuous
 70
0
  3
Solid line
 72
65
 73
0
 40
0.0
  0
LTYPE
  5
31
100
AcDbSymbolTableRecord
100
AcDbLinetypeTableRecord
  2
ACAD_ISO15W100
 70
0
  3
ISO double-dash triple-dot __ __ . . . __ __ . .
 72
65
 73
10
 40
39.0
 49
12.0
 74
0
 49
-3.0
 74
0
 49
12.0
 74
0
 49
-3.0
 74
0
 49
0.0
 74
0
 49
-3.0
 74
0
 49
0.0
 74
0
 49
-3.0
 74
0
 49
0.0
 74
0
 49
-3.0
 74
0
  0
LTYPE
  5
32
100
AcDbSymbolTableRecord
100
AcDbLinetypeTableRecord
  2
CUTRIGHT2
 70
0
  3
G42 reversed----\----\----\----
 72
65
 73
2
 40
10.1600000000000001
 49
5.0800000000000001
 74
0
 49
5.0800000000000001
 74
0
  0
LTYPE
  5
33
100
AcDbSymbolTableRecord
100
AcDbLinetypeTableRecord
  2
HOT_WATER_SUPPLY
 70
0
  3
Hot water supply ---- HW ---- HW ---- HW ----
 72
65
 73
3
 40
22.8599999999999994
 49
12.6999999999999993
 74
0
 49
-5.0800000000000001
 74
0
 49
-5.0800000000000001
 74
0
  0
LTYPE
  5
34
100
AcDbSymbolTableRecord
100
AcDbLinetypeTableRecord
  2
DIVIDE
 70
0
  3
Divide ____ . . ____ . . ____ . . ____ . . ____
 72
65
 73
6
 40
31.75
 49
12.6999999999999993
 74
0
 49
-6.3499999999999996
 74
0
 49
0.0
 74
0
 49
-6.3499999999999996
 74
0
 49
0.0
 74
0
 49
-6.3499999999999996
 74
0
  0
LTYPE
  5
35
100
AcDbSymbolTableRecord
100
AcDbLinetypeTableRecord
  2
CUTRIGHT
 70
0
  3
G42 ----/----/-----/---
 72
65
 73
2
 40
10.1600000000000001
 49
5.0800000000000001
 74
0
 49
5.0800000000000001
 74
0
  0
LTYPE
  5
36
100
AcDbSymbolTableRecord
100
AcDbLinetypeTableRecord
  2
ACAD_ISO10W100
 70
0
  3
ISO dash dot __ . __ . __ . __ . __ . __ . __ . 
 72
65
 73
4
 40
18.0
 49
12.0
 74
0
 49
-3.0
 74
0
 49
0.0
 74
0
 49
-3.0
 74
0
  0
LTYPE
  5
37
100
AcDbSymbolTableRecord
100
AcDbLinetypeTableRecord
  2
CUTLEFT
 70
0
  3
G41 ----\----\----\----
 72
65
 73
2
 40
10.1600000000000001
 49
5.0800000000000001
 74
0
 49
5.0800000000000001
 74
0
  0
LTYPE
  5
38
100
AcDbSymbolTableRecord
100
AcDbLinetypeTableRecord
  2
GAS_LINE
 70
0
  3
Gas line ----GAS----GAS----GAS----GAS----GAS----GAS--
 72
65
 73
3
 40
24.1300000000000026
 49
12.6999999999999993
 74
0
 49
-5.0800000000000001
 74
0
 49
-6.3499999999999996
 74
0
  0
LTYPE
  5
39
100
AcDbSymbolTableRecord
100
AcDbLinetypeTableRecord
  2
ACAD_ISO04W100
 70
0
  3
ISO long-dash dot ____ . ____ . ____ . ____ . _
 72
65
 73
4
 40
30.0
 49
24.0
 74
0
 49
-3.0
 74
0
 49
0.0
 74
0
 49
-3.0
 74
0
  0
LTYPE
  5
3A
100
AcDbSymbolTableRecord
100
AcDbLinetypeTableRecord
  2
CUTLEFT2
 70
0
  3
G41 reversed----/----/----/----
 72
65
 73
2
 40
10.1600000000000001
 49
5.0800000000000001
 74
0
 49
5.0800000000000001
 74
0
  0
LTYPE
  5
3B
100
AcDbSymbolTableRecord
100
AcDbLinetypeTableRecord
  2
CENTER2
 70
0
  3
Center (.5x) ___ _ ___ _ ___ _ ___ _ ___ _ ___
 72
65
 73
4
 40
28.5750000000000028
 49
19.0500000000000007
 74
0
 49
-3.1749999999999998
 74
0
 49
3.1749999999999998
 74
0
 49
-3.1749999999999998
 74
0
  0
LTYPE
  5
3C
100
AcDbSymbolTableRecord
100
AcDbLinetypeTableRecord
  2
ACAD_ISO11W100
 70
0
  3
ISO double-dash dot __ __ . __ __ . __ __ . __ _
 72
65
 73
6
 40
33.0
 49
12.0
 74
0
 49
-3.0
 74
0
 49
12.0
 74
0
 49
-3.0
 74
0
 49
0.0
 74
0
 49
-3.0
 74
0
  0
LTYPE
  5
3D
100
AcDbSymbolTableRecord
100
AcDbLinetypeTableRecord
  2
HIDDEN2
 70
0
  3
Hidden (.5x) _ _ _ _ _ _ _ _ _ _ _ _ _ _ _ _ _ 
 72
65
 73
2
 40
4.7624999999999993
 49
3.1749999999999998
 74
0
 49
-1.5874999999999999
 74
0
  0
LTYPE
  5
3E
100
AcDbSymbolTableRecord
100
AcDbLinetypeTableRecord
  2
BORDERX2
 70
0
  3
Border (2x) ____  ____  .  ____  ____  .  ___
 72
65
 73
6
 40
88.8999999999999915
 49
25.3999999999999986
 74
0
 49
-12.6999999999999993
 74
0
 49
25.3999999999999986
 74
0
 49
-12.6999999999999993
 74
0
 49
0.0
 74
0
 49
-12.6999999999999993
 74
0
  0
LTYPE
  5
3F
100
AcDbSymbolTableRecord
100
AcDbLinetypeTableRecord
  2
ACAD_ISO05W100
 70
0
  3
ISO long-dash double-dot ____ .. ____ .. ____ . 
 72
65
 73
6
 40
33.0
 49
24.0
 74
0
 49
-3.0
 74
0
 49
0.0
 74
0
 49
-3.0
 74
0
 49
0.0
 74
0
 49
-3.0
 74
0
  0
LTYPE
  5
40
100
AcDbSymbolTableRecord
100
AcDbLinetypeTableRecord
  2
DASHDOTX2
 70
0
  3
Dash dot (2x) ____  .  ____  .  ____  .  ___
 72
65
 73
4
 40
50.7999999999999972
 49
25.3999999999999986
 74
0
 49
-12.6999999999999993
 74
0
 49
0.0
 74
0
 49
-12.6999999999999993
 74
0
  0
LTYPE
  5
41
100
AcDbSymbolTableRecord
100
AcDbLinetypeTableRecord
  2
HIDDENX2
 70
0
  3
Hidden (2x) ____ ____ ____ ____ ____ ____ ____ 
 72
65
 73
2
 40
19.0499999999999972
 49
12.6999999999999993
 74
0
 49
-6.3499999999999996
 74
0
  0
LTYPE
  5
42
100
AcDbSymbolTableRecord
100
AcDbLinetypeTableRecord
  2
CENTERX2
 70
0
  3
Center (2x) ________  __  ________  __  _____
 72
65
 73
4
 40
101.6000000000000085
 49
63.5
 74
0
 49
-12.6999999999999993
 74
0
 49
12.6999999999999993
 74
0
 49
-12.6999999999999993
 74
0
  0
LTYPE
  5
43
100
AcDbSymbolTableRecord
100
AcDbLinetypeTableRecord
  2
BORDER2
 70
0
  3
Border (.5x) __.__.__.__.__.__.__.__.__.__.__.
 72
65
 73
6
 40
22.2249999999999979
 49
6.3499999999999996
 74
0
 49
-3.1749999999999998
 74
0
 49
6.3499999999999996
 74
0
 49
-3.1749999999999998
 74
0
 49
0.0
 74
0
 49
-3.1749999999999998
 74
0
  0
LTYPE
  5
44
100
AcDbSymbolTableRecord
100
AcDbLinetypeTableRecord
  2
DASHDOT2
 70
0
  3
Dash dot (.5x) _._._._._._._._._._._._._._._.
 72
65
 73
4
 40
12.6999999999999993
 49
6.3499999999999996
 74
0
 49
-3.1749999999999998
 74
0
 49
0.0
 74
0
 49
-3.1749999999999998
 74
0
  0
LTYPE
  5
45
100
AcDbSymbolTableRecord
100
AcDbLinetypeTableRecord
  2
ACAD_ISO12W100
 70
0
  3
ISO dash double-dot __ . . __ . . __ . . __ . . 
 72
65
 73
6
 40
21.0
 49
12.0
 74
0
 49
-3.0
 74
0
 49
0.0
 74
0
 49
-3.0
 74
0
 49
0.0
 74
0
 49
-3.0
 74
0
  0
LTYPE
  5
46
100
AcDbSymbolTableRecord
100
AcDbLinetypeTableRecord
  2
ACAD_ISO07W100
 70
0
  3
ISO dot . . . . . . . . . . . . . . . . . . . . 
 72
65
 73
2
 40
3.0
 49
0.0
 74
0
 49
-3.0
 74
0
  0
LTYPE
  5
47
100
AcDbSymbolTableRecord
100
AcDbLinetypeTableRecord
  2
ACAD_ISO06W100
 70
0
  3
ISO long-dash triple-dot ____ ... ____ ... ____
 72
65
 73
8
 40
36.0
 49
24.0
 74
0
 49
-3.0
 74
0
 49
0.0
 74
0
 49
-3.0
 74
0
 49
0.0
 74
0
 49
-3.0
 74
0
 49
0.0
 74
0
 49
-3.0
 74
0
  0
LTYPE
  5
48
100
AcDbSymbolTableRecord
100
AcDbLinetypeTableRecord
  2
CENTER
 70
0
  3
Center ____ _ ____ _ ____ _ ____ _ ____ _ ____
 72
65
 73
4
 40
50.8000000000000043
 49
31.75
 74
0
 49
-6.3499999999999996
 74
0
 49
6.3499999999999996
 74
0
 49
-6.3499999999999996
 74
0
  0
LTYPE
  5
49
100
AcDbSymbolTableRecord
100
AcDbLinetypeTableRecord
  2
HIDDEN
 70
0
  3
Hidden __ __ __ __ __ __ __ __ __ __ __ __ __ __
 72
65
 73
2
 40
9.5249999999999986
 49
6.3499999999999996
 74
0
 49
-3.1749999999999998
 74
0
  0
LTYPE
  5
4A
100
AcDbSymbolTableRecord
100
AcDbLinetypeTableRecord
  2
DOTX2
 70
0
  3
Dot (2x) .  .  .  .  .  .  .  .  .  .  .  .  .  .
 72
65
 73
2
 40
12.6999999999999993
 49
0.0
 74
0
 49
-12.6999999999999993
 74
0
  0
LTYPE
  5
4B
100
AcDbSymbolTableRecord
100
AcDbLinetypeTableRecord
  2
PHANTOM
 70
0
  3
Phantom ______  __  __  ______  __  __  ______ 
 72
65
 73
6
 40
63.5000000000000071
 49
31.75
 74
0
 49
-6.3499999999999996
 74
0
 49
6.3499999999999996
 74
0
 49
-6.3499999999999996
 74
0
 49
6.3499999999999996
 74
0
 49
-6.3499999999999996
 74
0
  0
LTYPE
  5
4C
100
AcDbSymbolTableRecord
100
AcDbLinetypeTableRecord
  2
ACAD_ISO08W100
 70
0
  3
ISO long-dash short-dash ____ __ ____ __ ____ _
 72
65
 73
4
 40
36.0
 49
24.0
 74
0
 49
-3.0
 74
0
 49
6.0
 74
0
 49
-3.0
 74
0
  0
LTYPE
  5
4D
100
AcDbSymbolTableRecord
100
AcDbLinetypeTableRecord
  2
DASHEDX2
 70
0
  3
Dashed (2x) ____  ____  ____  ____  ____  ___
 72
65
 73
2
 40
38.0999999999999943
 49
25.3999999999999986
 74
0
 49
-12.6999999999999993
 74
0
  0
LTYPE
  5
4E
100
AcDbSymbolTableRecord
100
AcDbLinetypeTableRecord
  2
DRAINAGE
 70
0
  3
Drainage ---->---->---->----
 72
65
 73
2
 40
10.1600000000000001
 49
5.0800000000000001
 74
0
 49
5.0800000000000001
 74
0
  0
LTYPE
  5
4F
100
AcDbSymbolTableRecord
100
AcDbLinetypeTableRecord
  2
ACAD_ISO02W100
 70
0
  3
ISO dash __ __ __ __ __ __ __ __ __ __ __ __ __
 72
65
 73
2
 40
15.0
 49
12.0
 74
0
 49
-3.0
 74
0
  0
LTYPE
  5
50
100
AcDbSymbolTableRecord
100
AcDbLinetypeTableRecord
  2
PHANTOM2
 70
0
  3
Phantom (.5x) ___ _ _ ___ _ _ ___ _ _ ___ _ _
 72
65
 73
6
 40
31.7500000000000036
 49
15.875
 74
0
 49
-3.1749999999999998
 74
0
 49
3.1749999999999998
 74
0
 49
-3.1749999999999998
 74
0
 49
3.1749999999999998
 74
0
 49
-3.1749999999999998
 74
0
  0
LTYPE
  5
51
100
AcDbSymbolTableRecord
100
AcDbLinetypeTableRecord
  2
DASHED2
 70
0
  3
Dashed (.5x) _ _ _ _ _ _ _ _ _ _ _ _ _ _ _ _ _ 
 72
65
 73
2
 40
9.5249999999999986
 49
6.3499999999999996
 74
0
 49
-3.1749999999999998
 74
0
  0
LTYPE
  5
52
100
AcDbSymbolTableRecord
100
AcDbLinetypeTableRecord
  2
ACAD_ISO09W100
 70
0
  3
ISO long-dash double-short-dash ____ __ __ ____
 72
65
 73
6
 40
45.0
 49
24.0
 74
0
 49
-3.0
 74
0
 49
6.0
 74
0
 49
-3.0
 74
0
 49
6.0
 74
0
 49
-3.0
 74
0
  0
LTYPE
  5
53
100
AcDbSymbolTableRecord
100
AcDbLinetypeTableRecord
  2
ACAD_ISO13W100
 70
0
  3
ISO double-dash double-dot __ __ . . __ __ . . _
 72
65
 73
8
 40
36.0
 49
12.0
 74
0
 49
-3.0
 74
0
 49
12.0
 74
0
 49
-3.0
 74
0
 49
0.0
 74
0
 49
-3.0
 74
0
 49
0.0
 74
0
 49
-3.0
 74
0
  0
LTYPE
  5
54
100
AcDbSymbolTableRecord
100
AcDbLinetypeTableRecord
  2
TRACKS
 70
0
  3
Tracks -|-|-|-|-|-|-|-|-|-|-|-|-|-|-|-|-|-|-|-|-|-|-|-|-
 72
65
 73
2
 40
7.6200000000000001
 49
3.8100000000000001
 74
0
 49
3.8100000000000001
 74
0
  0
LTYPE
  5
55
100
AcDbSymbolTableRecord
100
AcDbLinetypeTableRecord
  2
DRAINAGE2
 70
0
  3
Drainage reversed----<----<----<----
 72
65
 73
2
 40
10.1600000000000001
 49
5.0800000000000001
 74
0
 49
5.0800000000000001
 74
0
  0
LTYPE
  5
56
100
AcDbSymbolTableRecord
100
AcDbLinetypeTableRecord
  2
DOT2
 70
0
  3
Dot (.5x) ........................................
 72
65
 73
2
 40
3.1749999999999998
 49
0.0
 74
0
 49
-3.1749999999999998
 74
0
  0
LTYPE
  5
57
100
AcDbSymbolTableRecord
100
AcDbLinetypeTableRecord
  2
ZIGZAG
 70
0
  3
Zig zag /\/\/\/\/\/\/\/\/\/\/\/\/\/\/\/\/\/\/\/\/\/\/\/
 72
65
 73
4
 40
20.32254
 49
0.00254
 74
0
 49
-5.0800000000000001
 74
0
 49
-10.1600000000000001
 74
0
 49
-5.0800000000000001
 74
0
  0
LTYPE
  5
58
100
AcDbSymbolTableRecord
100
AcDbLinetypeTableRecord
  2
DASHED
 70
0
  3
Dashed __ __ __ __ __ __ __ __ __ __ __ __ __ _
 72
65
 73
2
 40
19.0499999999999972
 49
12.6999999999999993
 74
0
 49
-6.3499999999999996
 74
0
  0
LTYPE
  5
59
100
AcDbSymbolTableRecord
100
AcDbLinetypeTableRecord
  2
ACAD_ISO14W100
 70
0
  3
ISO dash triple-dot __ . . . __ . . . __ . . . _
 72
65
 73
8
 40
24.0
 49
12.0
 74
0
 49
-3.0
 74
0
 49
0.0
 74
0
 49
-3.0
 74
0
 49
0.0
 74
0
 49
-3.0
 74
0
 49
0.0
 74
0
 49
-3.0
 74
0
  0
LTYPE
  5
15
100
AcDbSymbolTableRecord
100
AcDbLinetypeTableRecord
  2
BYLAYER
 70
0
  3

 72
65
 73
0
 40
0.0
  0
LTYPE
  5
5A
100
AcDbSymbolTableRecord
100
AcDbLinetypeTableRecord
  2
PHANTOMX2
 70
0
  3
Phantom (2x) ____________    ____    ____   _
 72
65
 73
6
 40
127.0000000000000142
 49
63.5
 74
0
 49
-12.6999999999999993
 74
0
 49
12.6999999999999993
 74
0
 49
-12.6999999999999993
 74
0
 49
12.6999999999999993
 74
0
 49
-12.6999999999999993
 74
0
  0
LTYPE
  5
14
100
AcDbSymbolTableRecord
100
AcDbLinetypeTableRecord
  2
BYBLOCK
 70
0
  3

 72
65
 73
0
 40
0.0
  0
LTYPE
  5
5B
100
AcDbSymbolTableRecord
100
AcDbLinetypeTableRecord
  2
DIVIDEX2
 70
0
  3
Divide (2x) ________  .  .  ________  .  .  _
 72
65
 73
6
 40
63.5
 49
25.3999999999999986
 74
0
 49
-12.6999999999999993
 74
0
 49
0.0
 74
0
 49
-12.6999999999999993
 74
0
 49
0.0
 74
0
 49
-12.6999999999999993
 74
0
  0
LTYPE
  5
5C
100
AcDbSymbolTableRecord
100
AcDbLinetypeTableRecord
  2
BORDER
 70
0
  3
Border __ __ . __ __ . __ __ . __ __ . __ __ .
 72
65
 73
6
 40
44.4499999999999957
 49
12.6999999999999993
 74
0
 49
-6.3499999999999996
 74
0
 49
12.6999999999999993
 74
0
 49
-6.3499999999999996
 74
0
 49
0.0
 74
0
 49
-6.3499999999999996
 74
0
  0
LTYPE
  5
5D
100
AcDbSymbolTableRecord
100
AcDbLinetypeTableRecord
  2
DIVIDE2
 70
0
  3
Divide (.5x) __..__..__..__..__..__..__..__.._
 72
65
 73
6
 40
15.875
 49
6.3499999999999996
 74
0
 49
-3.1749999999999998
 74
0
 49
0.0
 74
0
 49
-3.1749999999999998
 74
0
 49
0.0
 74
0
 49
-3.1749999999999998
 74
0
  0
LTYPE
  5
5E
100
AcDbSymbolTableRecord
100
AcDbLinetypeTableRecord
  2
DOT
 70
0
  3
Dot . . . . . . . . . . . . . . . . . . . . . . . .
 72
65
 73
2
 40
6.3499999999999996
 49
0.0
 74
0
 49
-6.3499999999999996
 74
0
  0
LTYPE
  5
5F
100
AcDbSymbolTableRecord
100
AcDbLinetypeTableRecord
  2
DASHDOT
 70
0
  3
Dash dot __ . __ . __ . __ . __ . __ . __ . __
 72
65
 73
4
 40
25.3999999999999986
 49
12.6999999999999993
 74
0
 49
-6.3499999999999996
 74
0
 49
0.0
 74
0
 49
-6.3499999999999996
 74
0
  0
LTYPE
  5
60
100
AcDbSymbolTableRecord
100
AcDbLinetypeTableRecord
  2
FENCELINE1
 70
0
  3
Fenceline circle ----0-----0----0-----0----0-----0--
 72
65
 73
4
 40
36.8299999999999983
 49
6.3499999999999996
 74
0
 49
-2.54
 74
0
 49
-2.54
 74
0
 49
25.3999999999999986
 74
0
  0
LTYPE
  5
61
100
AcDbSymbolTableRecord
100
AcDbLinetypeTableRecord
  2
BATTING
 70
0
  3
Batting SSSSSSSSSSSSSSSSSSSSSSSSSSSSSSSSSSSSSSSSSSSSSSS
 72
65
 73
4
 40
10.1625399999999999
 49
0.00254
 74
0
 49
-2.54
 74
0
 49
-5.0800000000000001
 74
0
 49
-2.54
 74
0
  0
LTYPE
  5
62
100
AcDbSymbolTableRecord
100
AcDbLinetypeTableRecord
  2
ACAD_ISO03W100
 70
0
  3
ISO dash space __    __    __    __    __    __
 72
65
 73
2
 40
30.0
 49
12.0
 74
0
 49
-18.0
 74
0
  0
LTYPE
  5
63
100
AcDbSymbolTableRecord
100
AcDbLinetypeTableRecord
  2
FENCELINE2
 70
0
  3
Fenceline square ----[]-----[]----[]-----[]----[]---
 72
65
 73
4
 40
36.8299999999999983
 49
6.3499999999999996
 74
0
 49
-2.54
 74
0
 49
-2.54
 74
0
 49
25.3999999999999986
 74
0
  0
ENDTAB
  0
TABLE
  2
LAYER
  5
2
100
AcDbSymbolTable
 70
8
  0
LAYER
  5
64
100
AcDbSymbolTableRecord
100
AcDbLayerTableRecord
  2
GEAR-ESCAPE-TIC
 70
0
 62
53
420
11717734
  6
Continuous
370
-3
390
F
  0
LAYER
  5
65
100
AcDbSymbolTableRecord
100
AcDbLayerTableRecord
  2
CENTER
 70
0
 62
3
420
65280
  6
CENTER
370
-3
390
F
  0
LAYER
  5
66
100
AcDbSymbolTableRecord
100
AcDbLayerTableRecord
  2
GEAR-64
 70
0
 62
102
420
39206
  6
Continuous
370
-3
390
F
  0
LAYER
  5
67
100
AcDbSymbolTableRecord
100
AcDbLayerTableRecord
  2
GEAR-48-RATCHET
 70
0
 62
4
420
65535
  6
Continuous
370
5
390
F
  0
LAYER
  5
68
100
AcDbSymbolTableRecord
100
AcDbLayerTableRecord
  2
DEFPOINTS
 70
1
 62
-157
420
2505036
  6
Continuous
290
0
370
-3
390
F
  0
LAYER
  5
10
100
AcDbSymbolTableRecord
100
AcDbLayerTableRecord
  2
0
 70
0
 62
7
420
16777215
  6
Continuous
370
25
390
F
  0
LAYER
  5
69
100
AcDbSymbolTableRecord
100
AcDbLayerTableRecord
  2
GEAR-16
 70
1
 62
-73
420
7510348
  6
Continuous
370
-3
390
F
  0
LAYER
  5
6A
100
AcDbSymbolTableRecord
100
AcDbLayerTableRecord
  2
TEXT
 70
1
 62
-7
420
16777215
  6
Continuous
370
-3
390
F
  0
ENDTAB
  0
TABLE
  2
STYLE
  5
3
100
AcDbSymbolTable
 70
3
  0
STYLE
  5
6B
100
AcDbSymbolTableRecord
100
AcDbTextStyleTableRecord
  2
Standard
 70
0
 40
0.0
 41
1.0
 50
0.0
 71
0
 42
2.5
  3

  4

1001
ACAD
1000
txt
1071
0
  0
STYLE
  5
6C
100
AcDbSymbolTableRecord
100
AcDbTextStyleTableRecord
  2
textstyle0
 70
0
 40
0.0
 41
1.0
 50
0.0
 71
0
 42
0.125
  3

  4

1001
ACAD
1000
ARCHITEC
1071
0
  0
STYLE
  5
6D
100
AcDbSymbolTableRecord
100
AcDbTextStyleTableRecord
  2
textstyle1
 70
0
 40
0.0
 41
1.0
 50
0.0
 71
0
 42
0.125
  3

  4

1001
ACAD
1000
ARCHITEC
1071
0
  0
ENDTAB
  0
TABLE
  2
VIEW
  5
6
100
AcDbSymbolTable
 70
0
  0
ENDTAB
  0
TABLE
  2
UCS
  5
7
100
AcDbSymbolTable
 70
0
  0
ENDTAB
  0
TABLE
  2
APPID
  5
9
100
AcDbSymbolTable
 70
1
  0
APPID
  5
12
100
AcDbSymbolTableRecord
100
AcDbRegAppTableRecord
  2
ACAD
 70
0
  0
APPID
  5
6E
100
AcDbSymbolTableRecord
100
AcDbRegAppTableRecord
  2
QCAD
 70
0
  0
ENDTAB
  0
TABLE
  2
DIMSTYLE
  5
A
100
AcDbSymbolTable
 70
1
100
AcDbDimStyleTable
 71
0
  0
DIMSTYLE
105
27
100
AcDbSymbolTableRecord
100
AcDbDimStyleTableRecord
  2
Standard
 41
2.5
 42
0.625
 43
3.75
 44
1.25
 70
0
 73
0
 74
0
 77
1
 78
8
140
2.5
141
2.5
143
0.03937007874016
147
0.625
171
3
172
1
271
2
272
2
274
3
278
44
283
0
284
8
340
6B
  0
ENDTAB
  0
TABLE
  2
BLOCK_RECORD
  5
1
100
AcDbSymbolTable
 70
1
  0
BLOCK_RECORD
  5
1F
100
AcDbSymbolTableRecord
100
AcDbBlockTableRecord
  2
*Model_Space
340
22
  0
BLOCK_RECORD
  5
1B
100
AcDbSymbolTableRecord
100
AcDbBlockTableRecord
  2
*Paper_Space
340
1E
  0
BLOCK_RECORD
  5
23
100
AcDbSymbolTableRecord
100
AcDbBlockTableRecord
  2
*Paper_Space0
340
26
  0
BLOCK_RECORD
  5
6F
100
AcDbSymbolTableRecord
100
AcDbBlockTableRecord
  2
TOOTH-48-10DP-SMALL
340
0
  0
BLOCK_RECORD
  5
70
100
AcDbSymbolTableRecord
100
AcDbBlockTableRecord
  2
TOOTH-64-10DP
340
0
  0
BLOCK_RECORD
  5
71
100
AcDbSymbolTableRecord
100
AcDbBlockTableRecord
  2
GEAR-64
340
0
  0
BLOCK_RECORD
  5
72
100
AcDbSymbolTableRecord
100
AcDbBlockTableRecord
  2
RATCHET-STRIKE
340
0
  0
BLOCK_RECORD
  5
73
100
AcDbSymbolTableRecord
100
AcDbBlockTableRecord
  2
GEAR-RATCHET
340
0
  0
BLOCK_RECORD
  5
74
100
AcDbSymbolTableRecord
100
AcDbBlockTableRecord
  2
GEAR-ESCAPE
340
0
  0
BLOCK_RECORD
  5
75
100
AcDbSymbolTableRecord
100
AcDbBlockTableRecord
  2
GEAR-48-RATCHET
340
0
  0
BLOCK_RECORD
  5
76
100
AcDbSymbolTableRecord
100
AcDbBlockTableRecord
  2
TOOTH-ESCAPE
340
0
  0
BLOCK_RECORD
  5
77
100
AcDbSymbolTableRecord
100
AcDbBlockTableRecord
  2
GEAR-16
340
0
  0
BLOCK_RECORD
  5
78
100
AcDbSymbolTableRecord
100
AcDbBlockTableRecord
  2
TOOTH-16-10DP
340
0
  0
ENDTAB
  0
ENDSEC
  0
SECTION
  2
BLOCKS
  0
BLOCK
  5
20
100
AcDbEntity
  8
0
100
AcDbBlockBegin
  2
*Model_Space
 70
0
 10
0.0
 20
0.0
 30
0.0
  3
*Model_Space
  1

  0
ENDBLK
  5
21
100
AcDbEntity
  8
0
100
AcDbBlockEnd
  0
BLOCK
  5
1C
100
AcDbEntity
 67
1
  8
0
100
AcDbBlockBegin
  2
*Paper_Space
 70
0
 10
0.0
 20
0.0
 30
0.0
  3
*Paper_Space
  1

  0
ENDBLK
  5
1D
100
AcDbEntity
 67
1
  8
0
100
AcDbBlockEnd
  0
BLOCK
  5
24
100
AcDbEntity
  8
0
100
AcDbBlockBegin
  2
*Paper_Space0
 70
0
 10
0.0
 20
0.0
 30
0.0
  3
*Paper_Space0
  1

  0
ENDBLK
  5
25
100
AcDbEntity
  8
0
100
AcDbBlockEnd
  0
BLOCK
  5
79
100
AcDbEntity
  8
0
100
AcDbBlockBegin
  2
TOOTH-48-10DP-SMALL
 70
0
 10
0.0
 20
0.0
 30
0.0
  3
TOOTH-48-10DP-SMALL
  1

  0
ARC
  5
7A
100
AcDbEntity
  8
0
 62
256
370
-1
 48
1.0
  6
BYLAYER
100
AcDbCircle
 10
0.0
 20
0.0
 30
0.0
 40
2.2273416789440388
100
AcDbArc
 50
85.1822237127699253
 51
85.7930102300390729
  0
ARC
  5
7B
100
AcDbEntity
  8
0
 62
0
370
-1
 48
1.0
  6
BYBLOCK
100
AcDbCircle
 10
0.0304848315200488
 20
2.3889721714909551
 30
0.0
 40
0.0587499999999996
100
AcDbArc
 50
89.268908440829847
 51
159.240488633450866
  0
ARC
  5
7C
100
AcDbEntity
  8
0
 62
0
370
-1
 48
1.0
  6
BYBLOCK
100
AcDbCircle
 10
0.0330942353702
 20
2.3889374484687318
 30
0.0
 40
0.0587499999999996
100
AcDbArc
 50
19.2347453093597736
 51
89.206325501978327
  0
ARC
  5
7D
100
AcDbEntity
  8
0
 62
0
370
-1
 48
1.0
  6
BYBLOCK
100
AcDbCircle
 10
0.4744615371612895
 20
2.2206801579886908
 30
0.0
 40
0.533552608418163
100
AcDbArc
 50
159.2404886334499849
 51
174.6740203656574977
  0
ARC
  5
7E
100
AcDbEntity
  8
0
 62
0
370
-1
 48
1.0
  6
BYBLOCK
100
AcDbCircle
 10
0.0
 20
0.0
 30
0.0
 40
2.4479166666666501
100
AcDbArc
 50
89.2063255019783981
 51
89.2689084408307991
  0
ARC
  5
7F
100
AcDbEntity
  8
0
 62
0
370
-1
 48
1.0
  6
BYBLOCK
100
AcDbCircle
 10
-0.4152033555911743
 20
2.23251882138447
 30
0.0
 40
0.533552608418163
100
AcDbArc
 50
3.8012135771516853
 51
19.2347453093596172
  0
ARC
  5
80
100
AcDbEntity
  8
0
 62
256
370
-1
 48
1.0
  6
BYLAYER
100
AcDbCircle
 10
0.1670654746262272
 20
2.27120546182939
 30
0.0
 40
0.05
100
AcDbArc
 50
183.8012135771530495
 51
265.793010230035577
  0
ARC
  5
81
100
AcDbEntity
  8
0
 62
256
370
-1
 48
1.0
  6
BYLAYER
100
AcDbCircle
 10
-0.1065717067092535
 20
2.2748467187889392
 30
0.0
 40
0.05
100
AcDbArc
 50
272.6822237127716448
 51
354.6740203656577251
  0
ENDBLK
  5
82
100
AcDbEntity
  8
0
100
AcDbBlockEnd
  0
BLOCK
  5
83
100
AcDbEntity
  8
0
100
AcDbBlockBegin
  2
TOOTH-64-10DP
 70
0
 10
0.0
 20
0.0
 30
0.0
  3
TOOTH-64-10DP
  1

  0
ARC
  5
84
100
AcDbEntity
  8
0
 62
256
370
-1
 48
1.0
  6
BYLAYER
100
AcDbCircle
 10
0.3359180122135896
 20
3.0763476965218928
 30
0.0
 40
0.06
100
AcDbArc
 50
263.7683466438065807
 51
347.4956993922836546
  0
ARC
  5
85
100
AcDbEntity
  8
0
 62
256
370
-1
 48
1.0
  6
BYLAYER
100
AcDbCircle
 10
0.3291450376359677
 20
3.0770797202907616
 30
0.0
 40
0.06
100
AcDbArc
 50
180.1671228556809581
 51
263.894475604155673
  0
ARC
  5
86
100
AcDbEntity
  8
0
 62
256
370
-1
 48
1.0
  6
BYLAYER
100
AcDbCircle
 10
0.0
 20
0.0
 30
0.0
 40
3.0346334291520098
100
AcDbArc
 50
83.7683466438065949
 51
83.8944756041559714
  0
ARC
  5
87
100
AcDbEntity
  8
0
 62
0
370
-1
 48
1.0
  6
BYBLOCK
100
AcDbCircle
 10
0.8190133090375085
 20
2.9996017425236374
 30
0.0
 40
0.7319491335439999
100
AcDbArc
 50
159.5424524324525066
 51
173.120699392282404
  0
ARC
  5
88
100
AcDbEntity
  8
0
 62
0
370
-1
 48
1.0
  6
BYBLOCK
100
AcDbCircle
 10
-0.4628007269669538
 20
3.0747697314189821
 30
0.0
 40
0.7319491335439999
100
AcDbArc
 50
0.1671228556796844
 51
13.7453698155096138
  0
ARC
  5
89
100
AcDbEntity
  8
0
 62
0
370
-1
 48
1.0
  6
BYBLOCK
100
AcDbCircle
 10
0.0
 20
0.0
 30
0.0
 40
3.2999999999999998
100
AcDbArc
 50
86.6398228327820732
 51
86.6479994151804647
  0
ARC
  5
8A
100
AcDbEntity
  8
0
 62
0
370
-1
 48
1.0
  6
BYBLOCK
100
AcDbCircle
 10
0.1894430579329907
 20
3.2344568829713936
 30
0.0
 40
0.06
100
AcDbArc
 50
86.6479994151804505
 51
159.542452432453274
  0
ARC
  5
8B
100
AcDbEntity
  8
0
 62
0
370
-1
 48
1.0
  6
BYBLOCK
100
AcDbCircle
 10
0.1899046397951238
 20
3.2344298149417625
 30
0.0
 40
0.06
100
AcDbArc
 50
13.7453698155087345
 51
86.63982283277997
  0
ENDBLK
  5
8C
100
AcDbEntity
  8
0
100
AcDbBlockEnd
  0
BLOCK
  5
8D
100
AcDbEntity
  8
0
100
AcDbBlockBegin
  2
GEAR-64
 70
0
 10
0.0
 20
0.0
 30
0.0
  3
GEAR-64
  1

  0
ARC
  5
8E
100
AcDbEntity
  8
0
 62
256
370
-1
 48
1.0
  6
BYLAYER
100
AcDbCircle
 10
-2.2937846005817972
 20
-1.2114632447526112
 30
0.0
 40
0.187
100
AcDbArc
 50
207.8407919912135071
 51
274.8485035254149693
  0
ARC
  5
8F
100
AcDbEntity
  8
0
 62
256
370
-1
 48
1.0
  6
BYLAYER
100
AcDbCircle
 10
-0.7297484382635266
 20
0.3680769073188301
 30
0.0
 40
0.187
100
AcDbArc
 50
333.2341363944774457
 51
38.1781167549931979
  0
ARC
  5
90
100
AcDbEntity
  8
0
 62
256
370
-1
 48
1.0
  6
BYLAYER
100
AcDbCircle
 10
-0.7297484382635275
 20
-0.3680769073188301
 30
0.0
 40
0.187
100
AcDbArc
 50
321.8218832450067453
 51
26.7658636055227461
  0
ARC
  5
91
100
AcDbEntity
  8
0
 62
256
370
-1
 48
1.0
  6
BYLAYER
100
AcDbCircle
 10
2.2937846005817946
 20
-1.2114632447526112
 30
0.0
 40
0.187
100
AcDbArc
 50
265.1514964745850875
 51
332.1592080087872318
  0
ARC
  5
92
100
AcDbEntity
  8
0
 62
256
370
-1
 48
1.0
  6
BYLAYER
100
AcDbCircle
 10
2.2937846005817946
 20
1.2114632447526148
 30
0.0
 40
0.187
100
AcDbArc
 50
27.8407919912135036
 51
94.8485035254149693
  0
ARC
  5
93
100
AcDbEntity
  8
0
 62
256
370
-1
 48
1.0
  6
BYLAYER
100
AcDbCircle
 10
0.729748438263524
 20
0.3680769073188337
 30
0.0
 40
0.187
100
AcDbArc
 50
141.8218832450065463
 51
206.7658636055227817
  0
ARC
  5
94
100
AcDbEntity
  8
0
 62
256
370
-1
 48
1.0
  6
BYLAYER
100
AcDbCircle
 10
0.7297484382635258
 20
-0.3680769073188266
 30
0.0
 40
0.187
100
AcDbArc
 50
153.2341363944774457
 51
218.1781167549931979
  0
ARC
  5
95
100
AcDbEntity
  8
0
 62
256
370
-1
 48
1.0
  6
BYLAYER
100
AcDbCircle
 10
0.0000000000000009
 20
-1.2019474754585957
 30
0.0
 40
0.187
100
AcDbArc
 50
50.1934569560836508
 51
129.8065430439156387
  0
ARC
  5
96
100
AcDbEntity
  8
0
 62
256
370
-1
 48
1.0
  6
BYLAYER
100
AcDbCircle
 10
-0.0000000000000009
 20
1.2019474754585957
 30
0.0
 40
0.187
100
AcDbArc
 50
230.1934569560834518
 51
309.8065430439156103
  0
ARC
  5
97
100
AcDbEntity
  8
0
 62
256
370
-1
 48
1.0
  6
BYLAYER
100
AcDbCircle
 10
-2.2937846005817963
 20
1.2114632447526148
 30
0.0
 40
0.187
100
AcDbArc
 50
85.1514964745851017
 51
152.1592080087871182
  0
ARC
  5
98
100
AcDbEntity
  8
0
 62
256
370
-1
 48
1.0
  6
BYLAYER
100
AcDbCircle
 10
-1.7072841129544365
 20
1.9530161148608336
 30
0.0
 40
0.187
100
AcDbArc
 50
131.1592463295097843
 51
262.3152227378105295
  0
ARC
  5
99
100
AcDbEntity
  8
0
 62
256
370
-1
 48
1.0
  6
BYLAYER
100
AcDbCircle
 10
1.7072841129544329
 20
1.9530161148608336
 30
0.0
 40
0.187
100
AcDbArc
 50
277.6847772621894137
 51
48.8407536704903507
  0
ARC
  5
9A
100
AcDbEntity
  8
0
 62
256
370
-1
 48
1.0
  6
BYLAYER
100
AcDbCircle
 10
1.7072841129544383
 20
-1.9530161148608336
 30
0.0
 40
0.187
100
AcDbArc
 50
311.1592463295095854
 51
82.3152227378107142
  0
ARC
  5
9B
100
AcDbEntity
  8
0
 62
256
370
-1
 48
1.0
  6
BYLAYER
100
AcDbCircle
 10
-1.7072841129544374
 20
-1.95301611486083
 30
0.0
 40
0.187
100
AcDbArc
 50
97.6847772621895274
 51
228.8407536704892209
  0
ARC
  5
9C
100
AcDbEntity
  8
0
 62
256
370
-1
 48
1.0
  6
BYLAYER
100
AcDbCircle
 10
0.0
 20
0.0
 30
0.0
 40
0.6303208628497444
100
AcDbArc
 50
153.2341363944770194
 51
206.765863605522668
  0
ARC
  5
9D
100
AcDbEntity
  8
0
 62
256
370
-1
 48
1.0
  6
BYLAYER
100
AcDbCircle
 10
0.0
 20
0.0
 30
0.0
 40
2.7810491489662867
100
AcDbArc
 50
332.1592080087869476
 51
27.840791991213198
  0
ARC
  5
9E
100
AcDbEntity
  8
0
 62
256
370
-1
 48
1.0
  6
BYLAYER
100
AcDbCircle
 10
0.0
 20
0.0
 30
0.0
 40
2.7810491489662867
100
AcDbArc
 50
48.8407536704903364
 51
131.1592463295097275
  0
ARC
  5
9F
100
AcDbEntity
  8
0
 62
256
370
-1
 48
1.0
  6
BYLAYER
100
AcDbCircle
 10
0.0
 20
0.0
 30
0.0
 40
2.7810491489662867
100
AcDbArc
 50
152.1592080087868624
 51
207.8407919912131092
  0
ARC
  5
A0
100
AcDbEntity
  8
0
 62
256
370
-1
 48
1.0
  6
BYLAYER
100
AcDbCircle
 10
2.1580529981174372
 20
-1.3876267989079558
 30
0.0
 40
3.1839179261952877
100
AcDbArc
 50
97.6847772621896695
 51
129.8065430439160082
  0
ARC
  5
A1
100
AcDbEntity
  8
0
 62
256
370
-1
 48
1.0
  6
BYLAYER
100
AcDbCircle
 10
2.4822108485684957
 20
-1.0098915463224252
 30
0.0
 40
2.4163320880394621
100
AcDbArc
 50
94.8485035254149551
 51
141.8218832450064895
  0
ARC
  5
A2
100
AcDbEntity
  8
0
 62
256
370
-1
 48
1.0
  6
BYLAYER
100
AcDbCircle
 10
2.4822108485684957
 20
1.0098915463224323
 30
0.0
 40
2.4163320880394621
100
AcDbArc
 50
218.178116754993539
 51
265.1514964745850875
  0
ARC
  5
A3
100
AcDbEntity
  8
0
 62
256
370
-1
 48
1.0
  6
BYLAYER
100
AcDbCircle
 10
2.1580529981174372
 20
1.3876267989079594
 30
0.0
 40
3.1839179261952877
100
AcDbArc
 50
230.1934569560840487
 51
262.3152227378104158
  0
ARC
  5
A4
100
AcDbEntity
  8
0
 62
256
370
-1
 48
1.0
  6
BYLAYER
100
AcDbCircle
 10
-2.158052998117439
 20
1.3876267989079594
 30
0.0
 40
3.1839179261952877
100
AcDbArc
 50
277.6847772621896411
 51
309.806543043916065
  0
ARC
  5
A5
100
AcDbEntity
  8
0
 62
256
370
-1
 48
1.0
  6
BYLAYER
100
AcDbCircle
 10
-2.4822108485684975
 20
1.0098915463224287
 30
0.0
 40
2.4163320880394621
100
AcDbArc
 50
274.8485035254148556
 51
321.8218832450065179
  0
ARC
  5
A6
100
AcDbEntity
  8
0
 62
256
370
-1
 48
1.0
  6
BYLAYER
100
AcDbCircle
 10
-2.158052998117439
 20
-1.3876267989079594
 30
0.0
 40
3.1839179261952877
100
AcDbArc
 50
50.1934569560840913
 51
82.3152227378103731
  0
ARC
  5
A7
100
AcDbEntity
  8
0
 62
256
370
-1
 48
1.0
  6
BYLAYER
100
AcDbCircle
 10
-2.4822108485684975
 20
-1.0098915463224287
 30
0.0
 40
2.4163320880394621
100
AcDbArc
 50
38.1781167549935034
 51
85.1514964745850733
  0
ARC
  5
A8
100
AcDbEntity
  8
0
 62
256
370
-1
 48
1.0
  6
BYLAYER
100
AcDbCircle
 10
0.0
 20
0.0
 30
0.0
 40
0.6303208628497444
100
AcDbArc
 50
333.2341363944773889
 51
26.7658636055229735
  0
ARC
  5
A9
100
AcDbEntity
  8
0
 62
256
370
-1
 48
1.0
  6
BYLAYER
100
AcDbCircle
 10
0.0
 20
0.0
 30
0.0
 40
2.7810491489662867
100
AcDbArc
 50
228.8407536704901588
 51
311.1592463295096991
  0
CIRCLE
  5
AA
100
AcDbEntity
100
AcDbCircle
  8
0
 62
256
370
-1
 48
1.0
  6
BYLAYER
 10
0.0000000000000071
 20
-0.0000000000000142
 30
0.0
 40
0.125
  0
INSERT
  5
AB
100
AcDbEntity
100
AcDbBlockReference
  8
0
 62
256
370
-1
 48
1.0
  6
BYLAYER
  2
TOOTH-64-10DP
 10
0.0000000000000107
 20
-0.0000000000000142
 30
0.0
 50
254.952504557617516
  0
INSERT
  5
AC
100
AcDbEntity
100
AcDbBlockReference
  8
0
 62
256
370
-1
 48
1.0
  6
BYLAYER
  2
TOOTH-64-10DP
 10
0.0000000000000107
 20
-0.0000000000000142
 30
0.0
 50
260.5775045576174875
  0
INSERT
  5
AD
100
AcDbEntity
100
AcDbBlockReference
  8
0
 62
256
370
-1
 48
1.0
  6
BYLAYER
  2
TOOTH-64-10DP
 10
0.0000000000000107
 20
-0.0000000000000142
 30
0.0
 50
266.2025045576174875
  0
INSERT
  5
AE
100
AcDbEntity
100
AcDbBlockReference
  8
0
 62
256
370
-1
 48
1.0
  6
BYLAYER
  2
TOOTH-64-10DP
 10
0.0000000000000036
 20
0.0
 30
0.0
 50
271.8275045576174307
  0
INSERT
  5
AF
100
AcDbEntity
100
AcDbBlockReference
  8
0
 62
256
370
-1
 48
1.0
  6
BYLAYER
  2
TOOTH-64-10DP
 10
0.0000000000000107
 20
-0.0000000000000142
 30
0.0
 50
277.4525045576174875
  0
INSERT
  5
B0
100
AcDbEntity
100
AcDbBlockReference
  8
0
 62
256
370
-1
 48
1.0
  6
BYLAYER
  2
TOOTH-64-10DP
 10
0.0000000000000107
 20
-0.0000000000000142
 30
0.0
 50
283.0775045576173738
  0
INSERT
  5
B1
100
AcDbEntity
100
AcDbBlockReference
  8
0
 62
256
370
-1
 48
1.0
  6
BYLAYER
  2
TOOTH-64-10DP
 10
0.0000000000000107
 20
-0.0000000000000142
 30
0.0
 50
288.7025045576174307
  0
LINE
  5
B2
100
AcDbEntity
100
AcDbLine
  8
CENTER
 62
256
370
-1
 48
1.0
  6
CENTER
 10
0.0
 20
-3.4499999999999957
 30
0.0
 11
-0.0000000000000036
 21
3.4499999999999922
 31
0.0
  0
INSERT
  5
B3
100
AcDbEntity
100
AcDbBlockReference
  8
0
 62
256
370
-1
 48
1.0
  6
BYLAYER
  2
TOOTH-64-10DP
 10
0.0000000000000107
 20
-0.0000000000000142
 30
0.0
 50
249.327504557617516
  0
CIRCLE
  5
B4
100
AcDbEntity
100
AcDbCircle
  8
DEFPOINTS
 62
191
420
13395660
370
-1
 48
1.0
  6
BYLAYER
 10
0.0000000000000107
 20
-0.0000000000000142
 30
0.0
 40
3.2000000000000002
  0
INSERT
  5
B5
100
AcDbEntity
100
AcDbBlockReference
  8
0
 62
256
370
-1
 48
1.0
  6
BYLAYER
  2
TOOTH-64-10DP
 10
0.0000000000000107
 20
-0.0000000000000142
 30
0.0
 50
344.9525045576173738
  0
INSERT
  5
B6
100
AcDbEntity
100
AcDbBlockReference
  8
0
 62
256
370
-1
 48
1.0
  6
BYLAYER
  2
TOOTH-64-10DP
 10
0.0000000000000036
 20
-0.0000000000000142
 30
0.0
 50
350.5775045576174875
  0
INSERT
  5
B7
100
AcDbEntity
100
AcDbBlockReference
  8
0
 62
256
370
-1
 48
1.0
  6
BYLAYER
  2
TOOTH-64-10DP
 10
0.0000000000000107
 20
-0.0000000000000142
 30
0.0
 50
356.2025045576173738
  0
INSERT
  5
B8
100
AcDbEntity
100
AcDbBlockReference
  8
0
 62
256
370
-1
 48
1.0
  6
BYLAYER
  2
TOOTH-64-10DP
 10
0.0000000000000107
 20
-0.0000000000000142
 30
0.0
 50
1.827504557617446
  0
INSERT
  5
B9
100
AcDbEntity
100
AcDbBlockReference
  8
0
 62
256
370
-1
 48
1.0
  6
BYLAYER
  2
TOOTH-64-10DP
 10
0.0000000000000107
 20
-0.0000000000000142
 30
0.0
 50
7.4525045576171216
  0
INSERT
  5
BA
100
AcDbEntity
100
AcDbBlockReference
  8
0
 62
256
370
-1
 48
1.0
  6
BYLAYER
  2
TOOTH-64-10DP
 10
0.0000000000000107
 20
-0.0000000000000142
 30
0.0
 50
13.0775045576175231
  0
INSERT
  5
BB
100
AcDbEntity
100
AcDbBlockReference
  8
0
 62
256
370
-1
 48
1.0
  6
BYLAYER
  2
TOOTH-64-10DP
 10
0.0000000000000107
 20
-0.0000000000000142
 30
0.0
 50
18.7025045576175408
  0
INSERT
  5
BC
100
AcDbEntity
100
AcDbBlockReference
  8
0
 62
256
370
-1
 48
1.0
  6
BYLAYER
  2
TOOTH-64-10DP
 10
0.0000000000000036
 20
0.0
 30
0.0
 50
24.3275045576174342
  0
INSERT
  5
BD
100
AcDbEntity
100
AcDbBlockReference
  8
0
 62
256
370
-1
 48
1.0
  6
BYLAYER
  2
TOOTH-64-10DP
 10
0.0000000000000036
 20
0.0
 30
0.0
 50
29.952504557617285
  0
INSERT
  5
BE
100
AcDbEntity
100
AcDbBlockReference
  8
0
 62
256
370
-1
 48
1.0
  6
BYLAYER
  2
TOOTH-64-10DP
 10
0.0000000000000107
 20
-0.0000000000000142
 30
0.0
 50
35.5775045576174449
  0
INSERT
  5
BF
100
AcDbEntity
100
AcDbBlockReference
  8
0
 62
256
370
-1
 48
1.0
  6
BYLAYER
  2
TOOTH-64-10DP
 10
0.0000000000000036
 20
-0.0000000000000284
 30
0.0
 50
41.202504557617452
  0
INSERT
  5
C0
100
AcDbEntity
100
AcDbBlockReference
  8
0
 62
256
370
-1
 48
1.0
  6
BYLAYER
  2
TOOTH-64-10DP
 10
0.0000000000000178
 20
-0.0000000000000284
 30
0.0
 50
46.8275045576173525
  0
INSERT
  5
C1
100
AcDbEntity
100
AcDbBlockReference
  8
0
 62
256
370
-1
 48
1.0
  6
BYLAYER
  2
TOOTH-64-10DP
 10
0.0000000000000107
 20
-0.0000000000000142
 30
0.0
 50
52.4525045576174378
  0
INSERT
  5
C2
100
AcDbEntity
100
AcDbBlockReference
  8
0
 62
256
370
-1
 48
1.0
  6
BYLAYER
  2
TOOTH-64-10DP
 10
0.0000000000000107
 20
-0.0000000000000142
 30
0.0
 50
58.0775045576175231
  0
INSERT
  5
C3
100
AcDbEntity
100
AcDbBlockReference
  8
0
 62
256
370
-1
 48
1.0
  6
BYLAYER
  2
TOOTH-64-10DP
 10
0.0000000000000107
 20
-0.0000000000000142
 30
0.0
 50
63.7025045576176083
  0
INSERT
  5
C4
100
AcDbEntity
100
AcDbBlockReference
  8
0
 62
256
370
-1
 48
1.0
  6
BYLAYER
  2
TOOTH-64-10DP
 10
0.0000000000000036
 20
-0.0000000000000142
 30
0.0
 50
69.3275045576173596
  0
INSERT
  5
C5
100
AcDbEntity
100
AcDbBlockReference
  8
0
 62
256
370
-1
 48
1.0
  6
BYLAYER
  2
TOOTH-64-10DP
 10
0.0000000000000107
 20
-0.0000000000000142
 30
0.0
 50
74.952504557617516
  0
INSERT
  5
C6
100
AcDbEntity
100
AcDbBlockReference
  8
0
 62
256
370
-1
 48
1.0
  6
BYLAYER
  2
TOOTH-64-10DP
 10
0.0000000000000107
 20
-0.0000000000000142
 30
0.0
 50
80.5775045576173596
  0
INSERT
  5
C7
100
AcDbEntity
100
AcDbBlockReference
  8
0
 62
256
370
-1
 48
1.0
  6
BYLAYER
  2
TOOTH-64-10DP
 10
0.0000000000000107
 20
-0.0000000000000142
 30
0.0
 50
86.2025045576174591
  0
INSERT
  5
C8
100
AcDbEntity
100
AcDbBlockReference
  8
0
 62
256
370
-1
 48
1.0
  6
BYLAYER
  2
TOOTH-64-10DP
 10
0.0000000000000178
 20
-0.0000000000000284
 30
0.0
 50
91.8275045576174307
  0
INSERT
  5
C9
100
AcDbEntity
100
AcDbBlockReference
  8
0
 62
256
370
-1
 48
1.0
  6
BYLAYER
  2
TOOTH-64-10DP
 10
0.0000000000000178
 20
-0.0000000000000142
 30
0.0
 50
97.4525045576174875
  0
INSERT
  5
CA
100
AcDbEntity
100
AcDbBlockReference
  8
0
 62
256
370
-1
 48
1.0
  6
BYLAYER
  2
TOOTH-64-10DP
 10
0.0000000000000107
 20
-0.0000000000000071
 30
0.0
 50
103.0775045576174449
  0
INSERT
  5
CB
100
AcDbEntity
100
AcDbBlockReference
  8
0
 62
256
370
-1
 48
1.0
  6
BYLAYER
  2
TOOTH-64-10DP
 10
0.0000000000000178
 20
-0.0000000000000142
 30
0.0
 50
108.7025045576175302
  0
INSERT
  5
CC
100
AcDbEntity
100
AcDbBlockReference
  8
0
 62
256
370
-1
 48
1.0
  6
BYLAYER
  2
TOOTH-64-10DP
 10
0.0000000000000107
 20
-0.0000000000000142
 30
0.0
 50
114.3275045576174875
  0
INSERT
  5
CD
100
AcDbEntity
100
AcDbBlockReference
  8
0
 62
256
370
-1
 48
1.0
  6
BYLAYER
  2
TOOTH-64-10DP
 10
0.0000000000000107
 20
-0.0000000000000142
 30
0.0
 50
119.9525045576174875
  0
INSERT
  5
CE
100
AcDbEntity
100
AcDbBlockReference
  8
0
 62
256
370
-1
 48
1.0
  6
BYLAYER
  2
TOOTH-64-10DP
 10
0.0000000000000107
 20
-0.0000000000000142
 30
0.0
 50
125.5775045576175444
  0
INSERT
  5
CF
100
AcDbEntity
100
AcDbBlockReference
  8
0
 62
256
370
-1
 48
1.0
  6
BYLAYER
  2
TOOTH-64-10DP
 10
0.0000000000000178
 20
-0.0000000000000284
 30
0.0
 50
131.202504557617516
  0
INSERT
  5
D0
100
AcDbEntity
100
AcDbBlockReference
  8
0
 62
256
370
-1
 48
1.0
  6
BYLAYER
  2
TOOTH-64-10DP
 10
0.0000000000000107
 20
-0.0000000000000142
 30
0.0
 50
136.827504557617516
  0
INSERT
  5
D1
100
AcDbEntity
100
AcDbBlockReference
  8
0
 62
256
370
-1
 48
1.0
  6
BYLAYER
  2
TOOTH-64-10DP
 10
-0.0000000000000107
 20
-0.0000000000000071
 30
0.0
 50
142.4525045576178286
  0
INSERT
  5
D2
100
AcDbEntity
100
AcDbBlockReference
  8
0
 62
256
370
-1
 48
1.0
  6
BYLAYER
  2
TOOTH-64-10DP
 10
0.0000000000000107
 20
-0.0000000000000142
 30
0.0
 50
148.077504557617516
  0
INSERT
  5
D3
100
AcDbEntity
100
AcDbBlockReference
  8
0
 62
256
370
-1
 48
1.0
  6
BYLAYER
  2
TOOTH-64-10DP
 10
0.0000000000000178
 20
-0.0000000000000142
 30
0.0
 50
153.702504557617516
  0
INSERT
  5
D4
100
AcDbEntity
100
AcDbBlockReference
  8
0
 62
256
370
-1
 48
1.0
  6
BYLAYER
  2
TOOTH-64-10DP
 10
-0.0000000000000036
 20
0.0
 30
0.0
 50
159.3275045576175728
  0
INSERT
  5
D5
100
AcDbEntity
100
AcDbBlockReference
  8
0
 62
256
370
-1
 48
1.0
  6
BYLAYER
  2
TOOTH-64-10DP
 10
0.0000000000000107
 20
-0.0000000000000142
 30
0.0
 50
164.9525045576175444
  0
INSERT
  5
D6
100
AcDbEntity
100
AcDbBlockReference
  8
0
 62
256
370
-1
 48
1.0
  6
BYLAYER
  2
TOOTH-64-10DP
 10
0.0000000000000107
 20
-0.0000000000000142
 30
0.0
 50
170.577504557617516
  0
INSERT
  5
D7
100
AcDbEntity
100
AcDbBlockReference
  8
0
 62
256
370
-1
 48
1.0
  6
BYLAYER
  2
TOOTH-64-10DP
 10
0.0000000000000036
 20
-0.0000000000000142
 30
0.0
 50
176.2025045576176012
  0
INSERT
  5
D8
100
AcDbEntity
100
AcDbBlockReference
  8
0
 62
256
370
-1
 48
1.0
  6
BYLAYER
  2
TOOTH-64-10DP
 10
0.0000000000000178
 20
-0.0000000000000284
 30
0.0
 50
181.8275045576176296
  0
INSERT
  5
D9
100
AcDbEntity
100
AcDbBlockReference
  8
0
 62
256
370
-1
 48
1.0
  6
BYLAYER
  2
TOOTH-64-10DP
 10
0.0000000000000178
 20
0.0
 30
0.0
 50
187.452504557617317
  0
INSERT
  5
DA
100
AcDbEntity
100
AcDbBlockReference
  8
0
 62
256
370
-1
 48
1.0
  6
BYLAYER
  2
TOOTH-64-10DP
 10
0.0000000000000107
 20
-0.0000000000000142
 30
0.0
 50
193.0775045576175444
  0
INSERT
  5
DB
100
AcDbEntity
100
AcDbBlockReference
  8
0
 62
256
370
-1
 48
1.0
  6
BYLAYER
  2
TOOTH-64-10DP
 10
-0.0000000000000391
 20
-0.0000000000000284
 30
0.0
 50
198.7025045576176296
  0
INSERT
  5
DC
100
AcDbEntity
100
AcDbBlockReference
  8
0
 62
256
370
-1
 48
1.0
  6
BYLAYER
  2
TOOTH-64-10DP
 10
0.0000000000000036
 20
0.0
 30
0.0
 50
204.3275045576176296
  0
INSERT
  5
DD
100
AcDbEntity
100
AcDbBlockReference
  8
0
 62
256
370
-1
 48
1.0
  6
BYLAYER
  2
TOOTH-64-10DP
 10
0.0000000000000249
 20
0.0
 30
0.0
 50
209.9525045576175728
  0
INSERT
  5
DE
100
AcDbEntity
100
AcDbBlockReference
  8
0
 62
256
370
-1
 48
1.0
  6
BYLAYER
  2
TOOTH-64-10DP
 10
0.0000000000000107
 20
-0.0000000000000142
 30
0.0
 50
215.5775045576176581
  0
INSERT
  5
DF
100
AcDbEntity
100
AcDbBlockReference
  8
0
 62
256
370
-1
 48
1.0
  6
BYLAYER
  2
TOOTH-64-10DP
 10
0.0000000000000107
 20
-0.0000000000000142
 30
0.0
 50
221.2025045576175444
  0
INSERT
  5
E0
100
AcDbEntity
100
AcDbBlockReference
  8
0
 62
256
370
-1
 48
1.0
  6
BYLAYER
  2
TOOTH-64-10DP
 10
0.0000000000000107
 20
-0.0000000000000071
 30
0.0
 50
226.8275045576176296
  0
INSERT
  5
E1
100
AcDbEntity
100
AcDbBlockReference
  8
0
 62
256
370
-1
 48
1.0
  6
BYLAYER
  2
TOOTH-64-10DP
 10
0.0000000000000107
 20
-0.0000000000000142
 30
0.0
 50
232.4525045576175728
  0
INSERT
  5
E2
100
AcDbEntity
100
AcDbBlockReference
  8
0
 62
256
370
-1
 48
1.0
  6
BYLAYER
  2
TOOTH-64-10DP
 10
0.0000000000000107
 20
-0.0000000000000142
 30
0.0
 50
238.0775045576175444
  0
INSERT
  5
E3
100
AcDbEntity
100
AcDbBlockReference
  8
0
 62
256
370
-1
 48
1.0
  6
BYLAYER
  2
TOOTH-64-10DP
 10
0.0000000000000036
 20
0.0
 30
0.0
 50
243.7025045576175444
  0
INSERT
  5
E4
100
AcDbEntity
100
AcDbBlockReference
  8
0
 62
256
370
-1
 48
1.0
  6
BYLAYER
  2
TOOTH-64-10DP
 10
0.0000000000000107
 20
-0.0000000000000142
 30
0.0
 50
294.327504557617317
  0
INSERT
  5
E5
100
AcDbEntity
100
AcDbBlockReference
  8
0
 62
256
370
-1
 48
1.0
  6
BYLAYER
  2
TOOTH-64-10DP
 10
0.0000000000000107
 20
-0.0000000000000142
 30
0.0
 50
299.9525045576174307
  0
INSERT
  5
E6
100
AcDbEntity
100
AcDbBlockReference
  8
0
 62
256
370
-1
 48
1.0
  6
BYLAYER
  2
TOOTH-64-10DP
 10
0.0000000000000107
 20
-0.0000000000000142
 30
0.0
 50
305.5775045576172602
  0
INSERT
  5
E7
100
AcDbEntity
100
AcDbBlockReference
  8
0
 62
256
370
-1
 48
1.0
  6
BYLAYER
  2
TOOTH-64-10DP
 10
0.0000000000000107
 20
-0.0000000000000142
 30
0.0
 50
311.202504557617317
  0
INSERT
  5
E8
100
AcDbEntity
100
AcDbBlockReference
  8
0
 62
256
370
-1
 48
1.0
  6
BYLAYER
  2
TOOTH-64-10DP
 10
0.0000000000000107
 20
-0.0000000000000142
 30
0.0
 50
316.8275045576172602
  0
INSERT
  5
E9
100
AcDbEntity
100
AcDbBlockReference
  8
0
 62
256
370
-1
 48
1.0
  6
BYLAYER
  2
TOOTH-64-10DP
 10
0.0000000000000107
 20
-0.0000000000000142
 30
0.0
 50
322.4525045576176012
  0
INSERT
  5
EA
100
AcDbEntity
100
AcDbBlockReference
  8
0
 62
256
370
-1
 48
1.0
  6
BYLAYER
  2
TOOTH-64-10DP
 10
0.0000000000000107
 20
-0.0000000000000142
 30
0.0
 50
328.0775045576172033
  0
INSERT
  5
EB
100
AcDbEntity
100
AcDbBlockReference
  8
0
 62
256
370
-1
 48
1.0
  6
BYLAYER
  2
TOOTH-64-10DP
 10
0.0000000000000107
 20
-0.0000000000000142
 30
0.0
 50
333.7025045576172602
  0
INSERT
  5
EC
100
AcDbEntity
100
AcDbBlockReference
  8
0
 62
256
370
-1
 48
1.0
  6
BYLAYER
  2
TOOTH-64-10DP
 10
0.0000000000000107
 20
-0.0000000000000142
 30
0.0
 50
339.3275045576172033
  0
LINE
  5
ED
100
AcDbEntity
100
AcDbLine
  8
CENTER
 62
256
370
-1
 48
1.0
  6
CENTER
 10
3.4500000000000064
 20
-0.0000000000000036
 30
0.0
 11
-3.4500000000000135
 21
0.0
 31
0.0
  0
TEXT
  5
EE
100
AcDbEntity
100
AcDbText
  8
TEXT
 62
191
420
13395660
370
-1
 48
1.0
  6
BYLAYER
 10
3.3815435771099605
 20
-0.6582324323749694
 30
0.0
 40
0.125
  1
64t
 50
0.0
 41
1.0
  7
textstyle0
 71
0
 72
0
 11
3.3815435771099605
 21
-0.6582324323749694
 31
0.0
100
AcDbText
 73
0
  0
TEXT
  5
EF
100
AcDbEntity
100
AcDbText
  8
TEXT
 62
191
420
13395660
370
-1
 48
1.0
  6
BYLAYER
 10
3.3815435771099547
 20
-0.8457324323749759
 30
0.0
 40
0.125
  1
6.4 pd
 50
0.0
 41
1.0
  7
textstyle1
 71
0
 72
0
 11
3.3815435771099547
 21
-0.8457324323749759
 31
0.0
100
AcDbText
 73
0
  0
CIRCLE
  5
F0
100
AcDbEntity
100
AcDbCircle
  8
0
 62
256
370
-1
 48
1.0
  6
BYLAYER
 10
0.0000000000000071
 20
-0.0000000000000142
 30
0.0
 40
0.25
  0
ENDBLK
  5
F1
100
AcDbEntity
  8
0
100
AcDbBlockEnd
  0
BLOCK
  5
F2
100
AcDbEntity
  8
0
100
AcDbBlockBegin
  2
RATCHET-STRIKE
 70
0
 10
0.0
 20
0.0
 30
0.0
  3
RATCHET-STRIKE
  1

  0
LINE
  5
F3
100
AcDbEntity
100
AcDbLine
  8
0
 62
256
370
-1
 48
1.0
  6
BYLAYER
 10
-0.3554607090066071
 20
0.5010422926846871
 30
0.0
 11
-1.8866920717850775
 21
0.5010422926846729
 31
0.0
  0
LINE
  5
F4
100
AcDbEntity
100
AcDbLine
  8
0
 62
256
370
-1
 48
1.0
  6
BYLAYER
 10
-0.3554607090066071
 20
0.4360422926846894
 30
0.0
 11
-1.8866920717850633
 21
0.4360422926846752
 31
0.0
  0
CIRCLE
  5
F5
100
AcDbEntity
100
AcDbCircle
  8
0
 62
256
370
-1
 48
1.0
  6
BYLAYER
 10
-1.6446306126471057
 20
0.4685422926846883
 30
0.0
 40
0.25
  0
LINE
  5
F6
100
AcDbEntity
100
AcDbLine
  8
CENTER
 62
256
370
-1
 48
1.0
  6
CENTER
 10
-1.6446306126471057
 20
0.158542292684686
 30
0.0
 11
-1.6446306126471057
 21
0.7785422926846906
 31
0.0
  0
LINE
  5
F7
100
AcDbEntity
100
AcDbLine
  8
CENTER
 62
256
370
-1
 48
1.0
  6
CENTER
 10
-1.954630612647108
 20
0.4685422926846883
 30
0.0
 11
-1.3346306126471035
 21
0.4685422926846883
 31
0.0
  0
ARC
  5
F8
100
AcDbEntity
  8
0
 62
256
370
-1
 48
1.0
  6
BYLAYER
100
AcDbCircle
 10
-0.3554607090066071
 20
0.491042292684682
 30
0.0
 40
0.01
100
AcDbArc
 50
0.0
 51
90.0
  0
ARC
  5
F9
100
AcDbEntity
  8
0
 62
256
370
-1
 48
1.0
  6
BYLAYER
100
AcDbCircle
 10
-0.3554607090066071
 20
0.4460422926846945
 30
0.0
 40
0.01
100
AcDbArc
 50
270.0
 51
0.0
  0
LINE
  5
FA
100
AcDbEntity
100
AcDbLine
  8
0
 62
256
370
-1
 48
1.0
  6
BYLAYER
 10
-0.345460709006602
 20
0.4460422926846945
 30
0.0
 11
-0.345460709006602
 21
0.491042292684682
 31
0.0
  0
ENDBLK
  5
FB
100
AcDbEntity
  8
0
100
AcDbBlockEnd
  0
BLOCK
  5
FC
100
AcDbEntity
  8
0
100
AcDbBlockBegin
  2
GEAR-RATCHET
 70
0
 10
0.0
 20
0.0
 30
0.0
  3
GEAR-RATCHET
  1

  0
ARC
  5
FD
100
AcDbEntity
  8
0
 62
256
370
-1
 48
1.0
  6
BYLAYER
100
AcDbCircle
 10
-0.0671896742862543
 20
0.6869733026609453
 30
0.0
 40
0.03
100
AcDbArc
 50
55.1426579770872536
 51
180.1069649190715438
  0
LINE
  5
FE
100
AcDbEntity
100
AcDbLine
  8
0
 62
256
370
-1
 48
1.0
  6
BYLAYER
 10
-0.096955684046435
 20
0.5616085278770555
 30
0.0
 11
-0.0971896220070647
 21
0.6869172959928136
 31
0.0
  0
ARC
  5
FF
100
AcDbEntity
  8
0
 62
256
370
-1
 48
1.0
  6
BYLAYER
100
AcDbCircle
 10
-0.4777141662440698
 20
0.0975655552748265
 30
0.0
 40
0.7482839627723812
100
AcDbArc
 50
36.6992505278292356
 51
55.1426579770871612
  0
ARC
  5
100
100
AcDbEntity
  8
0
 62
256
370
-1
 48
1.0
  6
BYLAYER
100
AcDbCircle
 10
0.1382832088917496
 20
0.556703313772573
 30
0.0
 40
0.02
100
AcDbArc
 50
216.6992505278415138
 51
334.3926792048322341
  0
ARC
  5
101
100
AcDbEntity
  8
0
 62
256
370
-1
 48
1.0
  6
BYLAYER
100
AcDbCircle
 10
0.2375307404560658
 20
0.6480940658870509
 30
0.0
 40
0.03
100
AcDbArc
 50
29.428372262795623
 51
154.3926792047799097
  0
LINE
  5
102
100
AcDbEntity
100
AcDbLine
  8
0
 62
256
370
-1
 48
1.0
  6
BYLAYER
 10
0.1563187551036265
 20
0.548059294288521
 30
0.0
 11
0.2104774211383358
 21
0.6610600951131005
 31
0.0
  0
ARC
  5
103
100
AcDbEntity
  8
0
 62
256
370
-1
 48
1.0
  6
BYLAYER
100
AcDbCircle
 10
-0.3880734836101141
 20
0.2951759365616766
 30
0.0
 40
0.7482839627723812
100
AcDbArc
 50
10.9849648135376068
 51
29.4283722627955342
  0
ARC
  5
104
100
AcDbEntity
  8
0
 62
256
370
-1
 48
1.0
  6
BYLAYER
100
AcDbCircle
 10
0.3661333815238947
 20
0.4415735186360905
 30
0.0
 40
0.02
100
AcDbArc
 50
190.9849648135498796
 51
308.6783934905405999
  0
ARC
  5
105
100
AcDbEntity
  8
0
 62
256
370
-1
 48
1.0
  6
BYLAYER
100
AcDbCircle
 10
0.4952052789276848
 20
0.4808518510120905
 30
0.0
 40
0.03
100
AcDbArc
 50
3.7140865485099082
 51
128.6783934904941873
  0
LINE
  5
106
100
AcDbEntity
100
AcDbLine
  8
0
 62
256
370
-1
 48
1.0
  6
BYLAYER
 10
0.3786323476816591
 20
0.4259601959599593
 30
0.0
 11
0.4764568296911165
 21
0.5042718350261879
 31
0.0
  0
ARC
  5
107
100
AcDbEntity
  8
0
 62
256
370
-1
 48
1.0
  6
BYLAYER
100
AcDbCircle
 10
-0.2215700881382645
 20
0.43432310351713
 30
0.0
 40
0.7482839627723812
100
AcDbArc
 50
345.2706790992518791
 51
3.7140865485098189
  0
ARC
  5
108
100
AcDbEntity
  8
0
 62
256
370
-1
 48
1.0
  6
BYLAYER
100
AcDbCircle
 10
0.5214663476139947
 20
0.2389846725898934
 30
0.0
 40
0.02
100
AcDbArc
 50
165.2706790992641572
 51
282.9641077762549344
  0
LINE
  5
109
100
AcDbEntity
100
AcDbLine
  8
0
 62
256
370
-1
 48
1.0
  6
BYLAYER
 10
0.5259531601803218
 20
0.2194944567625612
 30
0.0
 11
0.6480681197640052
 21
0.2476063535241479
 31
0.0
  0
ARC
  5
10A
100
AcDbEntity
  8
0
 62
256
370
-1
 48
1.0
  6
BYLAYER
100
AcDbCircle
 10
-0.0111820193318266
 20
0.487447253197729
 30
0.0
 40
0.7482839627723812
100
AcDbArc
 50
319.5563933849662135
 51
337.999800834224061
  0
ARC
  5
10B
100
AcDbEntity
  8
0
 62
256
370
-1
 48
1.0
  6
BYLAYER
100
AcDbCircle
 10
0.573516508194075
 20
-0.0109380188173844
 30
0.0
 40
0.02
100
AcDbArc
 50
139.5563933849784348
 51
257.249822061969212
  0
LINE
  5
10C
100
AcDbEntity
100
AcDbLine
  8
0
 62
256
370
-1
 48
1.0
  6
BYLAYER
 10
0.5691024989130966
 20
-0.0304448515194906
 30
0.0
 11
0.6913215706837548
 21
-0.0581006029860021
 31
0.0
  0
ARC
  5
10D
100
AcDbEntity
  8
0
 62
256
370
-1
 48
1.0
  6
BYLAYER
100
AcDbCircle
 10
0.2014207855417709
 20
0.4440264962343008
 30
0.0
 40
0.7482839627723812
100
AcDbArc
 50
293.8421076706804342
 51
312.2855151199383954
  0
ARC
  5
10E
100
AcDbEntity
  8
0
 62
256
370
-1
 48
1.0
  6
BYLAYER
100
AcDbCircle
 10
0.5119746906079286
 20
-0.2586943014518823
 30
0.0
 40
0.02
100
AcDbArc
 50
113.8421076706927266
 51
231.5355363476834611
  0
ARC
  5
10F
100
AcDbEntity
  8
0
 62
256
370
-1
 48
1.0
  6
BYLAYER
100
AcDbCircle
 10
0.5789894323430786
 20
-0.3757898457045599
 30
0.0
 40
0.03
100
AcDbArc
 50
286.5712294056468181
 51
51.5355363476311226
  0
LINE
  5
110
100
AcDbEntity
100
AcDbLine
  8
0
 62
256
370
-1
 48
1.0
  6
BYLAYER
 10
0.4995341081519911
 20
-0.2743541835765484
 30
0.0
 11
0.5976503060269067
 21
-0.3523000225176247
 31
0.0
  0
ARC
  5
111
100
AcDbEntity
  8
0
 62
256
370
-1
 48
1.0
  6
BYLAYER
100
AcDbCircle
 10
0.3741297335749749
 20
0.3126608460640341
 30
0.0
 40
0.7482839627723812
100
AcDbArc
 50
268.127821956388857
 51
286.5712294056467613
  0
ARC
  5
112
100
AcDbEntity
  8
0
 62
256
370
-1
 48
1.0
  6
BYLAYER
100
AcDbCircle
 10
0.3490300065893877
 20
-0.455213005006442
 30
0.0
 40
0.02
100
AcDbArc
 50
88.1278219564010783
 51
205.821250633391827
  0
ARC
  5
113
100
AcDbEntity
  8
0
 62
256
370
-1
 48
1.0
  6
BYLAYER
100
AcDbCircle
 10
0.35860235000888
 20
-0.5897890516682196
 30
0.0
 40
0.03
100
AcDbArc
 50
260.8569436913670643
 51
25.8212506333513687
  0
LINE
  5
114
100
AcDbEntity
100
AcDbLine
  8
0
 62
256
370
-1
 48
1.0
  6
BYLAYER
 10
0.3310268608876186
 20
-0.4639243048429904
 30
0.0
 11
0.3856070685614554
 21
-0.5767221019134041
 31
0.0
  0
ARC
  5
115
100
AcDbEntity
  8
0
 62
256
370
-1
 48
1.0
  6
BYLAYER
100
AcDbCircle
 10
0.4727376994735835
 20
0.119368880797154
 30
0.0
 40
0.7482839627723812
100
AcDbArc
 50
242.4135362421090463
 51
260.8569436913669506
  0
ARC
  5
116
100
AcDbEntity
  8
0
 62
256
370
-1
 48
1.0
  6
BYLAYER
100
AcDbCircle
 10
0.1169556491936561
 20
-0.5615711900983342
 30
0.0
 40
0.02
100
AcDbArc
 50
62.4135362421212747
 51
180.1069649191120163
  0
ARC
  5
117
100
AcDbEntity
  8
0
 62
256
370
-1
 48
1.0
  6
BYLAYER
100
AcDbCircle
 10
0.0671896742862828
 20
-0.6869733026609595
 30
0.0
 40
0.03
100
AcDbArc
 50
235.1426579770873104
 51
0.1069649190715793
  0
LINE
  5
118
100
AcDbEntity
100
AcDbLine
  8
0
 62
256
370
-1
 48
1.0
  6
BYLAYER
 10
0.0969556840464492
 20
-0.5616085278770697
 30
0.0
 11
0.0971896220070789
 21
-0.6869172959928278
 31
0.0
  0
ARC
  5
119
100
AcDbEntity
  8
0
 62
256
370
-1
 48
1.0
  6
BYLAYER
100
AcDbCircle
 10
0.4777141662440982
 20
-0.0975655552748265
 30
0.0
 40
0.7482839627723812
100
AcDbArc
 50
216.699250527829264
 51
235.1426579770871967
  0
ARC
  5
11A
100
AcDbEntity
  8
0
 62
256
370
-1
 48
1.0
  6
BYLAYER
100
AcDbCircle
 10
-0.1382832088917212
 20
-0.556703313772573
 30
0.0
 40
0.02
100
AcDbArc
 50
36.6992505278414924
 51
154.3926792048322341
  0
ARC
  5
11B
100
AcDbEntity
  8
0
 62
256
370
-1
 48
1.0
  6
BYLAYER
100
AcDbCircle
 10
-0.2375307404560516
 20
-0.6480940658870367
 30
0.0
 40
0.03
100
AcDbArc
 50
209.4283722627956195
 51
334.3926792047799381
  0
LINE
  5
11C
100
AcDbEntity
100
AcDbLine
  8
0
 62
256
370
-1
 48
1.0
  6
BYLAYER
 10
-0.1563187551036123
 20
-0.548059294288521
 30
0.0
 11
-0.2104774211383216
 21
-0.6610600951131005
 31
0.0
  0
ARC
  5
11D
100
AcDbEntity
  8
0
 62
256
370
-1
 48
1.0
  6
BYLAYER
100
AcDbCircle
 10
0.3880734836101425
 20
-0.2951759365616624
 30
0.0
 40
0.7482839627723812
100
AcDbArc
 50
190.9849648135376015
 51
209.4283722627955342
  0
ARC
  5
11E
100
AcDbEntity
  8
0
 62
256
370
-1
 48
1.0
  6
BYLAYER
100
AcDbCircle
 10
-0.3661333815238805
 20
-0.4415735186360905
 30
0.0
 40
0.02
100
AcDbArc
 50
10.984964813549869
 51
128.6783934905405999
  0
ARC
  5
11F
100
AcDbEntity
  8
0
 62
256
370
-1
 48
1.0
  6
BYLAYER
100
AcDbCircle
 10
-0.4952052789276706
 20
-0.4808518510120763
 30
0.0
 40
0.03
100
AcDbArc
 50
183.7140865485098971
 51
308.6783934904942157
  0
LINE
  5
120
100
AcDbEntity
100
AcDbLine
  8
0
 62
256
370
-1
 48
1.0
  6
BYLAYER
 10
-0.3786323476816449
 20
-0.4259601959599593
 30
0.0
 11
-0.4764568296911023
 21
-0.5042718350261737
 31
0.0
  0
ARC
  5
121
100
AcDbEntity
  8
0
 62
256
370
-1
 48
1.0
  6
BYLAYER
100
AcDbCircle
 10
0.2215700881382787
 20
-0.4343231035171158
 30
0.0
 40
0.7482839627723812
100
AcDbArc
 50
165.2706790992519075
 51
183.7140865485097834
  0
ARC
  5
122
100
AcDbEntity
  8
0
 62
256
370
-1
 48
1.0
  6
BYLAYER
100
AcDbCircle
 10
-0.5214663476139663
 20
-0.238984672589865
 30
0.0
 40
0.02
100
AcDbArc
 50
345.2706790992641572
 51
102.9641077762548917
  0
ARC
  5
123
100
AcDbEntity
  8
0
 62
256
370
-1
 48
1.0
  6
BYLAYER
100
AcDbCircle
 10
-0.6547983386135314
 20
-0.2183710297832135
 30
0.0
 40
0.03
100
AcDbArc
 50
157.9998008342241747
 51
282.9641077762084933
  0
LINE
  5
124
100
AcDbEntity
100
AcDbLine
  8
0
 62
256
370
-1
 48
1.0
  6
BYLAYER
 10
-0.525953160180336
 20
-0.2194944567625612
 30
0.0
 11
-0.6480681197640195
 21
-0.2476063535241479
 31
0.0
  0
ARC
  5
125
100
AcDbEntity
  8
0
 62
256
370
-1
 48
1.0
  6
BYLAYER
100
AcDbCircle
 10
0.0111820193317982
 20
-0.4874472531977148
 30
0.0
 40
0.7482839627723812
100
AcDbArc
 50
139.5563933849661851
 51
157.9998008342240894
  0
ARC
  5
126
100
AcDbEntity
  8
0
 62
256
370
-1
 48
1.0
  6
BYLAYER
100
AcDbCircle
 10
-0.5735165081940892
 20
0.0109380188174129
 30
0.0
 40
0.02
100
AcDbArc
 50
319.5563933849784917
 51
77.2498220619691836
  0
ARC
  5
127
100
AcDbEntity
  8
0
 62
256
370
-1
 48
1.0
  6
BYLAYER
100
AcDbCircle
 10
-0.6847005567622944
 20
0.0873608520391116
 30
0.0
 40
0.03
100
AcDbArc
 50
132.2855151199384807
 51
257.2498220619227709
  0
LINE
  5
128
100
AcDbEntity
100
AcDbLine
  8
0
 62
256
370
-1
 48
1.0
  6
BYLAYER
 10
-0.5691024989130966
 20
0.0304448515194906
 30
0.0
 11
-0.6913215706837548
 21
0.0581006029860021
 31
0.0
  0
ARC
  5
129
100
AcDbEntity
  8
0
 62
256
370
-1
 48
1.0
  6
BYLAYER
100
AcDbCircle
 10
-0.2014207855417567
 20
-0.4440264962342724
 30
0.0
 40
0.7482839627723812
100
AcDbArc
 50
113.8421076706804769
 51
132.2855151199383954
  0
ARC
  5
12A
100
AcDbEntity
  8
0
 62
256
370
-1
 48
1.0
  6
BYLAYER
100
AcDbCircle
 10
-0.5119746906079143
 20
0.258694301451925
 30
0.0
 40
0.02
100
AcDbArc
 50
293.8421076706927124
 51
51.5355363476834754
  0
ARC
  5
12B
100
AcDbEntity
  8
0
 62
256
370
-1
 48
1.0
  6
BYLAYER
100
AcDbCircle
 10
-0.5789894323430502
 20
0.3757898457045599
 30
0.0
 40
0.03
100
AcDbArc
 50
106.5712294056468465
 51
231.5355363476311084
  0
LINE
  5
12C
100
AcDbEntity
100
AcDbLine
  8
0
 62
256
370
-1
 48
1.0
  6
BYLAYER
 10
-0.4995341081519911
 20
0.2743541835765484
 30
0.0
 11
-0.5976503060268925
 21
0.3523000225176247
 31
0.0
  0
ARC
  5
12D
100
AcDbEntity
  8
0
 62
256
370
-1
 48
1.0
  6
BYLAYER
100
AcDbCircle
 10
-0.3741297335749607
 20
-0.3126608460640057
 30
0.0
 40
0.7482839627723812
100
AcDbArc
 50
88.1278219563888285
 51
106.5712294056467613
  0
ARC
  5
12E
100
AcDbEntity
  8
0
 62
256
370
-1
 48
1.0
  6
BYLAYER
100
AcDbCircle
 10
-0.3490300065893592
 20
0.455213005006442
 30
0.0
 40
0.02
100
AcDbArc
 50
268.1278219564010783
 51
25.8212506333918341
  0
ARC
  5
12F
100
AcDbEntity
  8
0
 62
256
370
-1
 48
1.0
  6
BYLAYER
100
AcDbCircle
 10
-0.1169556491936561
 20
0.5615711900983342
 30
0.0
 40
0.02
100
AcDbArc
 50
242.4135362421213244
 51
0.1069649191120411
  0
ARC
  5
130
100
AcDbEntity
  8
0
 62
256
370
-1
 48
1.0
  6
BYLAYER
100
AcDbCircle
 10
-0.4727376994735835
 20
-0.119368880797154
 30
0.0
 40
0.7482839627723812
100
AcDbArc
 50
62.4135362421090321
 51
80.8569436913669648
  0
LINE
  5
131
100
AcDbEntity
100
AcDbLine
  8
0
 62
256
370
-1
 48
1.0
  6
BYLAYER
 10
-0.3310268608876186
 20
0.4639243048429904
 30
0.0
 11
-0.3856070685614554
 21
0.5767221019134041
 31
0.0
  0
ARC
  5
132
100
AcDbEntity
  8
0
 62
256
370
-1
 48
1.0
  6
BYLAYER
100
AcDbCircle
 10
-0.35860235000888
 20
0.5897890516682196
 30
0.0
 40
0.03
100
AcDbArc
 50
80.8569436913670501
 51
205.8212506333513261
  0
CIRCLE
  5
133
100
AcDbEntity
100
AcDbCircle
  8
0
 62
256
370
-1
 48
1.0
  6
BYLAYER
 10
0.0
 20
0.0
 30
0.0
 40
0.25
  0
LINE
  5
134
100
AcDbEntity
100
AcDbLine
  8
CENTER
 62
256
370
-1
 48
1.0
  6
CENTER
 10
-0.8719999999999999
 20
0.0
 30
0.0
 11
0.8719999999999999
 21
0.0
 31
0.0
  0
LINE
  5
135
100
AcDbEntity
100
AcDbLine
  8
CENTER
 62
256
370
-1
 48
1.0
  6
CENTER
 10
0.0
 20
-0.8719999999999999
 30
0.0
 11
0.0
 21
0.8719999999999999
 31
0.0
  0
ARC
  5
136
100
AcDbEntity
  8
0
 62
256
370
-1
 48
1.0
  6
BYLAYER
100
AcDbCircle
 10
0.654798338613503
 20
0.218371029783242
 30
0.0
 40
0.03
100
AcDbArc
 50
337.9998008342242315
 51
102.9641077762084791
  0
ARC
  5
137
100
AcDbEntity
  8
0
 62
256
370
-1
 48
1.0
  6
BYLAYER
100
AcDbCircle
 10
0.6847005567622944
 20
-0.0873608520390974
 30
0.0
 40
0.03
100
AcDbArc
 50
312.2855151199384522
 51
77.2498220619227567
  0
ENDBLK
  5
138
100
AcDbEntity
  8
0
100
AcDbBlockEnd
  0
BLOCK
  5
139
100
AcDbEntity
  8
0
100
AcDbBlockBegin
  2
GEAR-ESCAPE
 70
0
 10
0.0
 20
0.0
 30
0.0
  3
GEAR-ESCAPE
  1

  0
ARC
  5
13A
100
AcDbEntity
  8
0
 62
256
370
-1
 48
1.0
  6
BYLAYER
100
AcDbCircle
 10
0.9773242056633293
 20
-1.2255257909395283
 30
0.0
 40
0.9671710634973192
100
AcDbArc
 50
137.6361237956346883
 51
308.5714285714284983
  0
ARC
  5
13B
100
AcDbEntity
  8
0
 62
256
370
-1
 48
1.0
  6
BYLAYER
100
AcDbCircle
 10
0.0
 20
0.0
 30
0.0
 40
2.5346773847711708
100
AcDbArc
 50
308.5714285714285552
 51
328.501619885865864
  0
ARC
  5
13C
100
AcDbEntity
  8
0
 62
256
370
-1
 48
1.0
  6
BYLAYER
100
AcDbCircle
 10
1.5675063212738323
 20
0.0000000000000071
 30
0.0
 40
1.3421710634973192
100
AcDbArc
 50
205.9804215966942138
 51
292.7634993625230777
  0
ARC
  5
13D
100
AcDbEntity
  8
0
 62
256
370
-1
 48
1.0
  6
BYLAYER
100
AcDbCircle
 10
2.1100458878042332
 20
-1.2929557262560039
 30
0.0
 40
0.06
100
AcDbArc
 50
328.5016198858656367
 51
112.7634993625225519
  0
ARC
  5
13E
100
AcDbEntity
  8
0
 62
256
370
-1
 48
1.0
  6
BYLAYER
100
AcDbCircle
 10
0.307033353222927
 20
-0.6142406597760441
 30
0.0
 40
0.06
100
AcDbArc
 50
25.9804215966927714
 51
137.6361237956322157
  0
ARC
  5
13F
100
AcDbEntity
  8
0
 62
256
370
-1
 48
1.0
  6
BYLAYER
100
AcDbCircle
 10
-0.3488029705922955
 20
-1.5282056651313098
 30
0.0
 40
0.9671710634973192
100
AcDbArc
 50
86.2075523670632151
 51
257.1428571428570535
  0
ARC
  5
140
100
AcDbEntity
  8
0
 62
256
370
-1
 48
1.0
  6
BYLAYER
100
AcDbCircle
 10
0.0
 20
0.0
 30
0.0
 40
2.5346773847711708
100
AcDbArc
 50
257.1428571428571672
 51
277.0730484572944192
  0
ARC
  5
141
100
AcDbEntity
  8
0
 62
256
370
-1
 48
1.0
  6
BYLAYER
100
AcDbCircle
 10
0.9773242056633364
 20
-1.2255257909395354
 30
0.0
 40
1.3421710634973192
100
AcDbArc
 50
154.5518501681227974
 51
241.3349279339516897
  0
ARC
  5
142
100
AcDbEntity
  8
0
 62
256
370
-1
 48
1.0
  6
BYLAYER
100
AcDbCircle
 10
0.3047186002756348
 20
-2.4558450141130237
 30
0.0
 40
0.06
100
AcDbArc
 50
277.0730484572941918
 51
61.3349279339511
  0
ARC
  5
143
100
AcDbEntity
  8
0
 62
256
370
-1
 48
1.0
  6
BYLAYER
100
AcDbCircle
 10
-0.2888005210598621
 20
-0.6230211289747487
 30
0.0
 40
0.06
100
AcDbArc
 50
334.5518501681214047
 51
86.2075523670607424
  0
ARC
  5
144
100
AcDbEntity
  8
0
 62
256
370
-1
 48
1.0
  6
BYLAYER
100
AcDbCircle
 10
-1.412274395707982
 20
-0.6801155037646893
 30
0.0
 40
0.9671710634973192
100
AcDbArc
 50
34.7789809384859012
 51
205.7142857142796686
  0
ARC
  5
145
100
AcDbEntity
  8
0
 62
256
370
-1
 48
1.0
  6
BYLAYER
100
AcDbCircle
 10
0.0
 20
0.0
 30
0.0
 40
2.5346773847711708
100
AcDbArc
 50
205.7142857142797823
 51
225.6444770287170343
  0
ARC
  5
146
100
AcDbEntity
  8
0
 62
256
370
-1
 48
1.0
  6
BYLAYER
100
AcDbCircle
 10
-0.3488029705922813
 20
-1.5282056651313098
 30
0.0
 40
1.3421710634973192
100
AcDbArc
 50
103.1232787395454125
 51
189.9063565053743332
  0
ARC
  5
147
100
AcDbEntity
  8
0
 62
256
370
-1
 48
1.0
  6
BYLAYER
100
AcDbCircle
 10
-1.7300680083871924
 20
-1.7694329162341731
 30
0.0
 40
0.06
100
AcDbArc
 50
225.6444770287168637
 51
9.9063565053737701
  0
ARC
  5
148
100
AcDbEntity
  8
0
 62
256
370
-1
 48
1.0
  6
BYLAYER
100
AcDbCircle
 10
-0.6671617125275517
 20
-0.162653980740501
 30
0.0
 40
0.06
100
AcDbArc
 50
283.1232787395439914
 51
34.7789809384834214
  0
ARC
  5
149
100
AcDbEntity
  8
0
 62
256
370
-1
 48
1.0
  6
BYLAYER
100
AcDbCircle
 10
-1.4122743957079749
 20
0.6801155037647177
 30
0.0
 40
0.9671710634973192
100
AcDbArc
 50
343.350409509926294
 51
154.285714285720104
  0
ARC
  5
14A
100
AcDbEntity
  8
0
 62
256
370
-1
 48
1.0
  6
BYLAYER
100
AcDbCircle
 10
0.0
 20
0.0
 30
0.0
 40
2.5346773847711708
100
AcDbArc
 50
154.2857142857201893
 51
174.2159056001574413
  0
ARC
  5
14B
100
AcDbEntity
  8
0
 62
256
370
-1
 48
1.0
  6
BYLAYER
100
AcDbCircle
 10
-1.4122743957079891
 20
-0.6801155037647035
 30
0.0
 40
1.3421710634973192
100
AcDbArc
 50
51.6947073109859119
 51
138.4777850768147403
  0
ARC
  5
14C
100
AcDbEntity
  8
0
 62
256
370
-1
 48
1.0
  6
BYLAYER
100
AcDbCircle
 10
-2.4620781197785675
 20
0.2493982574226976
 30
0.0
 40
0.06
100
AcDbArc
 50
174.2159056001572424
 51
318.4777850768142571
  0
ARC
  5
14D
100
AcDbEntity
  8
0
 62
256
370
-1
 48
1.0
  6
BYLAYER
100
AcDbCircle
 10
-0.5431365268432202
 20
0.4201949325278918
 30
0.0
 40
0.06
100
AcDbArc
 50
231.6947073109844837
 51
343.3504095099238498
  0
ARC
  5
14E
100
AcDbEntity
  8
0
 62
256
370
-1
 48
1.0
  6
BYLAYER
100
AcDbCircle
 10
-0.3488029705922742
 20
1.5282056651313098
 30
0.0
 40
0.9671710634973192
100
AcDbArc
 50
291.9218380813489375
 51
102.8571428571427333
  0
ARC
  5
14F
100
AcDbEntity
  8
0
 62
256
370
-1
 48
1.0
  6
BYLAYER
100
AcDbCircle
 10
0.0
 20
0.0
 30
0.0
 40
2.5346773847711708
100
AcDbArc
 50
102.8571428571428896
 51
122.7873341715801558
  0
ARC
  5
150
100
AcDbEntity
  8
0
 62
256
370
-1
 48
1.0
  6
BYLAYER
100
AcDbCircle
 10
-1.412274395707982
 20
0.6801155037646964
 30
0.0
 40
1.3421710634973192
100
AcDbArc
 50
0.2661358824085092
 51
87.0492136482374406
  0
ARC
  5
151
100
AcDbEntity
  8
0
 62
256
370
-1
 48
1.0
  6
BYLAYER
100
AcDbCircle
 10
-1.3400931897357253
 20
2.0804274564429548
 30
0.0
 40
0.06
100
AcDbArc
 50
122.7873341715799143
 51
267.0492136482368437
  0
ARC
  5
152
100
AcDbEntity
  8
0
 62
256
370
-1
 48
1.0
  6
BYLAYER
100
AcDbCircle
 10
-0.0101184584798801
 20
0.6866284911882161
 30
0.0
 40
0.06
100
AcDbArc
 50
180.2661358824070419
 51
291.9218380813465501
  0
ARC
  5
153
100
AcDbEntity
  8
0
 62
256
370
-1
 48
1.0
  6
BYLAYER
100
AcDbCircle
 10
0.9773242056633507
 20
1.2255257909395283
 30
0.0
 40
0.9671710634973192
100
AcDbArc
 50
240.4932666527775496
 51
51.428571428571324
  0
ARC
  5
154
100
AcDbEntity
  8
0
 62
256
370
-1
 48
1.0
  6
BYLAYER
100
AcDbCircle
 10
0.0
 20
0.0
 30
0.0
 40
2.5346773847711708
100
AcDbArc
 50
51.4285714285714022
 51
71.3587627430086826
  0
ARC
  5
155
100
AcDbEntity
  8
0
 62
256
370
-1
 48
1.0
  6
BYLAYER
100
AcDbCircle
 10
-0.3488029705922813
 20
1.5282056651313169
 30
0.0
 40
1.3421710634973192
100
AcDbArc
 50
308.8375644538370466
 51
35.620642219665946
  0
ARC
  5
156
100
AcDbEntity
  8
0
 62
256
370
-1
 48
1.0
  6
BYLAYER
100
AcDbCircle
 10
0.7910092450974204
 20
2.3448523477754861
 30
0.0
 40
0.06
100
AcDbArc
 50
71.3587627430085263
 51
215.6206422196654273
  0
ARC
  5
157
100
AcDbEntity
  8
0
 62
256
370
-1
 48
1.0
  6
BYLAYER
100
AcDbCircle
 10
0.5305190154977382
 20
0.4360167913151258
 30
0.0
 40
0.06
100
AcDbArc
 50
128.8375644538356539
 51
240.4932666527751053
  0
LINE
  5
158
100
AcDbEntity
100
AcDbLine
  8
CENTER
 62
256
370
-1
 48
1.0
  6
CENTER
 10
0.1352899736479074
 20
-0.3497450829251889
 30
0.0
 11
-0.1352899736479074
 21
0.3497450829251889
 31
0.0
  0
LINE
  5
159
100
AcDbEntity
100
AcDbLine
  8
CENTER
 62
256
370
-1
 48
1.0
  6
CENTER
 10
0.349745082925196
 20
0.1352899736479074
 30
0.0
 11
-0.3497450829251889
 21
-0.1352899736479074
 31
0.0
  0
CIRCLE
  5
15A
100
AcDbEntity
100
AcDbCircle
  8
0
 62
256
370
-1
 48
1.0
  6
BYLAYER
 10
0.0
 20
0.0
 30
0.0
 40
0.25
  0
ARC
  5
15B
100
AcDbEntity
  8
0
 62
256
370
-1
 48
1.0
  6
BYLAYER
100
AcDbCircle
 10
0.6716648501898277
 20
-0.1429244455399257
 30
0.0
 40
0.06
100
AcDbArc
 50
77.408993025264266
 51
189.0646952242036321
  0
ARC
  5
15C
100
AcDbEntity
  8
0
 62
256
370
-1
 48
1.0
  6
BYLAYER
100
AcDbCircle
 10
2.3264655847241613
 20
0.8435555949620905
 30
0.0
 40
0.06
100
AcDbArc
 50
19.9301913144370424
 51
164.1920707910939825
  0
ARC
  5
15D
100
AcDbEntity
  8
0
 62
256
370
-1
 48
1.0
  6
BYLAYER
100
AcDbCircle
 10
0.0
 20
0.0
 30
0.0
 40
2.5346773847711708
100
AcDbArc
 50
0.0
 51
19.9301913144372804
  0
ARC
  5
15E
100
AcDbEntity
  8
0
 62
256
370
-1
 48
1.0
  6
BYLAYER
100
AcDbCircle
 10
0.9773242056633364
 20
1.2255257909395425
 30
0.0
 40
1.3421710634973192
100
AcDbArc
 50
257.4089930252656586
 51
344.1920707910945225
  0
ARC
  5
15F
100
AcDbEntity
  8
0
 62
256
370
-1
 48
1.0
  6
BYLAYER
100
AcDbCircle
 10
1.5675063212738394
 20
-0.0000000000000071
 30
0.0
 40
0.9671710634973192
100
AcDbArc
 50
189.0646952242061047
 51
0.0
  0
CIRCLE
  5
160
100
AcDbEntity
100
AcDbCircle
  8
DEFPOINTS
 62
21
420
16752511
370
-1
 48
1.0
  6
BYLAYER
 10
0.0
 20
0.0
 30
0.0
 40
3.5
  0
INSERT
  5
161
100
AcDbEntity
100
AcDbBlockReference
  8
0
 62
256
370
-1
 48
1.0
  6
BYLAYER
  2
TOOTH-ESCAPE
 10
0.0
 20
0.0
 30
0.0
  0
INSERT
  5
162
100
AcDbEntity
100
AcDbBlockReference
  8
0
 62
256
370
-1
 48
1.0
  6
BYLAYER
  2
TOOTH-ESCAPE
 10
0.0
 20
0.0
 30
0.0
 50
12.0000000000000373
  0
INSERT
  5
163
100
AcDbEntity
100
AcDbBlockReference
  8
0
 62
256
370
-1
 48
1.0
  6
BYLAYER
  2
TOOTH-ESCAPE
 10
0.0
 20
0.0
 30
0.0
 50
23.9999999999986358
  0
INSERT
  5
164
100
AcDbEntity
100
AcDbBlockReference
  8
0
 62
256
370
-1
 48
1.0
  6
BYLAYER
  2
TOOTH-ESCAPE
 10
0.0
 20
0.0
 30
0.0
 50
36.0000000000000284
  0
INSERT
  5
165
100
AcDbEntity
100
AcDbBlockReference
  8
0
 62
256
370
-1
 48
1.0
  6
BYLAYER
  2
TOOTH-ESCAPE
 10
0.0
 20
0.0
 30
0.0
 50
47.9999999999999858
  0
INSERT
  5
166
100
AcDbEntity
100
AcDbBlockReference
  8
0
 62
256
370
-1
 48
1.0
  6
BYLAYER
  2
TOOTH-ESCAPE
 10
0.0
 20
0.0
 30
0.0
 50
59.9999999999999432
  0
INSERT
  5
167
100
AcDbEntity
100
AcDbBlockReference
  8
0
 62
256
370
-1
 48
1.0
  6
BYLAYER
  2
TOOTH-ESCAPE
 10
0.0
 20
0.0
 30
0.0
 50
71.9999999999999858
  0
INSERT
  5
168
100
AcDbEntity
100
AcDbBlockReference
  8
0
 62
256
370
-1
 48
1.0
  6
BYLAYER
  2
TOOTH-ESCAPE
 10
0.0
 20
0.0
 30
0.0
 50
84.0000000000000284
  0
INSERT
  5
169
100
AcDbEntity
100
AcDbBlockReference
  8
0
 62
256
370
-1
 48
1.0
  6
BYLAYER
  2
TOOTH-ESCAPE
 10
-0.0000000000000142
 20
0.0
 30
0.0
 50
95.9999999999999716
  0
INSERT
  5
16A
100
AcDbEntity
100
AcDbBlockReference
  8
0
 62
256
370
-1
 48
1.0
  6
BYLAYER
  2
TOOTH-ESCAPE
 10
0.0
 20
0.0000000000000142
 30
0.0
 50
108.0000000000000142
  0
INSERT
  5
16B
100
AcDbEntity
100
AcDbBlockReference
  8
0
 62
256
370
-1
 48
1.0
  6
BYLAYER
  2
TOOTH-ESCAPE
 10
0.0
 20
0.0000000000000142
 30
0.0
 50
120.0000000000000142
  0
INSERT
  5
16C
100
AcDbEntity
100
AcDbBlockReference
  8
0
 62
256
370
-1
 48
1.0
  6
BYLAYER
  2
TOOTH-ESCAPE
 10
-0.0000000000000142
 20
0.0
 30
0.0
 50
132.0
  0
INSERT
  5
16D
100
AcDbEntity
100
AcDbBlockReference
  8
0
 62
256
370
-1
 48
1.0
  6
BYLAYER
  2
TOOTH-ESCAPE
 10
-0.0000000000000071
 20
-0.0000000000000071
 30
0.0
 50
144.0
  0
INSERT
  5
16E
100
AcDbEntity
100
AcDbBlockReference
  8
0
 62
256
370
-1
 48
1.0
  6
BYLAYER
  2
TOOTH-ESCAPE
 10
-0.0000000000000284
 20
-0.0000000000000071
 30
0.0
 50
156.0000000000013358
  0
INSERT
  5
16F
100
AcDbEntity
100
AcDbBlockReference
  8
0
 62
256
370
-1
 48
1.0
  6
BYLAYER
  2
TOOTH-ESCAPE
 10
-0.0000000000000142
 20
0.0
 30
0.0
 50
167.9999999999999716
  0
INSERT
  5
170
100
AcDbEntity
100
AcDbBlockReference
  8
0
 62
256
370
-1
 48
1.0
  6
BYLAYER
  2
TOOTH-ESCAPE
 10
0.0
 20
0.0
 30
0.0
 50
179.9999999999999716
  0
INSERT
  5
171
100
AcDbEntity
100
AcDbBlockReference
  8
0
 62
256
370
-1
 48
1.0
  6
BYLAYER
  2
TOOTH-ESCAPE
 10
0.0
 20
0.0
 30
0.0
 50
191.9999999999999432
  0
INSERT
  5
172
100
AcDbEntity
100
AcDbBlockReference
  8
0
 62
256
370
-1
 48
1.0
  6
BYLAYER
  2
TOOTH-ESCAPE
 10
0.0000000000000284
 20
0.0000000000000213
 30
0.0
 50
203.9999999999986642
  0
INSERT
  5
173
100
AcDbEntity
100
AcDbBlockReference
  8
0
 62
256
370
-1
 48
1.0
  6
BYLAYER
  2
TOOTH-ESCAPE
 10
-0.0000000000000071
 20
0.0000000000000071
 30
0.0
 50
216.0
  0
INSERT
  5
174
100
AcDbEntity
100
AcDbBlockReference
  8
0
 62
256
370
-1
 48
1.0
  6
BYLAYER
  2
TOOTH-ESCAPE
 10
-0.0000000000000142
 20
-0.0000000000000284
 30
0.0
 50
227.9999999999999147
  0
INSERT
  5
175
100
AcDbEntity
100
AcDbBlockReference
  8
0
 62
256
370
-1
 48
1.0
  6
BYLAYER
  2
TOOTH-ESCAPE
 10
0.0
 20
0.0000000000000142
 30
0.0
 50
239.9999999999999432
  0
INSERT
  5
176
100
AcDbEntity
100
AcDbBlockReference
  8
0
 62
256
370
-1
 48
1.0
  6
BYLAYER
  2
TOOTH-ESCAPE
 10
0.0
 20
0.0
 30
0.0
 50
251.9999999999999432
  0
INSERT
  5
177
100
AcDbEntity
100
AcDbBlockReference
  8
0
 62
256
370
-1
 48
1.0
  6
BYLAYER
  2
TOOTH-ESCAPE
 10
-0.0000000000000071
 20
-0.0000000000000071
 30
0.0
 50
264.0
  0
INSERT
  5
178
100
AcDbEntity
100
AcDbBlockReference
  8
0
 62
256
370
-1
 48
1.0
  6
BYLAYER
  2
TOOTH-ESCAPE
 10
-0.0000000000000071
 20
0.0000000000000142
 30
0.0
 50
276.0
  0
INSERT
  5
179
100
AcDbEntity
100
AcDbBlockReference
  8
0
 62
256
370
-1
 48
1.0
  6
BYLAYER
  2
TOOTH-ESCAPE
 10
0.0
 20
0.0000000000000142
 30
0.0
 50
288.0
  0
INSERT
  5
17A
100
AcDbEntity
100
AcDbBlockReference
  8
0
 62
256
370
-1
 48
1.0
  6
BYLAYER
  2
TOOTH-ESCAPE
 10
0.0
 20
0.0
 30
0.0
 50
300.0
  0
INSERT
  5
17B
100
AcDbEntity
100
AcDbBlockReference
  8
0
 62
256
370
-1
 48
1.0
  6
BYLAYER
  2
TOOTH-ESCAPE
 10
0.0
 20
0.0
 30
0.0
 50
312.0000000000000568
  0
INSERT
  5
17C
100
AcDbEntity
100
AcDbBlockReference
  8
0
 62
256
370
-1
 48
1.0
  6
BYLAYER
  2
TOOTH-ESCAPE
 10
0.0
 20
0.0
 30
0.0
 50
324.0000000000000568
  0
INSERT
  5
17D
100
AcDbEntity
100
AcDbBlockReference
  8
0
 62
256
370
-1
 48
1.0
  6
BYLAYER
  2
TOOTH-ESCAPE
 10
0.0
 20
0.0
 30
0.0
 50
336.0000000000014211
  0
INSERT
  5
17E
100
AcDbEntity
100
AcDbBlockReference
  8
0
 62
256
370
-1
 48
1.0
  6
BYLAYER
  2
TOOTH-ESCAPE
 10
0.0
 20
0.0
 30
0.0
 50
348.0000000000000568
  0
ENDBLK
  5
17F
100
AcDbEntity
  8
0
100
AcDbBlockEnd
  0
BLOCK
  5
180
100
AcDbEntity
  8
0
100
AcDbBlockBegin
  2
GEAR-48-RATCHET
 70
0
 10
0.0
 20
0.0
 30
0.0
  3
GEAR-48-RATCHET
  1

  0
LINE
  5
181
100
AcDbEntity
100
AcDbLine
  8
CENTER
 62
256
370
-1
 48
1.0
  6
CENTER
 10
-0.375
 20
0.0
 30
0.0
 11
0.375
 21
0.0
 31
0.0
  0
LINE
  5
182
100
AcDbEntity
100
AcDbLine
  8
CENTER
 62
256
370
-1
 48
1.0
  6
CENTER
 10
0.0
 20
-0.375
 30
0.0
 11
0.0
 21
0.375
 31
0.0
  0
INSERT
  5
183
100
AcDbEntity
100
AcDbBlockReference
  8
0
 62
256
370
-1
 48
1.0
  6
BYLAYER
  2
TOOTH-48-10DP-SMALL
 10
0.0
 20
-0.0000000000000284
 30
0.0
 50
86.3376830285948103
  0
INSERT
  5
184
100
AcDbEntity
100
AcDbBlockReference
  8
0
 62
256
370
-1
 48
1.0
  6
BYLAYER
  2
TOOTH-48-10DP-SMALL
 10
-0.0000000000000142
 20
-0.0000000000000142
 30
0.0
 50
93.8376830285948671
  0
INSERT
  5
185
100
AcDbEntity
100
AcDbBlockReference
  8
0
 62
256
370
-1
 48
1.0
  6
BYLAYER
  2
TOOTH-48-10DP-SMALL
 10
-0.0000000000000142
 20
-0.0000000000000142
 30
0.0
 50
101.337683028594796
  0
CIRCLE
  5
186
100
AcDbEntity
100
AcDbCircle
  8
0
 62
256
370
-1
 48
1.0
  6
BYLAYER
 10
0.0
 20
0.0
 30
0.0
 40
0.25
  0
CIRCLE
  5
187
100
AcDbEntity
100
AcDbCircle
  8
DEFPOINTS
 62
101
420
8388511
370
-1
 48
1.0
  6
BYLAYER
 10
-0.0000000000000142
 20
-0.0000000000000142
 30
0.0
 40
2.3499999999999837
  0
INSERT
  5
188
100
AcDbEntity
100
AcDbBlockReference
  8
0
 62
256
370
-1
 48
1.0
  6
BYLAYER
  2
TOOTH-48-10DP-SMALL
 10
-0.0000000000000142
 20
-0.0000000000000142
 30
0.0
 50
183.8376830285949666
  0
INSERT
  5
189
100
AcDbEntity
100
AcDbBlockReference
  8
0
 62
256
370
-1
 48
1.0
  6
BYLAYER
  2
TOOTH-48-10DP-SMALL
 10
-0.0000000000000142
 20
-0.0000000000000142
 30
0.0
 50
191.3376830285950234
  0
INSERT
  5
18A
100
AcDbEntity
100
AcDbBlockReference
  8
0
 62
256
370
-1
 48
1.0
  6
BYLAYER
  2
TOOTH-48-10DP-SMALL
 10
-0.0000000000000142
 20
-0.0000000000000142
 30
0.0
 50
198.8376830285949097
  0
INSERT
  5
18B
100
AcDbEntity
100
AcDbBlockReference
  8
0
 62
256
370
-1
 48
1.0
  6
BYLAYER
  2
TOOTH-48-10DP-SMALL
 10
-0.0000000000000142
 20
-0.0000000000000142
 30
0.0
 50
206.3376830285946539
  0
INSERT
  5
18C
100
AcDbEntity
100
AcDbBlockReference
  8
0
 62
256
370
-1
 48
1.0
  6
BYLAYER
  2
TOOTH-48-10DP-SMALL
 10
0.0000000000000142
 20
-0.0000000000000142
 30
0.0
 50
213.8376830285949382
  0
INSERT
  5
18D
100
AcDbEntity
100
AcDbBlockReference
  8
0
 62
256
370
-1
 48
1.0
  6
BYLAYER
  2
TOOTH-48-10DP-SMALL
 10
-0.0000000000000142
 20
-0.0000000000000142
 30
0.0
 50
221.337683028594995
  0
INSERT
  5
18E
100
AcDbEntity
100
AcDbBlockReference
  8
0
 62
256
370
-1
 48
1.0
  6
BYLAYER
  2
TOOTH-48-10DP-SMALL
 10
-0.0000000000000142
 20
0.0
 30
0.0
 50
228.8376830285950518
  0
INSERT
  5
18F
100
AcDbEntity
100
AcDbBlockReference
  8
0
 62
256
370
-1
 48
1.0
  6
BYLAYER
  2
TOOTH-48-10DP-SMALL
 10
0.0000000000000142
 20
-0.0000000000000284
 30
0.0
 50
236.3376830285949382
  0
INSERT
  5
190
100
AcDbEntity
100
AcDbBlockReference
  8
0
 62
256
370
-1
 48
1.0
  6
BYLAYER
  2
TOOTH-48-10DP-SMALL
 10
-0.0000000000000142
 20
-0.0000000000000142
 30
0.0
 50
243.837683028594995
  0
INSERT
  5
191
100
AcDbEntity
100
AcDbBlockReference
  8
0
 62
256
370
-1
 48
1.0
  6
BYLAYER
  2
TOOTH-48-10DP-SMALL
 10
-0.0000000000000142
 20
-0.0000000000000142
 30
0.0
 50
251.3376830285950518
  0
INSERT
  5
192
100
AcDbEntity
100
AcDbBlockReference
  8
0
 62
256
370
-1
 48
1.0
  6
BYLAYER
  2
TOOTH-48-10DP-SMALL
 10
-0.0000000000000142
 20
-0.0000000000000142
 30
0.0
 50
258.8376830285949382
  0
INSERT
  5
193
100
AcDbEntity
100
AcDbBlockReference
  8
0
 62
256
370
-1
 48
1.0
  6
BYLAYER
  2
TOOTH-48-10DP-SMALL
 10
0.0
 20
0.0
 30
0.0
 50
266.3376830285950518
  0
INSERT
  5
194
100
AcDbEntity
100
AcDbBlockReference
  8
0
 62
256
370
-1
 48
1.0
  6
BYLAYER
  2
TOOTH-48-10DP-SMALL
 10
-0.0000000000000142
 20
-0.0000000000000142
 30
0.0
 50
273.8376830285949382
  0
INSERT
  5
195
100
AcDbEntity
100
AcDbBlockReference
  8
0
 62
256
370
-1
 48
1.0
  6
BYLAYER
  2
TOOTH-48-10DP-SMALL
 10
-0.0000000000000142
 20
-0.0000000000000142
 30
0.0
 50
281.337683028594995
  0
INSERT
  5
196
100
AcDbEntity
100
AcDbBlockReference
  8
0
 62
256
370
-1
 48
1.0
  6
BYLAYER
  2
TOOTH-48-10DP-SMALL
 10
0.0
 20
0.0
 30
0.0
 50
288.8376830285951655
  0
INSERT
  5
197
100
AcDbEntity
100
AcDbBlockReference
  8
0
 62
256
370
-1
 48
1.0
  6
BYLAYER
  2
TOOTH-48-10DP-SMALL
 10
-0.0000000000000142
 20
-0.0000000000000142
 30
0.0
 50
296.337683028594995
  0
INSERT
  5
198
100
AcDbEntity
100
AcDbBlockReference
  8
0
 62
256
370
-1
 48
1.0
  6
BYLAYER
  2
TOOTH-48-10DP-SMALL
 10
0.0
 20
0.0
 30
0.0
 50
303.837683028594995
  0
INSERT
  5
199
100
AcDbEntity
100
AcDbBlockReference
  8
0
 62
256
370
-1
 48
1.0
  6
BYLAYER
  2
TOOTH-48-10DP-SMALL
 10
0.0000000000000142
 20
0.0
 30
0.0
 50
311.3376830285949382
  0
INSERT
  5
19A
100
AcDbEntity
100
AcDbBlockReference
  8
0
 62
256
370
-1
 48
1.0
  6
BYLAYER
  2
TOOTH-48-10DP-SMALL
 10
-0.0000000000000142
 20
-0.0000000000000142
 30
0.0
 50
318.8376830285951087
  0
INSERT
  5
19B
100
AcDbEntity
100
AcDbBlockReference
  8
0
 62
256
370
-1
 48
1.0
  6
BYLAYER
  2
TOOTH-48-10DP-SMALL
 10
0.0000000000000142
 20
-0.0000000000000142
 30
0.0
 50
326.3376830285949382
  0
INSERT
  5
19C
100
AcDbEntity
100
AcDbBlockReference
  8
0
 62
256
370
-1
 48
1.0
  6
BYLAYER
  2
TOOTH-48-10DP-SMALL
 10
0.0000000000000142
 20
-0.0000000000000142
 30
0.0
 50
333.837683028594995
  0
INSERT
  5
19D
100
AcDbEntity
100
AcDbBlockReference
  8
0
 62
256
370
-1
 48
1.0
  6
BYLAYER
  2
TOOTH-48-10DP-SMALL
 10
0.0000000000000142
 20
0.0
 30
0.0
 50
341.3376830285953361
  0
INSERT
  5
19E
100
AcDbEntity
100
AcDbBlockReference
  8
0
 62
256
370
-1
 48
1.0
  6
BYLAYER
  2
TOOTH-48-10DP-SMALL
 10
-0.0000000000000142
 20
0.0
 30
0.0
 50
26.3376830285945758
  0
INSERT
  5
19F
100
AcDbEntity
100
AcDbBlockReference
  8
0
 62
256
370
-1
 48
1.0
  6
BYLAYER
  2
TOOTH-48-10DP-SMALL
 10
0.0
 20
0.0
 30
0.0
 50
33.8376830285948955
  0
INSERT
  5
1A0
100
AcDbEntity
100
AcDbBlockReference
  8
0
 62
256
370
-1
 48
1.0
  6
BYLAYER
  2
TOOTH-48-10DP-SMALL
 10
-0.0000000000000142
 20
-0.0000000000000284
 30
0.0
 50
41.33768302859486
  0
INSERT
  5
1A1
100
AcDbEntity
100
AcDbBlockReference
  8
0
 62
256
370
-1
 48
1.0
  6
BYLAYER
  2
TOOTH-48-10DP-SMALL
 10
0.0
 20
0.0
 30
0.0
 50
48.8376830285948813
  0
INSERT
  5
1A2
100
AcDbEntity
100
AcDbBlockReference
  8
0
 62
256
370
-1
 48
1.0
  6
BYLAYER
  2
TOOTH-48-10DP-SMALL
 10
0.0
 20
0.0000000000000142
 30
0.0
 50
56.3376830285948458
  0
INSERT
  5
1A3
100
AcDbEntity
100
AcDbBlockReference
  8
0
 62
256
370
-1
 48
1.0
  6
BYLAYER
  2
TOOTH-48-10DP-SMALL
 10
-0.0000000000000142
 20
0.0000000000000142
 30
0.0
 50
63.8376830285948884
  0
INSERT
  5
1A4
100
AcDbEntity
100
AcDbBlockReference
  8
0
 62
256
370
-1
 48
1.0
  6
BYLAYER
  2
TOOTH-48-10DP-SMALL
 10
-0.0000000000000142
 20
-0.0000000000000142
 30
0.0
 50
71.3376830285948245
  0
INSERT
  5
1A5
100
AcDbEntity
100
AcDbBlockReference
  8
0
 62
256
370
-1
 48
1.0
  6
BYLAYER
  2
TOOTH-48-10DP-SMALL
 10
0.0
 20
-0.0000000000000284
 30
0.0
 50
78.8376830285948671
  0
INSERT
  5
1A6
100
AcDbEntity
100
AcDbBlockReference
  8
0
 62
256
370
-1
 48
1.0
  6
BYLAYER
  2
TOOTH-48-10DP-SMALL
 10
0.0
 20
0.0
 30
0.0
 50
108.8376830285948529
  0
INSERT
  5
1A7
100
AcDbEntity
100
AcDbBlockReference
  8
0
 62
256
370
-1
 48
1.0
  6
BYLAYER
  2
TOOTH-48-10DP-SMALL
 10
0.0
 20
-0.0000000000000142
 30
0.0
 50
116.3376830285947818
  0
INSERT
  5
1A8
100
AcDbEntity
100
AcDbBlockReference
  8
0
 62
256
370
-1
 48
1.0
  6
BYLAYER
  2
TOOTH-48-10DP-SMALL
 10
-0.0000000000000142
 20
-0.0000000000000142
 30
0.0
 50
123.8376830285948103
  0
INSERT
  5
1A9
100
AcDbEntity
100
AcDbBlockReference
  8
0
 62
256
370
-1
 48
1.0
  6
BYLAYER
  2
TOOTH-48-10DP-SMALL
 10
-0.0000000000000142
 20
-0.0000000000000284
 30
0.0
 50
131.3376830285947676
  0
INSERT
  5
1AA
100
AcDbEntity
100
AcDbBlockReference
  8
0
 62
256
370
-1
 48
1.0
  6
BYLAYER
  2
TOOTH-48-10DP-SMALL
 10
0.0
 20
-0.0000000000000142
 30
0.0
 50
138.837683028594796
  0
INSERT
  5
1AB
100
AcDbEntity
100
AcDbBlockReference
  8
0
 62
256
370
-1
 48
1.0
  6
BYLAYER
  2
TOOTH-48-10DP-SMALL
 10
-0.0000000000000142
 20
-0.0000000000000142
 30
0.0
 50
146.3376830285947676
  0
INSERT
  5
1AC
100
AcDbEntity
100
AcDbBlockReference
  8
0
 62
256
370
-1
 48
1.0
  6
BYLAYER
  2
TOOTH-48-10DP-SMALL
 10
0.0
 20
-0.0000000000000142
 30
0.0
 50
153.837683028594796
  0
INSERT
  5
1AD
100
AcDbEntity
100
AcDbBlockReference
  8
0
 62
256
370
-1
 48
1.0
  6
BYLAYER
  2
TOOTH-48-10DP-SMALL
 10
0.0
 20
-0.0000000000000142
 30
0.0
 50
161.3376830285950803
  0
INSERT
  5
1AE
100
AcDbEntity
100
AcDbBlockReference
  8
0
 62
256
370
-1
 48
1.0
  6
BYLAYER
  2
TOOTH-48-10DP-SMALL
 10
0.0
 20
0.0
 30
0.0
 50
168.8376830285947676
  0
INSERT
  5
1AF
100
AcDbEntity
100
AcDbBlockReference
  8
0
 62
256
370
-1
 48
1.0
  6
BYLAYER
  2
TOOTH-48-10DP-SMALL
 10
0.0
 20
-0.0000000000000142
 30
0.0
 50
176.3376830285947108
  0
INSERT
  5
1B0
100
AcDbEntity
100
AcDbBlockReference
  8
0
 62
256
370
-1
 48
1.0
  6
BYLAYER
  2
TOOTH-48-10DP-SMALL
 10
-0.0000000000000142
 20
-0.0000000000000284
 30
0.0
 50
348.8376830285948813
  0
INSERT
  5
1B1
100
AcDbEntity
100
AcDbBlockReference
  8
0
 62
256
370
-1
 48
1.0
  6
BYLAYER
  2
TOOTH-48-10DP-SMALL
 10
-0.0000000000000142
 20
-0.0000000000000142
 30
0.0
 50
18.8376830285949133
  0
INSERT
  5
1B2
100
AcDbEntity
100
AcDbBlockReference
  8
0
 62
256
370
-1
 48
1.0
  6
BYLAYER
  2
TOOTH-48-10DP-SMALL
 10
0.0
 20
0.0
 30
0.0
 50
356.3376830285948813
  0
INSERT
  5
1B3
100
AcDbEntity
100
AcDbBlockReference
  8
0
 62
256
370
-1
 48
1.0
  6
BYLAYER
  2
TOOTH-48-10DP-SMALL
 10
0.0
 20
-0.0000000000000142
 30
0.0
 50
3.8376830285949568
  0
INSERT
  5
1B4
100
AcDbEntity
100
AcDbBlockReference
  8
0
 62
256
370
-1
 48
1.0
  6
BYLAYER
  2
TOOTH-48-10DP-SMALL
 10
-0.0000000000000284
 20
-0.0000000000000142
 30
0.0
 50
11.3376830285949488
  0
INSERT
  5
1B5
100
AcDbEntity
100
AcDbBlockReference
  8
0
 62
256
370
-1
 48
1.0
  6
BYLAYER
  2
RATCHET-STRIKE
 10
0.0
 20
0.0
 30
0.0
  0
INSERT
  5
1B6
100
AcDbEntity
100
AcDbBlockReference
  8
0
 62
256
370
-1
 48
1.0
  6
BYLAYER
  2
RATCHET-STRIKE
 10
0.0
 20
0.0
 30
0.0
 50
180.0
  0
ARC
  5
1B7
100
AcDbEntity
  8
0
 62
256
370
-1
 48
1.0
  6
BYLAYER
100
AcDbCircle
 10
0.0
 20
0.0
 30
0.0
 40
1.981281034277302
100
AcDbArc
 50
186.8611589956659884
 51
231.3351715142979401
  0
ARC
  5
1B8
100
AcDbEntity
  8
0
 62
256
370
-1
 48
1.0
  6
BYLAYER
100
AcDbCircle
 10
0.0
 20
0.0
 30
0.0
 40
0.9390151283995465
100
AcDbArc
 50
189.7466614600149342
 51
228.4496690499483407
  0
LINE
  5
1B9
100
AcDbEntity
100
AcDbLine
  8
0
 62
256
370
-1
 48
1.0
  6
BYLAYER
 10
-1.0551990489028142
 20
-0.0553006388545754
 30
0.0
 11
-1.8495293742457761
 21
-0.0969297272229745
 31
0.0
  0
LINE
  5
1BA
100
AcDbEntity
100
AcDbLine
  8
0
 62
256
370
-1
 48
1.0
  6
BYLAYER
 10
-0.8676263457016802
 20
0.6030984311930254
 30
0.0
 11
-1.5207561207653839
 21
1.0570974881117294
 31
0.0
  0
LINE
  5
1BB
100
AcDbEntity
100
AcDbLine
  8
0
 62
256
370
-1
 48
1.0
  6
BYLAYER
 10
1.0551990489028142
 20
0.0553006388545718
 30
0.0
 11
1.8495293742457761
 21
0.0969297272229781
 31
0.0
  0
LINE
  5
1BC
100
AcDbEntity
100
AcDbLine
  8
0
 62
256
370
-1
 48
1.0
  6
BYLAYER
 10
0.8676263457016731
 20
-0.6030984311930396
 30
0.0
 11
1.5207561207653697
 21
-1.0570974881117436
 31
0.0
  0
LINE
  5
1BD
100
AcDbEntity
100
AcDbLine
  8
0
 62
256
370
-1
 48
1.0
  6
BYLAYER
 10
-0.0553006388545683
 20
1.0551990489028178
 30
0.0
 11
-0.0969297272229639
 21
1.8495293742457797
 31
0.0
  0
LINE
  5
1BE
100
AcDbEntity
100
AcDbLine
  8
0
 62
256
370
-1
 48
1.0
  6
BYLAYER
 10
0.6030984311930325
 20
0.8676263457016731
 30
0.0
 11
1.0570974881117436
 21
1.5207561207653804
 31
0.0
  0
LINE
  5
1BF
100
AcDbEntity
100
AcDbLine
  8
0
 62
256
370
-1
 48
1.0
  6
BYLAYER
 10
0.0553006388545896
 20
-1.0551990489028107
 30
0.0
 11
0.0969297272229994
 21
-1.8495293742457797
 31
0.0
  0
LINE
  5
1C0
100
AcDbEntity
100
AcDbLine
  8
0
 62
256
370
-1
 48
1.0
  6
BYLAYER
 10
-0.6030984311930396
 20
-0.8676263457016624
 30
0.0
 11
-1.0570974881117365
 21
-1.5207561207653733
 31
0.0
  0
ARC
  5
1C1
100
AcDbEntity
  8
0
 62
256
370
-1
 48
1.0
  6
BYLAYER
100
AcDbCircle
 10
0.0
 20
0.0
 30
0.0
 40
1.981281034277302
100
AcDbArc
 50
6.8611589956661918
 51
51.335171514298132
  0
ARC
  5
1C2
100
AcDbEntity
  8
0
 62
256
370
-1
 48
1.0
  6
BYLAYER
100
AcDbCircle
 10
0.0
 20
0.0
 30
0.0
 40
0.9390151283995465
100
AcDbArc
 50
9.7466614600149484
 51
48.4496690499489588
  0
ARC
  5
1C3
100
AcDbEntity
  8
0
 62
256
370
-1
 48
1.0
  6
BYLAYER
100
AcDbCircle
 10
0.0
 20
0.0
 30
0.0
 40
0.9390151283995465
100
AcDbArc
 50
99.7466614600144794
 51
138.4496690499497049
  0
ARC
  5
1C4
100
AcDbEntity
  8
0
 62
256
370
-1
 48
1.0
  6
BYLAYER
100
AcDbCircle
 10
0.0
 20
0.0
 30
0.0
 40
0.9390151283995465
100
AcDbArc
 50
279.7466614600162416
 51
318.4496690499489091
  0
ARC
  5
1C5
100
AcDbEntity
  8
0
 62
256
370
-1
 48
1.0
  6
BYLAYER
100
AcDbCircle
 10
0.0
 20
0.0
 30
0.0
 40
1.981281034277302
100
AcDbArc
 50
276.86115899566704
 51
321.3351715142977127
  0
ARC
  5
1C6
100
AcDbEntity
  8
0
 62
256
370
-1
 48
1.0
  6
BYLAYER
100
AcDbCircle
 10
0.0
 20
0.0
 30
0.0
 40
1.981281034277302
100
AcDbArc
 50
96.8611589956655763
 51
141.3351715142977696
  0
ARC
  5
1C7
100
AcDbEntity
  8
0
 62
256
370
-1
 48
1.0
  6
BYLAYER
100
AcDbCircle
 10
-1.8429873797154102
 20
-0.2217584190672959
 30
0.0
 40
0.125
100
AcDbArc
 50
92.9999999999990905
 51
186.8611589956661021
  0
ARC
  5
1C8
100
AcDbEntity
  8
0
 62
256
370
-1
 48
1.0
  6
BYLAYER
100
AcDbCircle
 10
-1.1597365701467552
 20
-1.4494103511710357
 30
0.0
 40
0.125
100
AcDbArc
 50
231.3351715142977412
 51
325.1963305099658328
  0
ARC
  5
1C9
100
AcDbEntity
  8
0
 62
256
370
-1
 48
1.0
  6
BYLAYER
100
AcDbCircle
 10
0.2217584190673278
 20
-1.8429873797154102
 30
0.0
 40
0.125
100
AcDbArc
 50
183.00000000000054
 51
276.86115899566812
  0
ARC
  5
1CA
100
AcDbEntity
  8
0
 62
256
370
-1
 48
1.0
  6
BYLAYER
100
AcDbCircle
 10
1.4494103511710321
 20
-1.1597365701467623
 30
0.0
 40
0.125
100
AcDbArc
 50
321.335171514297997
 51
55.1963305099658328
  0
ARC
  5
1CB
100
AcDbEntity
  8
0
 62
256
370
-1
 48
1.0
  6
BYLAYER
100
AcDbCircle
 10
1.8429873797154102
 20
0.221758419067303
 30
0.0
 40
0.125
100
AcDbArc
 50
272.9999999999989768
 51
6.8611589956661021
  0
ARC
  5
1CC
100
AcDbEntity
  8
0
 62
256
370
-1
 48
1.0
  6
BYLAYER
100
AcDbCircle
 10
1.1597365701467552
 20
1.4494103511710392
 30
0.0
 40
0.125
100
AcDbArc
 50
51.3351715142992617
 51
145.1963305099626211
  0
ARC
  5
1CD
100
AcDbEntity
  8
0
 62
256
370
-1
 48
1.0
  6
BYLAYER
100
AcDbCircle
 10
-0.2217584190672852
 20
1.8429873797154137
 30
0.0
 40
0.125
100
AcDbArc
 50
2.9999999999990901
 51
96.861158995664681
  0
ARC
  5
1CE
100
AcDbEntity
  8
0
 62
256
370
-1
 48
1.0
  6
BYLAYER
100
AcDbCircle
 10
-1.4494103511710321
 20
1.1597365701467623
 30
0.0
 40
0.125
100
AcDbArc
 50
141.3351715142979685
 51
235.1963305099642128
  0
ARC
  5
1CF
100
AcDbEntity
  8
0
 62
256
370
-1
 48
1.0
  6
BYLAYER
100
AcDbCircle
 10
-1.0486570543724483
 20
-0.1801293306988967
 30
0.0
 40
0.125
100
AcDbArc
 50
9.7466614600148329
 51
92.9999999999990905
  0
ARC
  5
1D0
100
AcDbEntity
  8
0
 62
256
370
-1
 48
1.0
  6
BYLAYER
100
AcDbCircle
 10
-0.7057375132280583
 20
-0.7962805761073213
 30
0.0
 40
0.125
100
AcDbArc
 50
325.1963305099645254
 51
48.4496690499498328
  0
ARC
  5
1D1
100
AcDbEntity
  8
0
 62
256
370
-1
 48
1.0
  6
BYLAYER
100
AcDbCircle
 10
0.180129330698918
 20
-1.0486570543724447
 30
0.0
 40
0.125
100
AcDbArc
 50
99.7466614600151047
 51
182.99999999999892
  0
ARC
  5
1D2
100
AcDbEntity
  8
0
 62
256
370
-1
 48
1.0
  6
BYLAYER
100
AcDbCircle
 10
0.7962805761073284
 20
-0.7057375132280548
 30
0.0
 40
0.125
100
AcDbArc
 50
55.1963305099622303
 51
138.4496690499486249
  0
ARC
  5
1D3
100
AcDbEntity
  8
0
 62
256
370
-1
 48
1.0
  6
BYLAYER
100
AcDbCircle
 10
1.0486570543724483
 20
0.1801293306988967
 30
0.0
 40
0.125
100
AcDbArc
 50
189.7466614600148205
 51
272.9999999999989768
  0
ARC
  5
1D4
100
AcDbEntity
  8
0
 62
256
370
-1
 48
1.0
  6
BYLAYER
100
AcDbCircle
 10
0.7057375132280512
 20
0.7962805761073284
 30
0.0
 40
0.125
100
AcDbArc
 50
145.1963305099631611
 51
228.449669049949847
  0
ARC
  5
1D5
100
AcDbEntity
  8
0
 62
256
370
-1
 48
1.0
  6
BYLAYER
100
AcDbCircle
 10
-0.1801293306988896
 20
1.0486570543724483
 30
0.0
 40
0.125
100
AcDbArc
 50
279.7466614600151615
 51
3.0000000000007154
  0
ARC
  5
1D6
100
AcDbEntity
  8
0
 62
256
370
-1
 48
1.0
  6
BYLAYER
100
AcDbCircle
 10
-0.7962805761073355
 20
0.7057375132280441
 30
0.0
 40
0.125
100
AcDbArc
 50
235.1963305099631327
 51
318.4496690499486249
  0
CIRCLE
  5
1D7
100
AcDbEntity
100
AcDbCircle
  8
0
 62
256
370
-1
 48
1.0
  6
BYLAYER
 10
-0.4685422926846883
 20
-1.6446306126471057
 30
0.0
 40
0.25
  0
LINE
  5
1D8
100
AcDbEntity
100
AcDbLine
  8
CENTER
 62
256
370
-1
 48
1.0
  6
CENTER
 10
-0.158542292684686
 20
-1.6446306126471057
 30
0.0
 11
-0.7785422926846906
 21
-1.6446306126471057
 31
0.0
  0
LINE
  5
1D9
100
AcDbEntity
100
AcDbLine
  8
CENTER
 62
256
370
-1
 48
1.0
  6
CENTER
 10
-0.4685422926846883
 20
-1.954630612647108
 30
0.0
 11
-0.4685422926846883
 21
-1.3346306126471035
 31
0.0
  0
CIRCLE
  5
1DA
100
AcDbEntity
100
AcDbCircle
  8
0
 62
256
370
-1
 48
1.0
  6
BYLAYER
 10
0.4685422926846883
 20
1.6446306126471057
 30
0.0
 40
0.25
  0
LINE
  5
1DB
100
AcDbEntity
100
AcDbLine
  8
CENTER
 62
256
370
-1
 48
1.0
  6
CENTER
 10
0.158542292684686
 20
1.6446306126471057
 30
0.0
 11
0.7785422926846906
 21
1.6446306126471057
 31
0.0
  0
LINE
  5
1DC
100
AcDbEntity
100
AcDbLine
  8
CENTER
 62
256
370
-1
 48
1.0
  6
CENTER
 10
0.4685422926846883
 20
1.954630612647108
 30
0.0
 11
0.4685422926846883
 21
1.3346306126471035
 31
0.0
  0
ENDBLK
  5
1DD
100
AcDbEntity
  8
0
100
AcDbBlockEnd
  0
BLOCK
  5
1DE
100
AcDbEntity
  8
0
100
AcDbBlockBegin
  2
TOOTH-ESCAPE
 70
0
 10
0.0
 20
0.0
 30
0.0
  3
TOOTH-ESCAPE
  1

  0
ARC
  5
1DF
100
AcDbEntity
  8
0
 62
256
370
-1
 48
1.0
  6
BYLAYER
100
AcDbCircle
 10
2.1845135676305318
 20
-2.7271085929111827
 30
0.0
 40
0.01
100
AcDbArc
 50
196.480357567109337
 51
288.4803575671078875
  0
ARC
  5
1E0
100
AcDbEntity
  8
0
 62
256
370
-1
 48
1.0
  6
BYLAYER
100
AcDbCircle
 10
2.4082792530677821
 20
-2.6523229328913676
 30
0.0
 40
0.01
100
AcDbArc
 50
288.4803575671078875
 51
57.4803575671079656
  0
LINE
  5
1E1
100
AcDbEntity
100
AcDbLine
  8
0
 62
256
370
-1
 48
1.0
  6
BYLAYER
 10
2.1876833629164096
 20
-2.7365929167060372
 30
0.0
 11
2.4114490483536599
 21
-2.6618072566862221
 31
0.0
  0
LINE
  5
1E2
100
AcDbEntity
100
AcDbLine
  8
0
 62
256
370
-1
 48
1.0
  6
BYLAYER
 10
2.0632604123782912
 20
-2.3524990421642542
 30
0.0
 11
2.1749243971693488
 21
-2.7299454591164114
 31
0.0
  0
LINE
  5
1E3
100
AcDbEntity
100
AcDbLine
  8
0
 62
256
370
-1
 48
1.0
  6
BYLAYER
 10
2.4136551401932493
 20
-2.6438908609268825
 30
0.0
 11
2.2397932254065722
 21
-2.5330447921021353
 31
0.0
  0
ARC
  5
1E4
100
AcDbEntity
  8
0
 62
256
370
-1
 48
1.0
  6
BYLAYER
100
AcDbCircle
 10
2.005725389611186
 20
-2.3695202393956301
 30
0.0
 40
0.06
100
AcDbArc
 50
16.4803575671086904
 51
135.0422493827832682
  0
ARC
  5
1E5
100
AcDbEntity
  8
0
 62
256
370
-1
 48
1.0
  6
BYLAYER
100
AcDbCircle
 10
3.4092672300162263
 20
-2.5197292898175547
 30
0.0
 40
1.1978294686980469
100
AcDbArc
 50
147.0422493827842629
 51
178.122571929926238
  0
ARC
  5
1E6
100
AcDbEntity
  8
0
 62
256
370
-1
 48
1.0
  6
BYLAYER
100
AcDbCircle
 10
2.2720485481593613
 20
-2.4824523603152322
 30
0.0
 40
0.06
100
AcDbArc
 50
178.1225719299264654
 51
237.4803575671061822
  0
ENDBLK
  5
1E7
100
AcDbEntity
  8
0
100
AcDbBlockEnd
  0
BLOCK
  5
1E8
100
AcDbEntity
  8
0
100
AcDbBlockBegin
  2
GEAR-16
 70
0
 10
0.0
 20
0.0
 30
0.0
  3
GEAR-16
  1

  0
LINE
  5
1E9
100
AcDbEntity
100
AcDbLine
  8
CENTER
 62
256
370
-1
 48
1.0
  6
CENTER
 10
-0.375
 20
0.0
 30
0.0
 11
0.375
 21
0.0
 31
0.0
  0
LINE
  5
1EA
100
AcDbEntity
100
AcDbLine
  8
CENTER
 62
256
370
-1
 48
1.0
  6
CENTER
 10
0.0
 20
-0.375
 30
0.0
 11
0.0
 21
0.375
 31
0.0
  0
CIRCLE
  5
1EB
100
AcDbEntity
100
AcDbCircle
  8
0
 62
256
370
-1
 48
1.0
  6
BYLAYER
 10
0.0
 20
0.0
 30
0.0
 40
0.25
  0
INSERT
  5
1EC
100
AcDbEntity
100
AcDbBlockReference
  8
0
 62
256
370
-1
 48
1.0
  6
BYLAYER
  2
TOOTH-16-10DP
 10
-0.0000000000000142
 20
-0.0000000000000142
 30
0.0
 50
112.5000000000003979
  0
INSERT
  5
1ED
100
AcDbEntity
100
AcDbBlockReference
  8
0
 62
256
370
-1
 48
1.0
  6
BYLAYER
  2
TOOTH-16-10DP
 10
-0.0000000000000142
 20
0.0
 30
0.0
 50
90.0000000000000853
  0
INSERT
  5
1EE
100
AcDbEntity
100
AcDbBlockReference
  8
0
 62
256
370
-1
 48
1.0
  6
BYLAYER
  2
TOOTH-16-10DP
 10
-0.0000000000000142
 20
-0.0000000000000142
 30
0.0
 50
67.5000000000000853
  0
INSERT
  5
1EF
100
AcDbEntity
100
AcDbBlockReference
  8
0
 62
256
370
-1
 48
1.0
  6
BYLAYER
  2
TOOTH-16-10DP
 10
-0.0000000000000071
 20
0.0
 30
0.0
 50
45.0000000000000782
  0
INSERT
  5
1F0
100
AcDbEntity
100
AcDbBlockReference
  8
0
 62
256
370
-1
 48
1.0
  6
BYLAYER
  2
TOOTH-16-10DP
 10
-0.0000000000000142
 20
0.0
 30
0.0
 50
22.5
  0
INSERT
  5
1F1
100
AcDbEntity
100
AcDbBlockReference
  8
0
 62
256
370
-1
 48
1.0
  6
BYLAYER
  2
TOOTH-16-10DP
 10
0.0000000000000071
 20
-0.0000000000000213
 30
0.0
  0
INSERT
  5
1F2
100
AcDbEntity
100
AcDbBlockReference
  8
0
 62
256
370
-1
 48
1.0
  6
BYLAYER
  2
TOOTH-16-10DP
 10
0.0000000000000071
 20
-0.0000000000000213
 30
0.0
 50
337.4999999999996589
  0
INSERT
  5
1F3
100
AcDbEntity
100
AcDbBlockReference
  8
0
 62
256
370
-1
 48
1.0
  6
BYLAYER
  2
TOOTH-16-10DP
 10
-0.0000000000000071
 20
0.0
 30
0.0
 50
315.0000000000000568
  0
INSERT
  5
1F4
100
AcDbEntity
100
AcDbBlockReference
  8
0
 62
256
370
-1
 48
1.0
  6
BYLAYER
  2
TOOTH-16-10DP
 10
-0.0000000000000071
 20
-0.0000000000000355
 30
0.0
 50
292.5000000000003411
  0
INSERT
  5
1F5
100
AcDbEntity
100
AcDbBlockReference
  8
0
 62
256
370
-1
 48
1.0
  6
BYLAYER
  2
TOOTH-16-10DP
 10
-0.0000000000000142
 20
-0.0000000000000142
 30
0.0
 50
270.0
  0
INSERT
  5
1F6
100
AcDbEntity
100
AcDbBlockReference
  8
0
 62
256
370
-1
 48
1.0
  6
BYLAYER
  2
TOOTH-16-10DP
 10
-0.0000000000000213
 20
0.0000000000000142
 30
0.0
 50
247.4999999999999716
  0
INSERT
  5
1F7
100
AcDbEntity
100
AcDbBlockReference
  8
0
 62
256
370
-1
 48
1.0
  6
BYLAYER
  2
TOOTH-16-10DP
 10
-0.0000000000000071
 20
0.0
 30
0.0
 50
225.0000000000000284
  0
INSERT
  5
1F8
100
AcDbEntity
100
AcDbBlockReference
  8
0
 62
256
370
-1
 48
1.0
  6
BYLAYER
  2
TOOTH-16-10DP
 10
-0.0000000000000142
 20
-0.0000000000000142
 30
0.0
 50
202.5000000000000284
  0
INSERT
  5
1F9
100
AcDbEntity
100
AcDbBlockReference
  8
0
 62
256
370
-1
 48
1.0
  6
BYLAYER
  2
TOOTH-16-10DP
 10
-0.0000000000000071
 20
-0.0000000000000071
 30
0.0
 50
180.0
  0
INSERT
  5
1FA
100
AcDbEntity
100
AcDbBlockReference
  8
0
 62
256
370
-1
 48
1.0
  6
BYLAYER
  2
TOOTH-16-10DP
 10
-0.0000000000000142
 20
-0.0000000000000142
 30
0.0
 50
157.4999999999996589
  0
INSERT
  5
1FB
100
AcDbEntity
100
AcDbBlockReference
  8
0
 62
256
370
-1
 48
1.0
  6
BYLAYER
  2
TOOTH-16-10DP
 10
-0.0000000000000071
 20
0.0
 30
0.0
 50
134.9999999999998863
  0
CIRCLE
  5
1FC
100
AcDbEntity
100
AcDbCircle
  8
DEFPOINTS
 62
212
420
13369497
370
-1
 48
1.0
  6
BYLAYER
 10
-0.0000000000000071
 20
0.0
 30
0.0
 40
0.8
  0
ENDBLK
  5
1FD
100
AcDbEntity
  8
0
100
AcDbBlockEnd
  0
BLOCK
  5
1FE
100
AcDbEntity
  8
0
100
AcDbBlockBegin
  2
TOOTH-16-10DP
 70
0
 10
0.0
 20
0.0
 30
0.0
  3
TOOTH-16-10DP
  1

  0
LINE
  5
1FF
100
AcDbEntity
100
AcDbLine
  8
0
 62
256
370
-1
 48
1.0
  6
BYLAYER
 10
0.0521570256596391
 20
0.8158419904172849
 30
0.0
 11
0.0507375588953849
 21
0.8219713554956591
 31
0.0
  0
LINE
  5
200
100
AcDbEntity
100
AcDbLine
  8
0
 62
256
370
-1
 48
1.0
  6
BYLAYER
 10
0.0507375588953849
 20
0.8219713554956591
 30
0.0
 11
0.0493149934379744
 21
0.8291420562726604
 31
0.0
  0
LINE
  5
201
100
AcDbEntity
100
AcDbLine
  8
0
 62
256
370
-1
 48
1.0
  6
BYLAYER
 10
0.0493149934379744
 20
0.8291420562726604
 30
0.0
 11
0.0474204817613142
 21
0.8372077197903085
 31
0.0
  0
LINE
  5
202
100
AcDbEntity
100
AcDbLine
  8
0
 62
256
370
-1
 48
1.0
  6
BYLAYER
 10
0.0474204817613142
 20
0.8372077197903085
 30
0.0
 11
0.0449900943439445
 21
0.8461429848886706
 31
0.0
  0
LINE
  5
203
100
AcDbEntity
100
AcDbLine
  8
0
 62
256
370
-1
 48
1.0
  6
BYLAYER
 10
0.0449900943439445
 20
0.8461429848886706
 30
0.0
 11
0.0419611370390385
 21
0.8559191287332606
 31
0.0
  0
LINE
  5
204
100
AcDbEntity
100
AcDbLine
  8
0
 62
256
370
-1
 48
1.0
  6
BYLAYER
 10
-0.0419611370390172
 20
0.8559191287332588
 30
0.0
 11
-0.0395718158739342
 21
0.8627752199415166
 31
0.0
  0
LINE
  5
205
100
AcDbEntity
100
AcDbLine
  8
0
 62
256
370
-1
 48
1.0
  6
BYLAYER
 10
-0.0449900943439374
 20
0.8461429848886652
 30
0.0
 11
-0.0419611370390172
 21
0.8559191287332588
 31
0.0
  0
LINE
  5
206
100
AcDbEntity
100
AcDbLine
  8
0
 62
256
370
-1
 48
1.0
  6
BYLAYER
 10
-0.0474204817613213
 20
0.8372077197903103
 30
0.0
 11
-0.0449900943439374
 21
0.8461429848886652
 31
0.0
  0
LINE
  5
207
100
AcDbEntity
100
AcDbLine
  8
0
 62
256
370
-1
 48
1.0
  6
BYLAYER
 10
-0.0493149934379602
 20
0.8291420562726746
 30
0.0
 11
-0.0474204817613213
 21
0.8372077197903103
 31
0.0
  0
LINE
  5
208
100
AcDbEntity
100
AcDbLine
  8
0
 62
256
370
-1
 48
1.0
  6
BYLAYER
 10
-0.0507375588953849
 20
0.8219713554956591
 30
0.0
 11
-0.0493149934379602
 21
0.8291420562726746
 31
0.0
  0
LINE
  5
209
100
AcDbEntity
100
AcDbLine
  8
0
 62
256
370
-1
 48
1.0
  6
BYLAYER
 10
-0.052157025659632
 20
0.8158419904172955
 30
0.0
 11
-0.0507375588953849
 21
0.8219713554956591
 31
0.0
  0
ARC
  5
20A
100
AcDbEntity
  8
0
 62
256
370
-1
 48
1.0
  6
BYLAYER
100
AcDbCircle
 10
0.0
 20
0.0
 30
0.0
 40
0.675
100
AcDbArc
 50
76.7239843406116364
 51
80.9760156593885512
  0
ARC
  5
20B
100
AcDbEntity
  8
0
 62
256
370
-1
 48
1.0
  6
BYLAYER
100
AcDbCircle
 10
0.1121462508621889
 20
0.7061502803352253
 30
0.0
 40
0.04
100
AcDbArc
 50
188.8178093661304899
 51
260.9760156593915212
  0
ARC
  5
20C
100
AcDbEntity
  8
0
 62
256
370
-1
 48
1.0
  6
BYLAYER
100
AcDbCircle
 10
-0.1121462508621249
 20
0.7061502803352289
 30
0.0
 40
0.04
100
AcDbArc
 50
279.0239843406072282
 51
351.1821906338681742
  0
LINE
  5
20D
100
AcDbEntity
100
AcDbLine
  8
0
 62
256
370
-1
 48
1.0
  6
BYLAYER
 10
-0.0521570256594259
 20
0.8158419904178853
 30
0.0
 11
-0.0726190196300465
 21
0.7000185602564883
 31
0.0
  0
LINE
  5
20E
100
AcDbEntity
100
AcDbLine
  8
0
 62
256
370
-1
 48
1.0
  6
BYLAYER
 10
0.0521570256595467
 20
0.8158419904177201
 30
0.0
 11
0.0726190196300607
 21
0.7000185602564883
 31
0.0
  0
ARC
  5
20F
100
AcDbEntity
  8
0
 62
256
370
-1
 48
1.0
  6
BYLAYER
100
AcDbCircle
 10
-0.0157702490960148
 20
0.8395964398860576
 30
0.0
 40
0.06
100
AcDbArc
 50
15.591135279446906
 51
56.5164220158141148
  0
ARC
  5
210
100
AcDbEntity
  8
0
 62
256
370
-1
 48
1.0
  6
BYLAYER
100
AcDbCircle
 10
0.0157702490960503
 20
0.8395964398860594
 30
0.0
 40
0.06
100
AcDbArc
 50
123.4835779842045014
 51
157.2747228184639994
  0
LINE
  5
211
100
AcDbEntity
100
AcDbLine
  8
0
 62
256
370
-1
 48
1.0
  6
BYLAYER
 10
-0.0007806895765725
 20
0.8946177593767821
 30
0.0
 11
0.0007806895765796
 21
0.8946177593767857
 31
0.0
  0
ARC
  5
212
100
AcDbEntity
  8
0
 62
256
370
-1
 48
1.0
  6
BYLAYER
100
AcDbCircle
 10
0.0007806895765867
 20
0.8646177593767836
 30
0.0
 40
0.03
100
AcDbArc
 50
56.5164220158123598
 51
89.999999999991914
  0
ARC
  5
213
100
AcDbEntity
  8
0
 62
256
370
-1
 48
1.0
  6
BYLAYER
100
AcDbCircle
 10
-0.0007806895765583
 20
0.8646177593767854
 30
0.0
 40
0.03
100
AcDbArc
 50
90.0000000000052012
 51
123.4835779842071446
  0
ENDBLK
  5
214
100
AcDbEntity
  8
0
100
AcDbBlockEnd
  0
ENDSEC
  0
SECTION
  2
ENTITIES
  0
INSERT
  5
215
100
AcDbEntity
100
AcDbBlockReference
  8
GEAR-64
 62
256
370
5
 48
1.0
  6
BYLAYER
  2
GEAR-64
 10
35.0
 20
23.8194124460732333
 30
0.0
 41
2.0
 42
2.0
 43
1.0
 50
88.0123830285951811
  0
INSERT
  5
216
100
AcDbEntity
100
AcDbBlockReference
  8
GEAR-ESCAPE-TIC
 62
256
370
5
 48
1.0
  6
BYLAYER
  2
GEAR-ESCAPE
 10
19.0000000000000284
 20
24.1805875539267738
 30
0.0
 41
2.0
 42
2.0
 43
1.0
 50
137.4844164790350192
  0
INSERT
  5
217
100
AcDbEntity
100
AcDbBlockReference
  8
GEAR-48-RATCHET
 62
256
370
0
 48
1.0
  6
BYLAYER
  2
GEAR-RATCHET
 10
7.0
 20
22.0
 30
0.0
 41
6.0
 42
6.0
 43
1.0
  0
INSERT
  5
218
100
AcDbEntity
100
AcDbBlockReference
  8
GEAR-48-RATCHET
 62
256
370
-1
 48
1.0
  6
BYLAYER
  2
GEAR-RATCHET
 10
43.0
 20
18.1805875539267738
 30
0.0
 41
2.0
 42
2.0
 43
1.0
  0
INSERT
  5
219
100
AcDbEntity
100
AcDbBlockReference
  8
GEAR-48-RATCHET
 62
256
370
5
 48
1.0
  6
BYLAYER
  2
GEAR-48-RATCHET
 10
49.0
 20
24.1805875539267312
 30
0.0
 41
2.0
 42
2.0
 43
1.0
 50
90.0
  0
INSERT
  5
21A
100
AcDbEntity
100
AcDbBlockReference
  8
GEAR-16
 62
256
370
-1
 48
1.0
  6
BYLAYER
  2
GEAR-16
 10
30.9181851750380474
 20
20.7745471161473532
 30
0.0
  0
ENDSEC
  0
SECTION
  2
OBJECTS
  0
DICTIONARY
  5
C
100
AcDbDictionary
280
0
281
1
  3
ACAD_GROUP
350
D
  3
ACAD_LAYOUT
350
1A
  3
ACAD_MLINESTYLE
350
17
  3
ACAD_PLOTSETTINGS
350
19
  3
ACAD_PLOTSTYLENAME
350
E
  3
AcDbVariableDictionary
350
21B
  3
QCAD_OBJECTS
350
21C
  0
DICTIONARY
  5
D
100
AcDbDictionary
280
0
281
1
  0
ACDBDICTIONARYWDFLT
  5
E
100
AcDbDictionary
281
1
  3
Normal
350
F
100
AcDbDictionaryWithDefault
340
F
  0
ACDBPLACEHOLDER
  5
F
  0
DICTIONARY
  5
17
100
AcDbDictionary
280
0
281
1
  3
Standard
350
18
  0
MLINESTYLE
  5
18
100
AcDbMlineStyle
  2
STANDARD
 70
0
  3

 62
256
 51
90.0
 52
90.0
 71
2
 49
0.5
 62
256
  6
BYLAYER
 49
-0.5
 62
256
  6
BYLAYER
  0
DICTIONARY
  5
19
100
AcDbDictionary
280
0
281
1
  0
DICTIONARY
  5
1A
100
AcDbDictionary
281
1
  3
Layout1
350
1E
  3
Layout2
350
26
  3
Model
350
22
  0
LAYOUT
  5
1E
100
AcDbPlotSettings
  1

  2
none_device
  4

  6

 40
0.0
 41
0.0
 42
0.0
 43
0.0
 44
0.0
 45
0.0
 46
0.0
 47
0.0
 48
0.0
 49
0.0
140
0.0
141
0.0
142
1.0
143
1.0
 70
688
 72
0
 73
0
 74
5
  7

 75
16
147
1.0
148
0.0
149
0.0
100
AcDbLayout
  1
Layout1
 70
1
 71
1
 10
0.0
 20
0.0
 11
420.0
 21
297.0
 12
0.0
 22
0.0
 32
0.0
 14
100000000000000000000.0
 24
100000000000000000000.0
 34
100000000000000000000.0
 15
-100000000000000000000.0
 25
-100000000000000000000.0
 35
-100000000000000000000.0
146
0.0
 13
0.0
 23
0.0
 33
0.0
 16
1.0
 26
0.0
 36
0.0
 17
0.0
 27
1.0
 37
0.0
 76
0
330
1B
  0
LAYOUT
  5
22
100
AcDbPlotSettings
  1

  2
none_device
  4

  6

 40
0.0
 41
0.0
 42
0.0
 43
0.0
 44
0.0
 45
0.0
 46
0.0
 47
0.0
 48
0.0
 49
0.0
140
0.0
141
0.0
142
1.0
143
1.0
 70
1712
 72
0
 73
0
 74
0
  7

 75
0
147
1.0
148
0.0
149
0.0
100
AcDbLayout
  1
Model
 70
1
 71
0
 10
0.0
 20
0.0
 11
12.0
 21
9.0
 12
0.0
 22
0.0
 32
0.0
 14
0.0
 24
0.0
 34
0.0
 15
0.0
 25
0.0
 35
0.0
146
0.0
 13
0.0
 23
0.0
 33
0.0
 16
1.0
 26
0.0
 36
0.0
 17
0.0
 27
1.0
 37
0.0
 76
0
330
1F
  0
LAYOUT
  5
26
100
AcDbPlotSettings
  1

  2
none_device
  4

  6

 40
0.0
 41
0.0
 42
0.0
 43
0.0
 44
0.0
 45
0.0
 46
0.0
 47
0.0
 48
0.0
 49
0.0
140
0.0
141
0.0
142
1.0
143
1.0
 70
688
 72
0
 73
0
 74
5
  7

 75
16
147
1.0
148
0.0
149
0.0
100
AcDbLayout
  1
Layout2
 70
1
 71
2
 10
0.0
 20
0.0
 11
12.0
 21
9.0
 12
0.0
 22
0.0
 32
0.0
 14
0.0
 24
0.0
 34
0.0
 15
0.0
 25
0.0
 35
0.0
146
0.0
 13
0.0
 23
0.0
 33
0.0
 16
1.0
 26
0.0
 36
0.0
 17
0.0
 27
1.0
 37
0.0
 76
0
330
23
  0
DICTIONARY
  5
21B
100
AcDbDictionary
281
1
  3
DIMASSOC
350
21E
  3
HIDETEXT
350
21D
  0
DICTIONARYVAR
  5
21D
100
DictionaryVariables
280
0
  1
2
  0
DICTIONARYVAR
  5
21E
100
DictionaryVariables
280
0
  1
1
  0
DICTIONARY
  5
21C
100
AcDbDictionary
281
1
  3
ColorSettings/BackgroundColor
350
21F
  3
ColorSettings/ColorMode
350
220
  3
Grid/DisplayGrid00
350
221
  3
Grid/DisplayGrid01
350
222
  3
Grid/DisplayGrid02
350
223
  3
Grid/DisplayGrid03
350
224
  3
Grid/GridSpacingX00
350
225
  3
Grid/GridSpacingX01
350
226
  3
Grid/GridSpacingX02
350
227
  3
Grid/GridSpacingX03
350
228
  3
Grid/GridSpacingY00
350
229
  3
Grid/GridSpacingY01
350
22A
  3
Grid/GridSpacingY02
350
22B
  3
Grid/GridSpacingY03
350
22C
  3
Grid/IsometricGrid00
350
22D
  3
Grid/IsometricGrid01
350
22E
  3
Grid/IsometricGrid02
350
22F
  3
Grid/IsometricGrid03
350
230
  3
Grid/IsometricProjection00
350
231
  3
Grid/IsometricProjection01
350
232
  3
Grid/IsometricProjection02
350
233
  3
Grid/IsometricProjection03
350
234
  3
Grid/MetaGridSpacingX00
350
235
  3
Grid/MetaGridSpacingX01
350
236
  3
Grid/MetaGridSpacingX02
350
237
  3
Grid/MetaGridSpacingX03
350
238
  3
Grid/MetaGridSpacingY00
350
239
  3
Grid/MetaGridSpacingY01
350
23A
  3
Grid/MetaGridSpacingY02
350
23B
  3
Grid/MetaGridSpacingY03
350
23C
  3
MultiPageSettings/Columns
350
23D
  3
MultiPageSettings/GlueMarginsBottom
350
23E
  3
MultiPageSettings/GlueMarginsLeft
350
23F
  3
MultiPageSettings/GlueMarginsRight
350
240
  3
MultiPageSettings/GlueMarginsTop
350
241
  3
MultiPageSettings/PrintCropMarks
350
242
  3
MultiPageSettings/Rows
350
243
  3
PageSettings/OffsetX
350
244
  3
PageSettings/OffsetY
350
245
  3
PageSettings/PageOrientation
350
246
  3
PageSettings/PaperHeight
350
247
  3
PageSettings/PaperWidth
350
248
  3
PageSettings/Scale
350
249
  3
PageSettings/ShowPaperBorders
350
24A
  3
UnitSettings/PaperUnit
350
24B
  3
ViewportCenter
350
24C
  3
ViewportHeight
350
24D
  3
ViewportWidth
350
24E
  0
XRECORD
  5
21F
330
21C
100
AcDbXrecord
280
1
1000
White
  0
XRECORD
  5
220
330
21C
100
AcDbXrecord
280
1
1000
FullColor
  0
XRECORD
  5
221
330
21C
100
AcDbXrecord
280
1
290
1
  0
XRECORD
  5
222
330
21C
100
AcDbXrecord
280
1
290
1
  0
XRECORD
  5
223
330
21C
100
AcDbXrecord
280
1
290
1
  0
XRECORD
  5
224
330
21C
100
AcDbXrecord
280
1
290
1
  0
XRECORD
  5
225
330
21C
100
AcDbXrecord
280
1
1000
auto
  0
XRECORD
  5
226
330
21C
100
AcDbXrecord
280
1
1000
auto
  0
XRECORD
  5
227
330
21C
100
AcDbXrecord
280
1
1000
auto
  0
XRECORD
  5
228
330
21C
100
AcDbXrecord
280
1
1000
auto
  0
XRECORD
  5
229
330
21C
100
AcDbXrecord
280
1
1000
auto
  0
XRECORD
  5
22A
330
21C
100
AcDbXrecord
280
1
1000
auto
  0
XRECORD
  5
22B
330
21C
100
AcDbXrecord
280
1
1000
auto
  0
XRECORD
  5
22C
330
21C
100
AcDbXrecord
280
1
1000
auto
  0
XRECORD
  5
22D
330
21C
100
AcDbXrecord
280
1
290
0
  0
XRECORD
  5
22E
330
21C
100
AcDbXrecord
280
1
290
0
  0
XRECORD
  5
22F
330
21C
100
AcDbXrecord
280
1
290
0
  0
XRECORD
  5
230
330
21C
100
AcDbXrecord
280
1
290
0
  0
XRECORD
  5
231
330
21C
100
AcDbXrecord
280
1
 90
0
  0
XRECORD
  5
232
330
21C
100
AcDbXrecord
280
1
 90
0
  0
XRECORD
  5
233
330
21C
100
AcDbXrecord
280
1
 90
0
  0
XRECORD
  5
234
330
21C
100
AcDbXrecord
280
1
 90
0
  0
XRECORD
  5
235
330
21C
100
AcDbXrecord
280
1
1000
auto
  0
XRECORD
  5
236
330
21C
100
AcDbXrecord
280
1
1000
auto
  0
XRECORD
  5
237
330
21C
100
AcDbXrecord
280
1
1000
auto
  0
XRECORD
  5
238
330
21C
100
AcDbXrecord
280
1
1000
auto
  0
XRECORD
  5
239
330
21C
100
AcDbXrecord
280
1
1000
auto
  0
XRECORD
  5
23A
330
21C
100
AcDbXrecord
280
1
1000
auto
  0
XRECORD
  5
23B
330
21C
100
AcDbXrecord
280
1
1000
auto
  0
XRECORD
  5
23C
330
21C
100
AcDbXrecord
280
1
1000
auto
  0
XRECORD
  5
23D
330
21C
100
AcDbXrecord
280
1
 90
1
  0
XRECORD
  5
23E
330
21C
100
AcDbXrecord
280
1
 40
10.0
  0
XRECORD
  5
23F
330
21C
100
AcDbXrecord
280
1
 40
10.0
  0
XRECORD
  5
240
330
21C
100
AcDbXrecord
280
1
 40
10.0
  0
XRECORD
  5
241
330
21C
100
AcDbXrecord
280
1
 40
10.0
  0
XRECORD
  5
242
330
21C
100
AcDbXrecord
280
1
290
0
  0
XRECORD
  5
243
330
21C
100
AcDbXrecord
280
1
 90
1
  0
XRECORD
  5
244
330
21C
100
AcDbXrecord
280
1
 40
0.0
  0
XRECORD
  5
245
330
21C
100
AcDbXrecord
280
1
 40
0.0
  0
XRECORD
  5
246
330
21C
100
AcDbXrecord
280
1
1000
Portrait
  0
XRECORD
  5
247
330
21C
100
AcDbXrecord
280
1
 40
297.0
  0
XRECORD
  5
248
330
21C
100
AcDbXrecord
280
1
 40
210.0
  0
XRECORD
  5
249
330
21C
100
AcDbXrecord
280
1
1000
1:1
  0
XRECORD
  5
24A
330
21C
100
AcDbXrecord
280
1
290
1
  0
XRECORD
  5
24B
330
21C
100
AcDbXrecord
280
1
 90
4
  0
XRECORD
  5
24D
330
21C
100
AcDbXrecord
280
1
 40
34.3255890500625185
  0
XRECORD
  5
24E
330
21C
100
AcDbXrecord
280
1
 40
80.5565089858429104
  0
ENDSEC
  0
EOF
