999
dxflib 3.12.2.0
  0
SECTION
  2
HEADER
  9
$ACADVER
  1
AC1015
  9
$HANDSEED
  5
FFFF
  9
$DIMADEC
 70
0
  9
$DIMASZ
 40
2.5
  9
$DIMAUNIT
 70
0
  9
$DIMAZIN
 70
2
  9
$DIMDEC
 70
4
  9
$DIMEXE
 40
1.25
  9
$DIMEXO
 40
0.625
  9
$DIMGAP
 40
0.625
  9
$DIMLUNIT
 70
2
  9
$DIMSCALE
 40
1.0
  9
$DIMTSZ
 40
0.0
  9
$DIMTXT
 40
2.5
  9
$DIMZIN
 70
8
  9
$DWGCODEPAGE
  3
ANSI_1252
  9
$INSUNITS
 70
4
  9
$LTSCALE
 40
1.0
  9
$MEASUREMENT
 70
1
  9
$PDMODE
 70
0
  9
$PDSIZE
 40
0
  0
ENDSEC
  0
SECTION
  2
TABLES
  0
TABLE
  2
VPORT
  5
8
100
AcDbSymbolTable
 70
1
  0
VPORT
  5
30
100
AcDbSymbolTableRecord
100
AcDbViewportTableRecord
  2
*Active
 70
0
 10
0.0
 20
0.0
 11
1.0
 21
1.0
 12
286.3055555555554861
 22
148.5
 13
0.0
 23
0.0
 14
10.0
 24
10.0
 15
10.0
 25
10.0
 16
0.0
 26
0.0
 36
1.0
 17
0.0
 27
0.0
 37
0.0
 40
297.0
 41
1.92798353909465
 42
50.0
 43
0.0
 44
0.0
 50
0.0
 51
0.0
 71
0
 72
100
 73
1
 74
3
 75
1
 76
1
 77
0
 78
0
281
0
 65
1
110
0.0
120
0.0
130
0.0
111
1.0
121
0.0
131
0.0
112
0.0
122
1.0
132
0.0
 79
0
146
0.0
  0
ENDTAB
  0
TABLE
  2
LTYPE
  5
5
100
AcDbSymbolTable
 70
54
  0
LTYPE
  5
16
100
AcDbSymbolTableRecord
100
AcDbLinetypeTableRecord
  2
Continuous
 70
0
  3
Solid line
 72
65
 73
0
 40
0.0
  0
LTYPE
  5
31
100
AcDbSymbolTableRecord
100
AcDbLinetypeTableRecord
  2
ACAD_ISO15W100
 70
0
  3
ISO double-dash triple-dot __ __ . . . __ __ . .
 72
65
 73
10
 40
39.0
 49
12.0
 74
0
 49
-3.0
 74
0
 49
12.0
 74
0
 49
-3.0
 74
0
 49
0.0
 74
0
 49
-3.0
 74
0
 49
0.0
 74
0
 49
-3.0
 74
0
 49
0.0
 74
0
 49
-3.0
 74
0
  0
LTYPE
  5
32
100
AcDbSymbolTableRecord
100
AcDbLinetypeTableRecord
  2
CUTRIGHT2
 70
0
  3
G42 reversed----\----\----\----
 72
65
 73
2
 40
10.1600000000000001
 49
5.0800000000000001
 74
0
 49
5.0800000000000001
 74
0
  0
LTYPE
  5
33
100
AcDbSymbolTableRecord
100
AcDbLinetypeTableRecord
  2
HOT_WATER_SUPPLY
 70
0
  3
Hot water supply ---- HW ---- HW ---- HW ----
 72
65
 73
3
 40
22.8599999999999994
 49
12.6999999999999993
 74
0
 49
-5.0800000000000001
 74
0
 49
-5.0800000000000001
 74
0
  0
LTYPE
  5
34
100
AcDbSymbolTableRecord
100
AcDbLinetypeTableRecord
  2
DIVIDE
 70
0
  3
Divide ____ . . ____ . . ____ . . ____ . . ____
 72
65
 73
6
 40
31.75
 49
12.6999999999999993
 74
0
 49
-6.3499999999999996
 74
0
 49
0.0
 74
0
 49
-6.3499999999999996
 74
0
 49
0.0
 74
0
 49
-6.3499999999999996
 74
0
  0
LTYPE
  5
35
100
AcDbSymbolTableRecord
100
AcDbLinetypeTableRecord
  2
CUTRIGHT
 70
0
  3
G42 ----/----/-----/---
 72
65
 73
2
 40
10.1600000000000001
 49
5.0800000000000001
 74
0
 49
5.0800000000000001
 74
0
  0
LTYPE
  5
36
100
AcDbSymbolTableRecord
100
AcDbLinetypeTableRecord
  2
ACAD_ISO10W100
 70
0
  3
ISO dash dot __ . __ . __ . __ . __ . __ . __ . 
 72
65
 73
4
 40
18.0
 49
12.0
 74
0
 49
-3.0
 74
0
 49
0.0
 74
0
 49
-3.0
 74
0
  0
LTYPE
  5
37
100
AcDbSymbolTableRecord
100
AcDbLinetypeTableRecord
  2
CUTLEFT
 70
0
  3
G41 ----\----\----\----
 72
65
 73
2
 40
10.1600000000000001
 49
5.0800000000000001
 74
0
 49
5.0800000000000001
 74
0
  0
LTYPE
  5
38
100
AcDbSymbolTableRecord
100
AcDbLinetypeTableRecord
  2
GAS_LINE
 70
0
  3
Gas line ----GAS----GAS----GAS----GAS----GAS----GAS--
 72
65
 73
3
 40
24.1300000000000026
 49
12.6999999999999993
 74
0
 49
-5.0800000000000001
 74
0
 49
-6.3499999999999996
 74
0
  0
LTYPE
  5
39
100
AcDbSymbolTableRecord
100
AcDbLinetypeTableRecord
  2
ACAD_ISO04W100
 70
0
  3
ISO long-dash dot ____ . ____ . ____ . ____ . _
 72
65
 73
4
 40
30.0
 49
24.0
 74
0
 49
-3.0
 74
0
 49
0.0
 74
0
 49
-3.0
 74
0
  0
LTYPE
  5
3A
100
AcDbSymbolTableRecord
100
AcDbLinetypeTableRecord
  2
CUTLEFT2
 70
0
  3
G41 reversed----/----/----/----
 72
65
 73
2
 40
10.1600000000000001
 49
5.0800000000000001
 74
0
 49
5.0800000000000001
 74
0
  0
LTYPE
  5
3B
100
AcDbSymbolTableRecord
100
AcDbLinetypeTableRecord
  2
CENTER2
 70
0
  3
Center (.5x) ___ _ ___ _ ___ _ ___ _ ___ _ ___
 72
65
 73
4
 40
28.5750000000000028
 49
19.0500000000000007
 74
0
 49
-3.1749999999999998
 74
0
 49
3.1749999999999998
 74
0
 49
-3.1749999999999998
 74
0
  0
LTYPE
  5
3C
100
AcDbSymbolTableRecord
100
AcDbLinetypeTableRecord
  2
ACAD_ISO11W100
 70
0
  3
ISO double-dash dot __ __ . __ __ . __ __ . __ _
 72
65
 73
6
 40
33.0
 49
12.0
 74
0
 49
-3.0
 74
0
 49
12.0
 74
0
 49
-3.0
 74
0
 49
0.0
 74
0
 49
-3.0
 74
0
  0
LTYPE
  5
3D
100
AcDbSymbolTableRecord
100
AcDbLinetypeTableRecord
  2
HIDDEN2
 70
0
  3
Hidden (.5x) _ _ _ _ _ _ _ _ _ _ _ _ _ _ _ _ _ 
 72
65
 73
2
 40
4.7624999999999993
 49
3.1749999999999998
 74
0
 49
-1.5874999999999999
 74
0
  0
LTYPE
  5
3E
100
AcDbSymbolTableRecord
100
AcDbLinetypeTableRecord
  2
BORDERX2
 70
0
  3
Border (2x) ____  ____  .  ____  ____  .  ___
 72
65
 73
6
 40
88.8999999999999915
 49
25.3999999999999986
 74
0
 49
-12.6999999999999993
 74
0
 49
25.3999999999999986
 74
0
 49
-12.6999999999999993
 74
0
 49
0.0
 74
0
 49
-12.6999999999999993
 74
0
  0
LTYPE
  5
3F
100
AcDbSymbolTableRecord
100
AcDbLinetypeTableRecord
  2
ACAD_ISO05W100
 70
0
  3
ISO long-dash double-dot ____ .. ____ .. ____ . 
 72
65
 73
6
 40
33.0
 49
24.0
 74
0
 49
-3.0
 74
0
 49
0.0
 74
0
 49
-3.0
 74
0
 49
0.0
 74
0
 49
-3.0
 74
0
  0
LTYPE
  5
40
100
AcDbSymbolTableRecord
100
AcDbLinetypeTableRecord
  2
DASHDOTX2
 70
0
  3
Dash dot (2x) ____  .  ____  .  ____  .  ___
 72
65
 73
4
 40
50.7999999999999972
 49
25.3999999999999986
 74
0
 49
-12.6999999999999993
 74
0
 49
0.0
 74
0
 49
-12.6999999999999993
 74
0
  0
LTYPE
  5
41
100
AcDbSymbolTableRecord
100
AcDbLinetypeTableRecord
  2
HIDDENX2
 70
0
  3
Hidden (2x) ____ ____ ____ ____ ____ ____ ____ 
 72
65
 73
2
 40
19.0499999999999972
 49
12.6999999999999993
 74
0
 49
-6.3499999999999996
 74
0
  0
LTYPE
  5
42
100
AcDbSymbolTableRecord
100
AcDbLinetypeTableRecord
  2
CENTERX2
 70
0
  3
Center (2x) ________  __  ________  __  _____
 72
65
 73
4
 40
101.6000000000000085
 49
63.5
 74
0
 49
-12.6999999999999993
 74
0
 49
12.6999999999999993
 74
0
 49
-12.6999999999999993
 74
0
  0
LTYPE
  5
43
100
AcDbSymbolTableRecord
100
AcDbLinetypeTableRecord
  2
BORDER2
 70
0
  3
Border (.5x) __.__.__.__.__.__.__.__.__.__.__.
 72
65
 73
6
 40
22.2249999999999979
 49
6.3499999999999996
 74
0
 49
-3.1749999999999998
 74
0
 49
6.3499999999999996
 74
0
 49
-3.1749999999999998
 74
0
 49
0.0
 74
0
 49
-3.1749999999999998
 74
0
  0
LTYPE
  5
44
100
AcDbSymbolTableRecord
100
AcDbLinetypeTableRecord
  2
DASHDOT2
 70
0
  3
Dash dot (.5x) _._._._._._._._._._._._._._._.
 72
65
 73
4
 40
12.6999999999999993
 49
6.3499999999999996
 74
0
 49
-3.1749999999999998
 74
0
 49
0.0
 74
0
 49
-3.1749999999999998
 74
0
  0
LTYPE
  5
45
100
AcDbSymbolTableRecord
100
AcDbLinetypeTableRecord
  2
ACAD_ISO12W100
 70
0
  3
ISO dash double-dot __ . . __ . . __ . . __ . . 
 72
65
 73
6
 40
21.0
 49
12.0
 74
0
 49
-3.0
 74
0
 49
0.0
 74
0
 49
-3.0
 74
0
 49
0.0
 74
0
 49
-3.0
 74
0
  0
LTYPE
  5
46
100
AcDbSymbolTableRecord
100
AcDbLinetypeTableRecord
  2
ACAD_ISO07W100
 70
0
  3
ISO dot . . . . . . . . . . . . . . . . . . . . 
 72
65
 73
2
 40
3.0
 49
0.0
 74
0
 49
-3.0
 74
0
  0
LTYPE
  5
47
100
AcDbSymbolTableRecord
100
AcDbLinetypeTableRecord
  2
ACAD_ISO06W100
 70
0
  3
ISO long-dash triple-dot ____ ... ____ ... ____
 72
65
 73
8
 40
36.0
 49
24.0
 74
0
 49
-3.0
 74
0
 49
0.0
 74
0
 49
-3.0
 74
0
 49
0.0
 74
0
 49
-3.0
 74
0
 49
0.0
 74
0
 49
-3.0
 74
0
  0
LTYPE
  5
48
100
AcDbSymbolTableRecord
100
AcDbLinetypeTableRecord
  2
CENTER
 70
0
  3
Center ____ _ ____ _ ____ _ ____ _ ____ _ ____
 72
65
 73
4
 40
50.8000000000000043
 49
31.75
 74
0
 49
-6.3499999999999996
 74
0
 49
6.3499999999999996
 74
0
 49
-6.3499999999999996
 74
0
  0
LTYPE
  5
49
100
AcDbSymbolTableRecord
100
AcDbLinetypeTableRecord
  2
HIDDEN
 70
0
  3
Hidden __ __ __ __ __ __ __ __ __ __ __ __ __ __
 72
65
 73
2
 40
9.5249999999999986
 49
6.3499999999999996
 74
0
 49
-3.1749999999999998
 74
0
  0
LTYPE
  5
4A
100
AcDbSymbolTableRecord
100
AcDbLinetypeTableRecord
  2
DOTX2
 70
0
  3
Dot (2x) .  .  .  .  .  .  .  .  .  .  .  .  .  .
 72
65
 73
2
 40
12.6999999999999993
 49
0.0
 74
0
 49
-12.6999999999999993
 74
0
  0
LTYPE
  5
4B
100
AcDbSymbolTableRecord
100
AcDbLinetypeTableRecord
  2
PHANTOM
 70
0
  3
Phantom ______  __  __  ______  __  __  ______ 
 72
65
 73
6
 40
63.5000000000000071
 49
31.75
 74
0
 49
-6.3499999999999996
 74
0
 49
6.3499999999999996
 74
0
 49
-6.3499999999999996
 74
0
 49
6.3499999999999996
 74
0
 49
-6.3499999999999996
 74
0
  0
LTYPE
  5
4C
100
AcDbSymbolTableRecord
100
AcDbLinetypeTableRecord
  2
ACAD_ISO08W100
 70
0
  3
ISO long-dash short-dash ____ __ ____ __ ____ _
 72
65
 73
4
 40
36.0
 49
24.0
 74
0
 49
-3.0
 74
0
 49
6.0
 74
0
 49
-3.0
 74
0
  0
LTYPE
  5
4D
100
AcDbSymbolTableRecord
100
AcDbLinetypeTableRecord
  2
DASHEDX2
 70
0
  3
Dashed (2x) ____  ____  ____  ____  ____  ___
 72
65
 73
2
 40
38.0999999999999943
 49
25.3999999999999986
 74
0
 49
-12.6999999999999993
 74
0
  0
LTYPE
  5
4E
100
AcDbSymbolTableRecord
100
AcDbLinetypeTableRecord
  2
DRAINAGE
 70
0
  3
Drainage ---->---->---->----
 72
65
 73
2
 40
10.1600000000000001
 49
5.0800000000000001
 74
0
 49
5.0800000000000001
 74
0
  0
LTYPE
  5
4F
100
AcDbSymbolTableRecord
100
AcDbLinetypeTableRecord
  2
ACAD_ISO02W100
 70
0
  3
ISO dash __ __ __ __ __ __ __ __ __ __ __ __ __
 72
65
 73
2
 40
15.0
 49
12.0
 74
0
 49
-3.0
 74
0
  0
LTYPE
  5
50
100
AcDbSymbolTableRecord
100
AcDbLinetypeTableRecord
  2
PHANTOM2
 70
0
  3
Phantom (.5x) ___ _ _ ___ _ _ ___ _ _ ___ _ _
 72
65
 73
6
 40
31.7500000000000036
 49
15.875
 74
0
 49
-3.1749999999999998
 74
0
 49
3.1749999999999998
 74
0
 49
-3.1749999999999998
 74
0
 49
3.1749999999999998
 74
0
 49
-3.1749999999999998
 74
0
  0
LTYPE
  5
51
100
AcDbSymbolTableRecord
100
AcDbLinetypeTableRecord
  2
DASHED2
 70
0
  3
Dashed (.5x) _ _ _ _ _ _ _ _ _ _ _ _ _ _ _ _ _ 
 72
65
 73
2
 40
9.5249999999999986
 49
6.3499999999999996
 74
0
 49
-3.1749999999999998
 74
0
  0
LTYPE
  5
52
100
AcDbSymbolTableRecord
100
AcDbLinetypeTableRecord
  2
ACAD_ISO09W100
 70
0
  3
ISO long-dash double-short-dash ____ __ __ ____
 72
65
 73
6
 40
45.0
 49
24.0
 74
0
 49
-3.0
 74
0
 49
6.0
 74
0
 49
-3.0
 74
0
 49
6.0
 74
0
 49
-3.0
 74
0
  0
LTYPE
  5
53
100
AcDbSymbolTableRecord
100
AcDbLinetypeTableRecord
  2
ACAD_ISO13W100
 70
0
  3
ISO double-dash double-dot __ __ . . __ __ . . _
 72
65
 73
8
 40
36.0
 49
12.0
 74
0
 49
-3.0
 74
0
 49
12.0
 74
0
 49
-3.0
 74
0
 49
0.0
 74
0
 49
-3.0
 74
0
 49
0.0
 74
0
 49
-3.0
 74
0
  0
LTYPE
  5
54
100
AcDbSymbolTableRecord
100
AcDbLinetypeTableRecord
  2
TRACKS
 70
0
  3
Tracks -|-|-|-|-|-|-|-|-|-|-|-|-|-|-|-|-|-|-|-|-|-|-|-|-
 72
65
 73
2
 40
7.6200000000000001
 49
3.8100000000000001
 74
0
 49
3.8100000000000001
 74
0
  0
LTYPE
  5
55
100
AcDbSymbolTableRecord
100
AcDbLinetypeTableRecord
  2
DRAINAGE2
 70
0
  3
Drainage reversed----<----<----<----
 72
65
 73
2
 40
10.1600000000000001
 49
5.0800000000000001
 74
0
 49
5.0800000000000001
 74
0
  0
LTYPE
  5
56
100
AcDbSymbolTableRecord
100
AcDbLinetypeTableRecord
  2
DOT2
 70
0
  3
Dot (.5x) ........................................
 72
65
 73
2
 40
3.1749999999999998
 49
0.0
 74
0
 49
-3.1749999999999998
 74
0
  0
LTYPE
  5
57
100
AcDbSymbolTableRecord
100
AcDbLinetypeTableRecord
  2
ZIGZAG
 70
0
  3
Zig zag /\/\/\/\/\/\/\/\/\/\/\/\/\/\/\/\/\/\/\/\/\/\/\/
 72
65
 73
4
 40
20.32254
 49
0.00254
 74
0
 49
-5.0800000000000001
 74
0
 49
-10.1600000000000001
 74
0
 49
-5.0800000000000001
 74
0
  0
LTYPE
  5
58
100
AcDbSymbolTableRecord
100
AcDbLinetypeTableRecord
  2
DASHED
 70
0
  3
Dashed __ __ __ __ __ __ __ __ __ __ __ __ __ _
 72
65
 73
2
 40
19.0499999999999972
 49
12.6999999999999993
 74
0
 49
-6.3499999999999996
 74
0
  0
LTYPE
  5
59
100
AcDbSymbolTableRecord
100
AcDbLinetypeTableRecord
  2
ACAD_ISO14W100
 70
0
  3
ISO dash triple-dot __ . . . __ . . . __ . . . _
 72
65
 73
8
 40
24.0
 49
12.0
 74
0
 49
-3.0
 74
0
 49
0.0
 74
0
 49
-3.0
 74
0
 49
0.0
 74
0
 49
-3.0
 74
0
 49
0.0
 74
0
 49
-3.0
 74
0
  0
LTYPE
  5
15
100
AcDbSymbolTableRecord
100
AcDbLinetypeTableRecord
  2
BYLAYER
 70
0
  3

 72
65
 73
0
 40
0.0
  0
LTYPE
  5
5A
100
AcDbSymbolTableRecord
100
AcDbLinetypeTableRecord
  2
PHANTOMX2
 70
0
  3
Phantom (2x) ____________    ____    ____   _
 72
65
 73
6
 40
127.0000000000000142
 49
63.5
 74
0
 49
-12.6999999999999993
 74
0
 49
12.6999999999999993
 74
0
 49
-12.6999999999999993
 74
0
 49
12.6999999999999993
 74
0
 49
-12.6999999999999993
 74
0
  0
LTYPE
  5
14
100
AcDbSymbolTableRecord
100
AcDbLinetypeTableRecord
  2
BYBLOCK
 70
0
  3

 72
65
 73
0
 40
0.0
  0
LTYPE
  5
5B
100
AcDbSymbolTableRecord
100
AcDbLinetypeTableRecord
  2
DIVIDEX2
 70
0
  3
Divide (2x) ________  .  .  ________  .  .  _
 72
65
 73
6
 40
63.5
 49
25.3999999999999986
 74
0
 49
-12.6999999999999993
 74
0
 49
0.0
 74
0
 49
-12.6999999999999993
 74
0
 49
0.0
 74
0
 49
-12.6999999999999993
 74
0
  0
LTYPE
  5
5C
100
AcDbSymbolTableRecord
100
AcDbLinetypeTableRecord
  2
BORDER
 70
0
  3
Border __ __ . __ __ . __ __ . __ __ . __ __ .
 72
65
 73
6
 40
44.4499999999999957
 49
12.6999999999999993
 74
0
 49
-6.3499999999999996
 74
0
 49
12.6999999999999993
 74
0
 49
-6.3499999999999996
 74
0
 49
0.0
 74
0
 49
-6.3499999999999996
 74
0
  0
LTYPE
  5
5D
100
AcDbSymbolTableRecord
100
AcDbLinetypeTableRecord
  2
DIVIDE2
 70
0
  3
Divide (.5x) __..__..__..__..__..__..__..__.._
 72
65
 73
6
 40
15.875
 49
6.3499999999999996
 74
0
 49
-3.1749999999999998
 74
0
 49
0.0
 74
0
 49
-3.1749999999999998
 74
0
 49
0.0
 74
0
 49
-3.1749999999999998
 74
0
  0
LTYPE
  5
5E
100
AcDbSymbolTableRecord
100
AcDbLinetypeTableRecord
  2
DOT
 70
0
  3
Dot . . . . . . . . . . . . . . . . . . . . . . . .
 72
65
 73
2
 40
6.3499999999999996
 49
0.0
 74
0
 49
-6.3499999999999996
 74
0
  0
LTYPE
  5
5F
100
AcDbSymbolTableRecord
100
AcDbLinetypeTableRecord
  2
DASHDOT
 70
0
  3
Dash dot __ . __ . __ . __ . __ . __ . __ . __
 72
65
 73
4
 40
25.3999999999999986
 49
12.6999999999999993
 74
0
 49
-6.3499999999999996
 74
0
 49
0.0
 74
0
 49
-6.3499999999999996
 74
0
  0
LTYPE
  5
60
100
AcDbSymbolTableRecord
100
AcDbLinetypeTableRecord
  2
FENCELINE1
 70
0
  3
Fenceline circle ----0-----0----0-----0----0-----0--
 72
65
 73
4
 40
36.8299999999999983
 49
6.3499999999999996
 74
0
 49
-2.54
 74
0
 49
-2.54
 74
0
 49
25.3999999999999986
 74
0
  0
LTYPE
  5
61
100
AcDbSymbolTableRecord
100
AcDbLinetypeTableRecord
  2
BATTING
 70
0
  3
Batting SSSSSSSSSSSSSSSSSSSSSSSSSSSSSSSSSSSSSSSSSSSSSSS
 72
65
 73
4
 40
10.1625399999999999
 49
0.00254
 74
0
 49
-2.54
 74
0
 49
-5.0800000000000001
 74
0
 49
-2.54
 74
0
  0
LTYPE
  5
62
100
AcDbSymbolTableRecord
100
AcDbLinetypeTableRecord
  2
ACAD_ISO03W100
 70
0
  3
ISO dash space __    __    __    __    __    __
 72
65
 73
2
 40
30.0
 49
12.0
 74
0
 49
-18.0
 74
0
  0
LTYPE
  5
63
100
AcDbSymbolTableRecord
100
AcDbLinetypeTableRecord
  2
FENCELINE2
 70
0
  3
Fenceline square ----[]-----[]----[]-----[]----[]---
 72
65
 73
4
 40
36.8299999999999983
 49
6.3499999999999996
 74
0
 49
-2.54
 74
0
 49
-2.54
 74
0
 49
25.3999999999999986
 74
0
  0
ENDTAB
  0
TABLE
  2
LAYER
  5
2
100
AcDbSymbolTable
 70
4
  0
LAYER
  5
64
100
AcDbSymbolTableRecord
100
AcDbLayerTableRecord
  2
note
 70
0
 62
1
420
16711680
  6
Continuous
370
25
390
F
  0
LAYER
  5
65
100
AcDbSymbolTableRecord
100
AcDbLayerTableRecord
  2
guide
 70
0
 62
1
420
16711680
  6
Continuous
370
25
390
F
  0
LAYER
  5
66
100
AcDbSymbolTableRecord
100
AcDbLayerTableRecord
  2
dims
 70
0
 62
5
420
255
  6
Continuous
370
25
390
F
  0
LAYER
  5
10
100
AcDbSymbolTableRecord
100
AcDbLayerTableRecord
  2
0
 70
0
 62
7
420
16777215
  6
Continuous
370
25
390
F
  0
ENDTAB
  0
TABLE
  2
STYLE
  5
3
100
AcDbSymbolTable
 70
1
  0
STYLE
  5
67
100
AcDbSymbolTableRecord
100
AcDbTextStyleTableRecord
  2
Standard
 70
0
 40
0.0
 41
1.0
 50
0.0
 71
0
 42
2.5
  3

  4

1001
ACAD
1000
txt
1071
0
  0
ENDTAB
  0
TABLE
  2
VIEW
  5
6
100
AcDbSymbolTable
 70
0
  0
ENDTAB
  0
TABLE
  2
UCS
  5
7
100
AcDbSymbolTable
 70
0
  0
ENDTAB
  0
TABLE
  2
APPID
  5
9
100
AcDbSymbolTable
 70
1
  0
APPID
  5
12
100
AcDbSymbolTableRecord
100
AcDbRegAppTableRecord
  2
ACAD
 70
0
  0
APPID
  5
68
100
AcDbSymbolTableRecord
100
AcDbRegAppTableRecord
  2
QCAD
 70
0
  0
ENDTAB
  0
TABLE
  2
DIMSTYLE
  5
A
100
AcDbSymbolTable
 70
1
100
AcDbDimStyleTable
 71
0
  0
DIMSTYLE
105
27
100
AcDbSymbolTableRecord
100
AcDbDimStyleTableRecord
  2
Standard
 41
2.5
 42
0.625
 43
3.75
 44
1.25
 70
0
 73
0
 74
0
 77
1
 78
8
140
2.5
141
2.5
143
0.03937007874016
147
0.625
171
3
172
1
271
2
272
2
274
3
278
44
283
0
284
8
340
67
  0
ENDTAB
  0
TABLE
  2
BLOCK_RECORD
  5
1
100
AcDbSymbolTable
 70
1
  0
BLOCK_RECORD
  5
1F
100
AcDbSymbolTableRecord
100
AcDbBlockTableRecord
  2
*Model_Space
340
22
  0
BLOCK_RECORD
  5
1B
100
AcDbSymbolTableRecord
100
AcDbBlockTableRecord
  2
*Paper_Space
340
1E
  0
BLOCK_RECORD
  5
23
100
AcDbSymbolTableRecord
100
AcDbBlockTableRecord
  2
*Paper_Space0
340
26
  0
ENDTAB
  0
ENDSEC
  0
SECTION
  2
BLOCKS
  0
BLOCK
  5
20
100
AcDbEntity
  8
0
100
AcDbBlockBegin
  2
*Model_Space
 70
0
 10
0.0
 20
0.0
 30
0.0
  3
*Model_Space
  1

  0
ENDBLK
  5
21
100
AcDbEntity
  8
0
100
AcDbBlockEnd
  0
BLOCK
  5
1C
100
AcDbEntity
 67
1
  8
0
100
AcDbBlockBegin
  2
*Paper_Space
 70
0
 10
0.0
 20
0.0
 30
0.0
  3
*Paper_Space
  1

  0
ENDBLK
  5
1D
100
AcDbEntity
 67
1
  8
0
100
AcDbBlockEnd
  0
BLOCK
  5
24
100
AcDbEntity
  8
0
100
AcDbBlockBegin
  2
*Paper_Space0
 70
0
 10
0.0
 20
0.0
 30
0.0
  3
*Paper_Space0
  1

  0
ENDBLK
  5
25
100
AcDbEntity
  8
0
100
AcDbBlockEnd
  0
ENDSEC
  0
SECTION
  2
ENTITIES
  0
CIRCLE
  5
69
100
AcDbEntity
100
AcDbCircle
  8
0
 62
256
370
-1
 48
1.0
  6
BYLAYER
 10
20.0
 20
10.0
 30
0.0
 40
7.5
  0
LINE
  5
6A
100
AcDbEntity
100
AcDbLine
  8
0
 62
256
370
-1
 48
1.0
  6
BYLAYER
 10
29.948770491803284
 20
11.1885245901638939
 30
0.0
 11
29.8360655737704903
 21
11.8032786885245891
 31
0.0
  0
LINE
  5
6B
100
AcDbEntity
100
AcDbLine
  8
0
 62
256
370
-1
 48
1.0
  6
BYLAYER
 10
30.0
 20
0.0
 30
0.0
 11
30.0
 21
-6.0
 31
0.0
  0
LINE
  5
6C
100
AcDbEntity
100
AcDbLine
  8
0
 62
256
370
-1
 48
1.0
  6
BYLAYER
 10
30.0
 20
-6.0
 30
0.0
 11
24.0
 21
-6.0
 31
0.0
  0
LINE
  5
6D
100
AcDbEntity
100
AcDbLine
  8
0
 62
256
370
-1
 48
1.0
  6
BYLAYER
 10
24.0
 20
-6.0
 30
0.0
 11
24.0
 21
0.0
 31
0.0
  0
LINE
  5
6E
100
AcDbEntity
100
AcDbLine
  8
0
 62
256
370
-1
 48
1.0
  6
BYLAYER
 10
24.0
 20
0.0
 30
0.0
 11
16.0
 21
0.0
 31
0.0
  0
LINE
  5
6F
100
AcDbEntity
100
AcDbLine
  8
0
 62
256
370
-1
 48
1.0
  6
BYLAYER
 10
16.0
 20
0.0
 30
0.0
 11
16.0
 21
-6.0
 31
0.0
  0
LINE
  5
70
100
AcDbEntity
100
AcDbLine
  8
0
 62
256
370
-1
 48
1.0
  6
BYLAYER
 10
16.0
 20
-6.0
 30
0.0
 11
10.0
 21
-6.0
 31
0.0
  0
LINE
  5
71
100
AcDbEntity
100
AcDbLine
  8
0
 62
256
370
-1
 48
1.0
  6
BYLAYER
 10
32.0
 20
0.0
 30
0.0
 11
30.0
 21
0.0
 31
0.0
  0
DIMENSION
  5
72
100
AcDbEntity
  8
dims
 62
256
370
-1
 48
1.0
  6
BYLAYER
100
AcDbDimension
 10
24.0
 20
-10.0
 30
0.0
 11
20.0
 21
-8.125
 31
0.0
 70
1
 71
8
 72
2
 41
1.0
 42
0.0
  1

  3
Standard
100
AcDbAlignedDimension
 13
24.0
 23
-6.0
 33
0.0
 14
16.0
 24
-6.0
 34
0.0
1001
ACAD
1000
DSTYLE
1002
{
1070
144
1040
1.0
1070
40
1040
1.0
1002
}
  0
DIMENSION
  5
73
100
AcDbEntity
  8
dims
 62
256
370
-1
 48
1.0
  6
BYLAYER
100
AcDbDimension
 10
24.0
 20
-14.0
 30
0.0
 11
27.0
 21
-12.125
 31
0.0
 70
1
 71
8
 72
2
 41
1.0
 42
0.0
  1

  3
Standard
100
AcDbAlignedDimension
 13
24.0
 23
-6.0
 33
0.0
 14
30.0
 24
-6.0
 34
0.0
1001
ACAD
1000
DSTYLE
1002
{
1070
144
1040
1.0
1070
40
1040
1.0
1002
}
  0
LINE
  5
74
100
AcDbEntity
100
AcDbLine
  8
0
 62
256
370
-1
 48
1.0
  6
BYLAYER
 10
100.0
 20
0.0
 30
0.0
 11
180.0
 21
0.0
 31
0.0
  0
LINE
  5
75
100
AcDbEntity
100
AcDbLine
  8
0
 62
256
370
-1
 48
1.0
  6
BYLAYER
 10
180.0
 20
0.0
 30
0.0
 11
180.0
 21
200.0
 31
0.0
  0
LINE
  5
76
100
AcDbEntity
100
AcDbLine
  8
0
 62
256
370
-1
 48
1.0
  6
BYLAYER
 10
180.0
 20
200.0
 30
0.0
 11
100.0
 21
200.0
 31
0.0
  0
LINE
  5
77
100
AcDbEntity
100
AcDbLine
  8
guide
 62
256
370
-1
 48
1.0
  6
BYLAYER
 10
140.0
 20
200.0
 30
0.0
 11
140.0
 21
200.0
 31
0.0
  0
LINE
  5
78
100
AcDbEntity
100
AcDbLine
  8
guide
 62
256
370
-1
 48
1.0
  6
BYLAYER
 10
140.0
 20
200.0
 30
0.0
 11
140.0
 21
0.0
 31
0.0
  0
LINE
  5
79
100
AcDbEntity
100
AcDbLine
  8
guide
 62
256
370
-1
 48
1.0
  6
BYLAYER
 10
140.0
 20
0.0
 30
0.0
 11
140.0
 21
0.0
 31
0.0
  0
LINE
  5
7A
100
AcDbEntity
100
AcDbLine
  8
guide
 62
256
370
-1
 48
1.0
  6
BYLAYER
 10
140.0
 20
0.0
 30
0.0
 11
140.0
 21
200.0
 31
0.0
  0
LINE
  5
7B
100
AcDbEntity
100
AcDbLine
  8
0
 62
256
370
-1
 48
1.0
  6
BYLAYER
 10
177.0
 20
84.0
 30
0.0
 11
171.0
 21
83.9999999999999858
 31
0.0
  0
LINE
  5
7C
100
AcDbEntity
100
AcDbLine
  8
0
 62
256
370
-1
 48
1.0
  6
BYLAYER
 10
177.0
 20
98.0
 30
0.0
 11
171.0
 21
97.9999999999999858
 31
0.0
  0
LINE
  5
7D
100
AcDbEntity
100
AcDbLine
  8
0
 62
256
370
-1
 48
1.0
  6
BYLAYER
 10
161.0
 20
98.0
 30
0.0
 11
155.0000000000000284
 21
98.0
 31
0.0
  0
LINE
  5
7E
100
AcDbEntity
100
AcDbLine
  8
0
 62
256
370
-1
 48
1.0
  6
BYLAYER
 10
161.0
 20
84.0
 30
0.0
 11
155.0
 21
83.9999999999999858
 31
0.0
  0
LINE
  5
7F
100
AcDbEntity
100
AcDbLine
  8
0
 62
256
370
-1
 48
1.0
  6
BYLAYER
 10
165.0
 20
4.0
 30
0.0
 11
159.0
 21
4.0000000000000053
 31
0.0
  0
LINE
  5
80
100
AcDbEntity
100
AcDbLine
  8
0
 62
256
370
-1
 48
1.0
  6
BYLAYER
 10
165.0
 20
18.0000000000000142
 30
0.0
 11
159.0
 21
18.0000000000000071
 31
0.0
  0
LINE
  5
81
100
AcDbEntity
100
AcDbLine
  8
0
 62
256
370
-1
 48
1.0
  6
BYLAYER
 10
177.0
 20
17.9999999999999822
 30
0.0
 11
171.0
 21
18.0000000000000071
 31
0.0
  0
LINE
  5
82
100
AcDbEntity
100
AcDbLine
  8
0
 62
256
370
-1
 48
1.0
  6
BYLAYER
 10
177.0
 20
4.0000000000000142
 30
0.0
 11
171.0
 21
4.0
 31
0.0
  0
LINE
  5
83
100
AcDbEntity
100
AcDbLine
  8
0
 62
256
370
-1
 48
1.0
  6
BYLAYER
 10
66.0
 20
108.0
 30
0.0
 11
66.0
 21
102.0000000000000142
 31
0.0
  0
LINE
  5
84
100
AcDbEntity
100
AcDbLine
  8
0
 62
256
370
-1
 48
1.0
  6
BYLAYER
 10
66.0000000000000142
 20
181.0
 30
0.0
 11
66.0
 21
175.0
 31
0.0
  0
LINE
  5
85
100
AcDbEntity
100
AcDbLine
  8
0
 62
256
370
-1
 48
1.0
  6
BYLAYER
 10
66.0
 20
197.0
 30
0.0
 11
66.0
 21
191.0
 31
0.0
  0
LINE
  5
86
100
AcDbEntity
100
AcDbLine
  8
0
 62
256
370
-1
 48
1.0
  6
BYLAYER
 10
66.0
 20
123.9999999999999858
 30
0.0
 11
66.0
 21
118.0
 31
0.0
  0
LINE
  5
87
100
AcDbEntity
100
AcDbLine
  8
0
 62
256
370
-1
 48
1.0
  6
BYLAYER
 10
14.0000000000000071
 20
124.0
 30
0.0
 11
14.0000000000000071
 21
118.0
 31
0.0
  0
LINE
  5
88
100
AcDbEntity
100
AcDbLine
  8
0
 62
256
370
-1
 48
1.0
  6
BYLAYER
 10
14.0
 20
108.0
 30
0.0
 11
14.0000000000000071
 21
102.0
 31
0.0
  0
LINE
  5
89
100
AcDbEntity
100
AcDbLine
  8
0
 62
256
370
-1
 48
1.0
  6
BYLAYER
 10
14.0
 20
181.0
 30
0.0
 11
14.0000000000000071
 21
175.0
 31
0.0
  0
LINE
  5
8A
100
AcDbEntity
100
AcDbLine
  8
0
 62
256
370
-1
 48
1.0
  6
BYLAYER
 10
14.0000000000000071
 20
197.0
 30
0.0
 11
14.0000000000000071
 21
191.0
 31
0.0
  0
LINE
  5
8B
100
AcDbEntity
100
AcDbLine
  8
0
 62
256
370
-1
 48
1.0
  6
BYLAYER
 10
103.0
 20
84.0
 30
0.0
 11
109.0
 21
84.0
 31
0.0
  0
LINE
  5
8C
100
AcDbEntity
100
AcDbLine
  8
0
 62
256
370
-1
 48
1.0
  6
BYLAYER
 10
103.0
 20
98.0
 30
0.0
 11
109.0
 21
98.0
 31
0.0
  0
LINE
  5
8D
100
AcDbEntity
100
AcDbLine
  8
0
 62
256
370
-1
 48
1.0
  6
BYLAYER
 10
119.0
 20
98.0
 30
0.0
 11
125.0
 21
98.0
 31
0.0
  0
LINE
  5
8E
100
AcDbEntity
100
AcDbLine
  8
0
 62
256
370
-1
 48
1.0
  6
BYLAYER
 10
119.0
 20
84.0
 30
0.0
 11
125.0
 21
84.0
 31
0.0
  0
LINE
  5
8F
100
AcDbEntity
100
AcDbLine
  8
0
 62
256
370
-1
 48
1.0
  6
BYLAYER
 10
115.0
 20
4.0
 30
0.0
 11
121.0
 21
4.0
 31
0.0
  0
LINE
  5
90
100
AcDbEntity
100
AcDbLine
  8
0
 62
256
370
-1
 48
1.0
  6
BYLAYER
 10
115.0
 20
18.0
 30
0.0
 11
121.0
 21
18.0
 31
0.0
  0
LINE
  5
91
100
AcDbEntity
100
AcDbLine
  8
0
 62
256
370
-1
 48
1.0
  6
BYLAYER
 10
103.0
 20
18.0
 30
0.0
 11
109.0
 21
18.0
 31
0.0
  0
LINE
  5
92
100
AcDbEntity
100
AcDbLine
  8
0
 62
256
370
-1
 48
1.0
  6
BYLAYER
 10
103.0
 20
4.0
 30
0.0
 11
109.0
 21
4.0
 31
0.0
  0
LINE
  5
93
100
AcDbEntity
100
AcDbLine
  8
0
 62
256
370
-1
 48
1.0
  6
BYLAYER
 10
171.0
 20
83.9999999999999858
 30
0.0
 11
171.0000000000000284
 21
89.9999999999999858
 31
0.0
  0
LINE
  5
94
100
AcDbEntity
100
AcDbLine
  8
0
 62
256
370
-1
 48
1.0
  6
BYLAYER
 10
171.0
 20
97.9999999999999858
 30
0.0
 11
171.0
 21
103.9999999999999858
 31
0.0
  0
LINE
  5
95
100
AcDbEntity
100
AcDbLine
  8
0
 62
256
370
-1
 48
1.0
  6
BYLAYER
 10
155.0000000000000284
 20
98.0
 30
0.0
 11
155.0
 21
104.0
 31
0.0
  0
LINE
  5
96
100
AcDbEntity
100
AcDbLine
  8
0
 62
256
370
-1
 48
1.0
  6
BYLAYER
 10
155.0
 20
83.9999999999999858
 30
0.0
 11
155.0000000000000284
 21
90.0
 31
0.0
  0
LINE
  5
97
100
AcDbEntity
100
AcDbLine
  8
0
 62
256
370
-1
 48
1.0
  6
BYLAYER
 10
159.0
 20
4.0000000000000053
 30
0.0
 11
159.0
 21
9.9999999999999947
 31
0.0
  0
LINE
  5
98
100
AcDbEntity
100
AcDbLine
  8
0
 62
256
370
-1
 48
1.0
  6
BYLAYER
 10
159.0
 20
18.0000000000000071
 30
0.0
 11
159.0
 21
23.9999999999999929
 31
0.0
  0
LINE
  5
99
100
AcDbEntity
100
AcDbLine
  8
0
 62
256
370
-1
 48
1.0
  6
BYLAYER
 10
171.0
 20
18.0000000000000071
 30
0.0
 11
171.0
 21
24.0
 31
0.0
  0
LINE
  5
9A
100
AcDbEntity
100
AcDbLine
  8
0
 62
256
370
-1
 48
1.0
  6
BYLAYER
 10
171.0
 20
4.0
 30
0.0
 11
171.0
 21
9.9999999999999929
 31
0.0
  0
LINE
  5
9B
100
AcDbEntity
100
AcDbLine
  8
0
 62
256
370
-1
 48
1.0
  6
BYLAYER
 10
80.0000000000000142
 20
175.0
 30
0.0
 11
74.0000000000000284
 21
175.0
 31
0.0
  0
LINE
  5
9C
100
AcDbEntity
100
AcDbLine
  8
0
 62
256
370
-1
 48
1.0
  6
BYLAYER
 10
66.0
 20
175.0
 30
0.0
 11
60.0000000000000284
 21
175.0
 31
0.0
  0
LINE
  5
9D
100
AcDbEntity
100
AcDbLine
  8
0
 62
256
370
-1
 48
1.0
  6
BYLAYER
 10
66.0
 20
191.0
 30
0.0
 11
60.0
 21
191.0
 31
0.0
  0
LINE
  5
9E
100
AcDbEntity
100
AcDbLine
  8
0
 62
256
370
-1
 48
1.0
  6
BYLAYER
 10
80.0
 20
191.0
 30
0.0
 11
74.0
 21
191.0
 31
0.0
  0
LINE
  5
9F
100
AcDbEntity
100
AcDbLine
  8
0
 62
256
370
-1
 48
1.0
  6
BYLAYER
 10
80.0
 20
117.9999999999999858
 30
0.0
 11
74.0
 21
118.0
 31
0.0
  0
LINE
  5
A0
100
AcDbEntity
100
AcDbLine
  8
0
 62
256
370
-1
 48
1.0
  6
BYLAYER
 10
66.0
 20
118.0
 30
0.0
 11
59.9999999999999929
 21
118.0
 31
0.0
  0
LINE
  5
A1
100
AcDbEntity
100
AcDbLine
  8
0
 62
256
370
-1
 48
1.0
  6
BYLAYER
 10
66.0
 20
102.0000000000000142
 30
0.0
 11
60.0000000000000071
 21
102.0
 31
0.0
  0
LINE
  5
A2
100
AcDbEntity
100
AcDbLine
  8
0
 62
256
370
-1
 48
1.0
  6
BYLAYER
 10
80.0
 20
102.0000000000001137
 30
0.0
 11
74.0
 21
102.0000000000000142
 31
0.0
  0
LINE
  5
A3
100
AcDbEntity
100
AcDbLine
  8
0
 62
256
370
-1
 48
1.0
  6
BYLAYER
 10
0.0000000000000071
 20
118.0
 30
0.0
 11
6.0000000000000071
 21
118.0
 31
0.0
  0
LINE
  5
A4
100
AcDbEntity
100
AcDbLine
  8
0
 62
256
370
-1
 48
1.0
  6
BYLAYER
 10
14.0000000000000071
 20
118.0
 30
0.0
 11
20.0000000000000071
 21
118.0
 31
0.0
  0
LINE
  5
A5
100
AcDbEntity
100
AcDbLine
  8
0
 62
256
370
-1
 48
1.0
  6
BYLAYER
 10
14.0000000000000071
 20
102.0
 30
0.0
 11
19.9999999999999929
 21
102.0
 31
0.0
  0
LINE
  5
A6
100
AcDbEntity
100
AcDbLine
  8
0
 62
256
370
-1
 48
1.0
  6
BYLAYER
 10
0.0
 20
102.0
 30
0.0
 11
5.9999999999999929
 21
102.0
 31
0.0
  0
LINE
  5
A7
100
AcDbEntity
100
AcDbLine
  8
0
 62
256
370
-1
 48
1.0
  6
BYLAYER
 10
0.0
 20
175.0
 30
0.0
 11
5.9999999999999929
 21
175.0
 31
0.0
  0
LINE
  5
A8
100
AcDbEntity
100
AcDbLine
  8
0
 62
256
370
-1
 48
1.0
  6
BYLAYER
 10
14.0000000000000071
 20
175.0
 30
0.0
 11
19.9999999999999929
 21
175.0
 31
0.0
  0
LINE
  5
A9
100
AcDbEntity
100
AcDbLine
  8
0
 62
256
370
-1
 48
1.0
  6
BYLAYER
 10
14.0000000000000071
 20
191.0
 30
0.0
 11
20.0000000000000071
 21
191.0
 31
0.0
  0
LINE
  5
AA
100
AcDbEntity
100
AcDbLine
  8
0
 62
256
370
-1
 48
1.0
  6
BYLAYER
 10
0.0000000000000071
 20
191.0
 30
0.0
 11
6.0000000000000071
 21
191.0
 31
0.0
  0
LINE
  5
AB
100
AcDbEntity
100
AcDbLine
  8
0
 62
256
370
-1
 48
1.0
  6
BYLAYER
 10
109.0
 20
84.0
 30
0.0
 11
109.0
 21
90.0
 31
0.0
  0
LINE
  5
AC
100
AcDbEntity
100
AcDbLine
  8
0
 62
256
370
-1
 48
1.0
  6
BYLAYER
 10
109.0
 20
98.0
 30
0.0
 11
109.0
 21
104.0
 31
0.0
  0
LINE
  5
AD
100
AcDbEntity
100
AcDbLine
  8
0
 62
256
370
-1
 48
1.0
  6
BYLAYER
 10
125.0
 20
98.0
 30
0.0
 11
125.0
 21
104.0
 31
0.0
  0
LINE
  5
AE
100
AcDbEntity
100
AcDbLine
  8
0
 62
256
370
-1
 48
1.0
  6
BYLAYER
 10
125.0
 20
84.0
 30
0.0
 11
125.0
 21
90.0
 31
0.0
  0
LINE
  5
AF
100
AcDbEntity
100
AcDbLine
  8
0
 62
256
370
-1
 48
1.0
  6
BYLAYER
 10
121.0
 20
4.0
 30
0.0
 11
121.0
 21
10.0
 31
0.0
  0
LINE
  5
B0
100
AcDbEntity
100
AcDbLine
  8
0
 62
256
370
-1
 48
1.0
  6
BYLAYER
 10
121.0
 20
18.0
 30
0.0
 11
121.0
 21
24.0
 31
0.0
  0
LINE
  5
B1
100
AcDbEntity
100
AcDbLine
  8
0
 62
256
370
-1
 48
1.0
  6
BYLAYER
 10
109.0
 20
18.0
 30
0.0
 11
109.0
 21
24.0
 31
0.0
  0
LINE
  5
B2
100
AcDbEntity
100
AcDbLine
  8
0
 62
256
370
-1
 48
1.0
  6
BYLAYER
 10
109.0
 20
4.0
 30
0.0
 11
109.0
 21
10.0
 31
0.0
  0
LINE
  5
B3
100
AcDbEntity
100
AcDbLine
  8
0
 62
256
370
-1
 48
1.0
  6
BYLAYER
 10
171.0000000000000284
 20
89.9999999999999858
 30
0.0
 11
177.0
 21
90.0000000000000142
 31
0.0
  0
LINE
  5
B4
100
AcDbEntity
100
AcDbLine
  8
0
 62
256
370
-1
 48
1.0
  6
BYLAYER
 10
171.0
 20
103.9999999999999858
 30
0.0
 11
177.0
 21
103.9999999999999858
 31
0.0
  0
LINE
  5
B5
100
AcDbEntity
100
AcDbLine
  8
0
 62
256
370
-1
 48
1.0
  6
BYLAYER
 10
155.0
 20
104.0
 30
0.0
 11
161.0
 21
104.0
 31
0.0
  0
LINE
  5
B6
100
AcDbEntity
100
AcDbLine
  8
0
 62
256
370
-1
 48
1.0
  6
BYLAYER
 10
155.0000000000000284
 20
90.0
 30
0.0
 11
161.0
 21
89.9999999999999858
 31
0.0
  0
LINE
  5
B7
100
AcDbEntity
100
AcDbLine
  8
0
 62
256
370
-1
 48
1.0
  6
BYLAYER
 10
159.0
 20
9.9999999999999947
 30
0.0
 11
165.0
 21
9.9999999999999858
 31
0.0
  0
LINE
  5
B8
100
AcDbEntity
100
AcDbLine
  8
0
 62
256
370
-1
 48
1.0
  6
BYLAYER
 10
159.0
 20
23.9999999999999929
 30
0.0
 11
165.0
 21
24.0
 31
0.0
  0
LINE
  5
B9
100
AcDbEntity
100
AcDbLine
  8
0
 62
256
370
-1
 48
1.0
  6
BYLAYER
 10
171.0
 20
24.0
 30
0.0
 11
177.0
 21
23.9999999999999858
 31
0.0
  0
LINE
  5
BA
100
AcDbEntity
100
AcDbLine
  8
0
 62
256
370
-1
 48
1.0
  6
BYLAYER
 10
171.0
 20
9.9999999999999929
 30
0.0
 11
177.0
 21
10.0000000000000178
 31
0.0
  0
LINE
  5
BB
100
AcDbEntity
100
AcDbLine
  8
0
 62
256
370
-1
 48
1.0
  6
BYLAYER
 10
74.0
 20
191.0
 30
0.0
 11
74.0
 21
197.0
 31
0.0
  0
LINE
  5
BC
100
AcDbEntity
100
AcDbLine
  8
0
 62
256
370
-1
 48
1.0
  6
BYLAYER
 10
74.0000000000000284
 20
175.0
 30
0.0
 11
74.0000000000000142
 21
181.0
 31
0.0
  0
LINE
  5
BD
100
AcDbEntity
100
AcDbLine
  8
0
 62
256
370
-1
 48
1.0
  6
BYLAYER
 10
60.0000000000000284
 20
175.0
 30
0.0
 11
60.0000000000000142
 21
181.0
 31
0.0
  0
LINE
  5
BE
100
AcDbEntity
100
AcDbLine
  8
0
 62
256
370
-1
 48
1.0
  6
BYLAYER
 10
60.0
 20
191.0
 30
0.0
 11
60.0
 21
197.0
 31
0.0
  0
LINE
  5
BF
100
AcDbEntity
100
AcDbLine
  8
0
 62
256
370
-1
 48
1.0
  6
BYLAYER
 10
74.0
 20
118.0
 30
0.0
 11
74.0
 21
124.0
 31
0.0
  0
LINE
  5
C0
100
AcDbEntity
100
AcDbLine
  8
0
 62
256
370
-1
 48
1.0
  6
BYLAYER
 10
59.9999999999999929
 20
118.0
 30
0.0
 11
59.9999999999999929
 21
124.0
 31
0.0
  0
LINE
  5
C1
100
AcDbEntity
100
AcDbLine
  8
0
 62
256
370
-1
 48
1.0
  6
BYLAYER
 10
60.0000000000000071
 20
102.0
 30
0.0
 11
59.9999999999999929
 21
108.0
 31
0.0
  0
LINE
  5
C2
100
AcDbEntity
100
AcDbLine
  8
0
 62
256
370
-1
 48
1.0
  6
BYLAYER
 10
74.0
 20
102.0000000000000142
 30
0.0
 11
74.0
 21
107.9999999999999858
 31
0.0
  0
LINE
  5
C3
100
AcDbEntity
100
AcDbLine
  8
0
 62
256
370
-1
 48
1.0
  6
BYLAYER
 10
6.0000000000000071
 20
118.0
 30
0.0
 11
6.0000000000000071
 21
124.0
 31
0.0
  0
LINE
  5
C4
100
AcDbEntity
100
AcDbLine
  8
0
 62
256
370
-1
 48
1.0
  6
BYLAYER
 10
20.0000000000000071
 20
118.0
 30
0.0
 11
20.0000000000000071
 21
124.0
 31
0.0
  0
LINE
  5
C5
100
AcDbEntity
100
AcDbLine
  8
0
 62
256
370
-1
 48
1.0
  6
BYLAYER
 10
19.9999999999999929
 20
102.0
 30
0.0
 11
20.0000000000000071
 21
108.0
 31
0.0
  0
LINE
  5
C6
100
AcDbEntity
100
AcDbLine
  8
0
 62
256
370
-1
 48
1.0
  6
BYLAYER
 10
5.9999999999999929
 20
102.0
 30
0.0
 11
6.0
 21
108.0
 31
0.0
  0
LINE
  5
C7
100
AcDbEntity
100
AcDbLine
  8
0
 62
256
370
-1
 48
1.0
  6
BYLAYER
 10
6.0000000000000071
 20
191.0
 30
0.0
 11
6.0000000000000071
 21
197.0
 31
0.0
  0
LINE
  5
C8
100
AcDbEntity
100
AcDbLine
  8
0
 62
256
370
-1
 48
1.0
  6
BYLAYER
 10
5.9999999999999929
 20
175.0
 30
0.0
 11
6.0
 21
181.0
 31
0.0
  0
LINE
  5
C9
100
AcDbEntity
100
AcDbLine
  8
0
 62
256
370
-1
 48
1.0
  6
BYLAYER
 10
19.9999999999999929
 20
175.0
 30
0.0
 11
20.0000000000000071
 21
181.0
 31
0.0
  0
LINE
  5
CA
100
AcDbEntity
100
AcDbLine
  8
0
 62
256
370
-1
 48
1.0
  6
BYLAYER
 10
20.0000000000000071
 20
191.0
 30
0.0
 11
20.0000000000000071
 21
197.0
 31
0.0
  0
LINE
  5
CB
100
AcDbEntity
100
AcDbLine
  8
0
 62
256
370
-1
 48
1.0
  6
BYLAYER
 10
109.0
 20
90.0
 30
0.0
 11
103.0
 21
90.0
 31
0.0
  0
LINE
  5
CC
100
AcDbEntity
100
AcDbLine
  8
0
 62
256
370
-1
 48
1.0
  6
BYLAYER
 10
109.0
 20
104.0
 30
0.0
 11
103.0
 21
104.0
 31
0.0
  0
LINE
  5
CD
100
AcDbEntity
100
AcDbLine
  8
0
 62
256
370
-1
 48
1.0
  6
BYLAYER
 10
125.0
 20
104.0
 30
0.0
 11
119.0
 21
104.0
 31
0.0
  0
LINE
  5
CE
100
AcDbEntity
100
AcDbLine
  8
0
 62
256
370
-1
 48
1.0
  6
BYLAYER
 10
125.0
 20
90.0
 30
0.0
 11
119.0
 21
90.0
 31
0.0
  0
LINE
  5
CF
100
AcDbEntity
100
AcDbLine
  8
0
 62
256
370
-1
 48
1.0
  6
BYLAYER
 10
121.0
 20
10.0
 30
0.0
 11
115.0
 21
10.0
 31
0.0
  0
LINE
  5
D0
100
AcDbEntity
100
AcDbLine
  8
0
 62
256
370
-1
 48
1.0
  6
BYLAYER
 10
121.0
 20
24.0
 30
0.0
 11
115.0
 21
24.0
 31
0.0
  0
LINE
  5
D1
100
AcDbEntity
100
AcDbLine
  8
0
 62
256
370
-1
 48
1.0
  6
BYLAYER
 10
109.0
 20
24.0
 30
0.0
 11
103.0
 21
24.0
 31
0.0
  0
LINE
  5
D2
100
AcDbEntity
100
AcDbLine
  8
0
 62
256
370
-1
 48
1.0
  6
BYLAYER
 10
109.0
 20
10.0
 30
0.0
 11
103.0
 21
10.0
 31
0.0
  0
LINE
  5
D3
100
AcDbEntity
100
AcDbLine
  8
0
 62
256
370
-1
 48
1.0
  6
BYLAYER
 10
161.0
 20
104.0
 30
0.0
 11
161.0
 21
98.0
 31
0.0
  0
LINE
  5
D4
100
AcDbEntity
100
AcDbLine
  8
0
 62
256
370
-1
 48
1.0
  6
BYLAYER
 10
161.0
 20
89.9999999999999858
 30
0.0
 11
161.0
 21
84.0
 31
0.0
  0
LINE
  5
D5
100
AcDbEntity
100
AcDbLine
  8
0
 62
256
370
-1
 48
1.0
  6
BYLAYER
 10
165.0
 20
9.9999999999999858
 30
0.0
 11
165.0
 21
4.0
 31
0.0
  0
LINE
  5
D6
100
AcDbEntity
100
AcDbLine
  8
0
 62
256
370
-1
 48
1.0
  6
BYLAYER
 10
165.0
 20
24.0
 30
0.0
 11
165.0
 21
18.0000000000000142
 31
0.0
  0
LINE
  5
D7
100
AcDbEntity
100
AcDbLine
  8
0
 62
256
370
-1
 48
1.0
  6
BYLAYER
 10
60.0000000000000142
 20
181.0
 30
0.0
 11
66.0000000000000142
 21
181.0
 31
0.0
  0
LINE
  5
D8
100
AcDbEntity
100
AcDbLine
  8
0
 62
256
370
-1
 48
1.0
  6
BYLAYER
 10
60.0
 20
197.0
 30
0.0
 11
66.0
 21
197.0
 31
0.0
  0
LINE
  5
D9
100
AcDbEntity
100
AcDbLine
  8
0
 62
256
370
-1
 48
1.0
  6
BYLAYER
 10
74.0
 20
197.0
 30
0.0
 11
80.0
 21
197.0
 31
0.0
  0
LINE
  5
DA
100
AcDbEntity
100
AcDbLine
  8
0
 62
256
370
-1
 48
1.0
  6
BYLAYER
 10
74.0000000000000142
 20
181.0
 30
0.0
 11
80.0
 21
181.0
 31
0.0
  0
LINE
  5
DB
100
AcDbEntity
100
AcDbLine
  8
0
 62
256
370
-1
 48
1.0
  6
BYLAYER
 10
74.0
 20
107.9999999999999858
 30
0.0
 11
80.0
 21
108.0000000000000284
 31
0.0
  0
LINE
  5
DC
100
AcDbEntity
100
AcDbLine
  8
0
 62
256
370
-1
 48
1.0
  6
BYLAYER
 10
74.0
 20
124.0
 30
0.0
 11
80.0
 21
124.0
 31
0.0
  0
LINE
  5
DD
100
AcDbEntity
100
AcDbLine
  8
0
 62
256
370
-1
 48
1.0
  6
BYLAYER
 10
59.9999999999999929
 20
124.0
 30
0.0
 11
66.0
 21
123.9999999999999858
 31
0.0
  0
LINE
  5
DE
100
AcDbEntity
100
AcDbLine
  8
0
 62
256
370
-1
 48
1.0
  6
BYLAYER
 10
59.9999999999999929
 20
108.0
 30
0.0
 11
66.0
 21
108.0
 31
0.0
  0
LINE
  5
DF
100
AcDbEntity
100
AcDbLine
  8
0
 62
256
370
-1
 48
1.0
  6
BYLAYER
 10
6.0
 20
108.0
 30
0.0
 11
0.0000000000000071
 21
108.0
 31
0.0
  0
LINE
  5
E0
100
AcDbEntity
100
AcDbLine
  8
0
 62
256
370
-1
 48
1.0
  6
BYLAYER
 10
6.0000000000000071
 20
124.0
 30
0.0
 11
0.0000000000000071
 21
124.0
 31
0.0
  0
LINE
  5
E1
100
AcDbEntity
100
AcDbLine
  8
0
 62
256
370
-1
 48
1.0
  6
BYLAYER
 10
20.0000000000000071
 20
124.0
 30
0.0
 11
14.0000000000000071
 21
124.0
 31
0.0
  0
LINE
  5
E2
100
AcDbEntity
100
AcDbLine
  8
0
 62
256
370
-1
 48
1.0
  6
BYLAYER
 10
20.0000000000000071
 20
108.0
 30
0.0
 11
14.0
 21
108.0
 31
0.0
  0
LINE
  5
E3
100
AcDbEntity
100
AcDbLine
  8
0
 62
256
370
-1
 48
1.0
  6
BYLAYER
 10
20.0000000000000071
 20
181.0
 30
0.0
 11
14.0
 21
181.0
 31
0.0
  0
LINE
  5
E4
100
AcDbEntity
100
AcDbLine
  8
0
 62
256
370
-1
 48
1.0
  6
BYLAYER
 10
20.0000000000000071
 20
197.0
 30
0.0
 11
14.0000000000000071
 21
197.0
 31
0.0
  0
LINE
  5
E5
100
AcDbEntity
100
AcDbLine
  8
0
 62
256
370
-1
 48
1.0
  6
BYLAYER
 10
6.0000000000000071
 20
197.0
 30
0.0
 11
0.0000000000000071
 21
197.0
 31
0.0
  0
LINE
  5
E6
100
AcDbEntity
100
AcDbLine
  8
0
 62
256
370
-1
 48
1.0
  6
BYLAYER
 10
6.0
 20
181.0
 30
0.0
 11
0.0000000000000071
 21
181.0
 31
0.0
  0
LINE
  5
E7
100
AcDbEntity
100
AcDbLine
  8
0
 62
256
370
-1
 48
1.0
  6
BYLAYER
 10
119.0
 20
104.0
 30
0.0
 11
119.0
 21
98.0
 31
0.0
  0
LINE
  5
E8
100
AcDbEntity
100
AcDbLine
  8
0
 62
256
370
-1
 48
1.0
  6
BYLAYER
 10
119.0
 20
90.0
 30
0.0
 11
119.0
 21
84.0
 31
0.0
  0
LINE
  5
E9
100
AcDbEntity
100
AcDbLine
  8
0
 62
256
370
-1
 48
1.0
  6
BYLAYER
 10
115.0
 20
10.0
 30
0.0
 11
115.0
 21
4.0
 31
0.0
  0
LINE
  5
EA
100
AcDbEntity
100
AcDbLine
  8
0
 62
256
370
-1
 48
1.0
  6
BYLAYER
 10
115.0
 20
24.0
 30
0.0
 11
115.0
 21
18.0
 31
0.0
  0
LINE
  5
EB
100
AcDbEntity
100
AcDbLine
  8
guide
 62
256
370
-1
 48
1.0
  6
BYLAYER
 10
100.0
 20
94.0
 30
0.0
 11
180.0
 21
94.0
 31
0.0
  0
LINE
  5
EC
100
AcDbEntity
100
AcDbLine
  8
guide
 62
256
370
-1
 48
1.0
  6
BYLAYER
 10
100.0
 20
14.0
 30
0.0
 11
180.0
 21
14.0000000000000018
 31
0.0
  0
LINE
  5
ED
100
AcDbEntity
100
AcDbLine
  8
0
 62
256
370
-1
 48
1.0
  6
BYLAYER
 10
340.0
 20
9.9999999999999698
 30
0.0
 11
334.0
 21
9.9999999999999822
 31
0.0
  0
LINE
  5
EE
100
AcDbEntity
100
AcDbLine
  8
0
 62
256
370
-1
 48
1.0
  6
BYLAYER
 10
230.0
 20
9.9999999999999858
 30
0.0
 11
230.0
 21
16.0000000000000071
 31
0.0
  0
LINE
  5
EF
100
AcDbEntity
100
AcDbLine
  8
0
 62
256
370
-1
 48
1.0
  6
BYLAYER
 10
230.0000000000000284
 20
54.0000000000000284
 30
0.0
 11
230.0
 21
48.0000000000000142
 31
0.0
  0
LINE
  5
F0
100
AcDbEntity
100
AcDbLine
  8
0
 62
256
370
-1
 48
1.0
  6
BYLAYER
 10
274.0
 20
54.0
 30
0.0
 11
274.0
 21
48.0
 31
0.0
  0
LINE
  5
F1
100
AcDbEntity
100
AcDbLine
  8
0
 62
256
370
-1
 48
1.0
  6
BYLAYER
 10
274.0
 20
9.9999999999999964
 30
0.0
 11
274.0
 21
15.9999999999999893
 31
0.0
  0
LINE
  5
F2
100
AcDbEntity
100
AcDbLine
  8
0
 62
256
370
-1
 48
1.0
  6
BYLAYER
 10
274.0
 20
9.9999999999999964
 30
0.0
 11
268.0
 21
10.0
 31
0.0
  0
LINE
  5
F3
100
AcDbEntity
100
AcDbLine
  8
0
 62
256
370
-1
 48
1.0
  6
BYLAYER
 10
230.0
 20
10.0
 30
0.0
 11
236.0
 21
10.0
 31
0.0
  0
LINE
  5
F4
100
AcDbEntity
100
AcDbLine
  8
guide
 62
256
370
-1
 48
1.0
  6
BYLAYER
 10
252.0
 20
10.0
 30
0.0
 11
252.0
 21
54.0
 31
0.0
  0
LINE
  5
F5
100
AcDbEntity
100
AcDbLine
  8
guide
 62
256
370
-1
 48
1.0
  6
BYLAYER
 10
230.0
 20
32.0
 30
0.0
 11
274.0
 21
32.0
 31
0.0
  0
CIRCLE
  5
F6
100
AcDbEntity
100
AcDbCircle
  8
0
 62
256
370
-1
 48
1.0
  6
BYLAYER
 10
252.0
 20
32.0
 30
0.0
 40
11.0
  0
CIRCLE
  5
F7
100
AcDbEntity
100
AcDbCircle
  8
0
 62
256
370
-1
 48
1.0
  6
BYLAYER
 10
267.5
 20
16.4999999999999964
 30
0.0
 40
1.5
  0
CIRCLE
  5
F8
100
AcDbEntity
100
AcDbCircle
  8
0
 62
256
370
-1
 48
1.0
  6
BYLAYER
 10
236.5
 20
16.5
 30
0.0
 40
1.5
  0
CIRCLE
  5
F9
100
AcDbEntity
100
AcDbCircle
  8
0
 62
256
370
-1
 48
1.0
  6
BYLAYER
 10
236.5
 20
47.5
 30
0.0
 40
1.5
  0
CIRCLE
  5
FA
100
AcDbEntity
100
AcDbCircle
  8
0
 62
256
370
-1
 48
1.0
  6
BYLAYER
 10
267.5
 20
47.5
 30
0.0
 40
1.5
  0
LINE
  5
FB
100
AcDbEntity
100
AcDbLine
  8
0
 62
256
370
-1
 48
1.0
  6
BYLAYER
 10
334.0
 20
9.9999999999999822
 30
0.0
 11
334.0
 21
3.9999999999999876
 31
0.0
  0
LINE
  5
FC
100
AcDbEntity
100
AcDbLine
  8
0
 62
256
370
-1
 48
1.0
  6
BYLAYER
 10
304.0
 20
10.0000000000000018
 30
0.0
 11
304.0
 21
4.0
 31
0.0
  0
LINE
  5
FD
100
AcDbEntity
100
AcDbLine
  8
0
 62
256
370
-1
 48
1.0
  6
BYLAYER
 10
230.0
 20
16.0000000000000071
 30
0.0
 11
224.0
 21
16.0000000000000178
 31
0.0
  0
LINE
  5
FE
100
AcDbEntity
100
AcDbLine
  8
0
 62
256
370
-1
 48
1.0
  6
BYLAYER
 10
230.0
 20
48.0000000000000142
 30
0.0
 11
224.0
 21
48.0
 31
0.0
  0
LINE
  5
FF
100
AcDbEntity
100
AcDbLine
  8
0
 62
256
370
-1
 48
1.0
  6
BYLAYER
 10
274.0
 20
48.0
 30
0.0
 11
280.0
 21
47.9999999999999858
 31
0.0
  0
LINE
  5
100
100
AcDbEntity
100
AcDbLine
  8
0
 62
256
370
-1
 48
1.0
  6
BYLAYER
 10
274.0
 20
15.9999999999999893
 30
0.0
 11
280.0
 21
16.0000000000000071
 31
0.0
  0
LINE
  5
101
100
AcDbEntity
100
AcDbLine
  8
0
 62
256
370
-1
 48
1.0
  6
BYLAYER
 10
268.0
 20
10.0
 30
0.0
 11
268.0
 21
3.9999999999999929
 31
0.0
  0
LINE
  5
102
100
AcDbEntity
100
AcDbLine
  8
0
 62
256
370
-1
 48
1.0
  6
BYLAYER
 10
236.0
 20
10.0
 30
0.0
 11
236.0
 21
4.0
 31
0.0
  0
LINE
  5
103
100
AcDbEntity
100
AcDbLine
  8
0
 62
256
370
-1
 48
1.0
  6
BYLAYER
 10
304.0
 20
4.0
 30
0.0
 11
312.0
 21
3.9999999999999964
 31
0.0
  0
LINE
  5
104
100
AcDbEntity
100
AcDbLine
  8
0
 62
256
370
-1
 48
1.0
  6
BYLAYER
 10
334.0
 20
3.9999999999999876
 30
0.0
 11
326.0
 21
4.0000000000000053
 31
0.0
  0
LINE
  5
105
100
AcDbEntity
100
AcDbLine
  8
0
 62
256
370
-1
 48
1.0
  6
BYLAYER
 10
224.0
 20
48.0
 30
0.0
 11
224.0
 21
39.9999999999999858
 31
0.0
  0
LINE
  5
106
100
AcDbEntity
100
AcDbLine
  8
0
 62
256
370
-1
 48
1.0
  6
BYLAYER
 10
224.0
 20
16.0000000000000178
 30
0.0
 11
224.0
 21
24.0000000000000355
 31
0.0
  0
LINE
  5
107
100
AcDbEntity
100
AcDbLine
  8
0
 62
256
370
-1
 48
1.0
  6
BYLAYER
 10
280.0
 20
16.0000000000000071
 30
0.0
 11
280.0
 21
23.9999999999999929
 31
0.0
  0
LINE
  5
108
100
AcDbEntity
100
AcDbLine
  8
0
 62
256
370
-1
 48
1.0
  6
BYLAYER
 10
280.0
 20
47.9999999999999858
 30
0.0
 11
280.0
 21
39.9999999999999929
 31
0.0
  0
LINE
  5
109
100
AcDbEntity
100
AcDbLine
  8
0
 62
256
370
-1
 48
1.0
  6
BYLAYER
 10
268.0
 20
3.9999999999999929
 30
0.0
 11
260.0
 21
4.0
 31
0.0
  0
LINE
  5
10A
100
AcDbEntity
100
AcDbLine
  8
0
 62
256
370
-1
 48
1.0
  6
BYLAYER
 10
236.0
 20
4.0
 30
0.0
 11
244.0
 21
4.0
 31
0.0
  0
LINE
  5
10B
100
AcDbEntity
100
AcDbLine
  8
0
 62
256
370
-1
 48
1.0
  6
BYLAYER
 10
326.0
 20
4.0000000000000053
 30
0.0
 11
326.0
 21
9.9999999999999982
 31
0.0
  0
LINE
  5
10C
100
AcDbEntity
100
AcDbLine
  8
0
 62
256
370
-1
 48
1.0
  6
BYLAYER
 10
312.0
 20
3.9999999999999964
 30
0.0
 11
312.0
 21
10.0000000000000036
 31
0.0
  0
LINE
  5
10D
100
AcDbEntity
100
AcDbLine
  8
0
 62
256
370
-1
 48
1.0
  6
BYLAYER
 10
224.0
 20
24.0000000000000355
 30
0.0
 11
230.0
 21
24.0000000000000355
 31
0.0
  0
LINE
  5
10E
100
AcDbEntity
100
AcDbLine
  8
0
 62
256
370
-1
 48
1.0
  6
BYLAYER
 10
224.0
 20
39.9999999999999858
 30
0.0
 11
230.0
 21
40.0000000000000213
 31
0.0
  0
LINE
  5
10F
100
AcDbEntity
100
AcDbLine
  8
0
 62
256
370
-1
 48
1.0
  6
BYLAYER
 10
280.0
 20
39.9999999999999929
 30
0.0
 11
274.0
 21
39.9999999999999858
 31
0.0
  0
LINE
  5
110
100
AcDbEntity
100
AcDbLine
  8
0
 62
256
370
-1
 48
1.0
  6
BYLAYER
 10
280.0
 20
23.9999999999999929
 30
0.0
 11
274.0
 21
23.9999999999999822
 31
0.0
  0
LINE
  5
111
100
AcDbEntity
100
AcDbLine
  8
0
 62
256
370
-1
 48
1.0
  6
BYLAYER
 10
260.0
 20
4.0
 30
0.0
 11
260.0
 21
10.0
 31
0.0
  0
LINE
  5
112
100
AcDbEntity
100
AcDbLine
  8
0
 62
256
370
-1
 48
1.0
  6
BYLAYER
 10
244.0
 20
4.0
 30
0.0
 11
244.0
 21
10.0
 31
0.0
  0
LINE
  5
113
100
AcDbEntity
100
AcDbLine
  8
0
 62
256
370
-1
 48
1.0
  6
BYLAYER
 10
326.0
 20
9.9999999999999982
 30
0.0
 11
312.0
 21
10.0000000000000036
 31
0.0
  0
LINE
  5
114
100
AcDbEntity
100
AcDbLine
  8
0
 62
256
370
-1
 48
1.0
  6
BYLAYER
 10
230.0
 20
24.0000000000000355
 30
0.0
 11
230.0
 21
40.0000000000000213
 31
0.0
  0
LINE
  5
115
100
AcDbEntity
100
AcDbLine
  8
0
 62
256
370
-1
 48
1.0
  6
BYLAYER
 10
274.0
 20
39.9999999999999858
 30
0.0
 11
274.0
 21
23.9999999999999822
 31
0.0
  0
LINE
  5
116
100
AcDbEntity
100
AcDbLine
  8
0
 62
256
370
-1
 48
1.0
  6
BYLAYER
 10
260.0
 20
10.0
 30
0.0
 11
244.0
 21
10.0
 31
0.0
  0
LINE
  5
117
100
AcDbEntity
100
AcDbLine
  8
0
 62
256
370
-1
 48
1.0
  6
BYLAYER
 10
274.0
 20
54.0
 30
0.0
 11
230.0000000000000284
 21
54.0000000000000284
 31
0.0
  0
LINE
  5
118
100
AcDbEntity
100
AcDbLine
  8
guide
 62
256
370
-1
 48
1.0
  6
BYLAYER
 10
290.0
 20
10.0
 30
0.0
 11
290.0
 21
54.0
 31
0.0
  0
LINE
  5
119
100
AcDbEntity
100
AcDbLine
  8
guide
 62
256
370
-1
 48
1.0
  6
BYLAYER
 10
290.0
 20
54.0
 30
0.0
 11
296.0
 21
54.0
 31
0.0
  0
LINE
  5
11A
100
AcDbEntity
100
AcDbLine
  8
guide
 62
256
370
-1
 48
1.0
  6
BYLAYER
 10
296.0
 20
54.0
 30
0.0
 11
296.0
 21
10.0
 31
0.0
  0
LINE
  5
11B
100
AcDbEntity
100
AcDbLine
  8
guide
 62
256
370
-1
 48
1.0
  6
BYLAYER
 10
296.0
 20
10.0
 30
0.0
 11
290.0
 21
10.0
 31
0.0
  0
LINE
  5
11C
100
AcDbEntity
100
AcDbLine
  8
guide
 62
256
370
-1
 48
1.0
  6
BYLAYER
 10
296.0
 20
10.0
 30
0.0
 11
340.0
 21
10.0
 31
0.0
  0
LINE
  5
11D
100
AcDbEntity
100
AcDbLine
  8
guide
 62
256
370
-1
 48
1.0
  6
BYLAYER
 10
340.0
 20
10.0
 30
0.0
 11
340.0
 21
4.0
 31
0.0
  0
LINE
  5
11E
100
AcDbEntity
100
AcDbLine
  8
guide
 62
256
370
-1
 48
1.0
  6
BYLAYER
 10
340.0
 20
4.0
 30
0.0
 11
296.0
 21
4.0
 31
0.0
  0
LINE
  5
11F
100
AcDbEntity
100
AcDbLine
  8
guide
 62
256
370
-1
 48
1.0
  6
BYLAYER
 10
296.0
 20
4.0
 30
0.0
 11
296.0
 21
10.0
 31
0.0
  0
LINE
  5
120
100
AcDbEntity
100
AcDbLine
  8
guide
 62
256
370
-1
 48
1.0
  6
BYLAYER
 10
296.0
 20
54.0
 30
0.0
 11
340.0
 21
10.0
 31
0.0
  0
LINE
  5
121
100
AcDbEntity
100
AcDbLine
  8
0
 62
256
370
-1
 48
1.0
  6
BYLAYER
 10
290.0
 20
54.0
 30
0.0
 11
290.0
 21
48.0
 31
0.0
  0
LINE
  5
122
100
AcDbEntity
100
AcDbLine
  8
0
 62
256
370
-1
 48
1.0
  6
BYLAYER
 10
290.0
 20
48.0
 30
0.0
 11
296.0
 21
48.0
 31
0.0
  0
LINE
  5
123
100
AcDbEntity
100
AcDbLine
  8
0
 62
256
370
-1
 48
1.0
  6
BYLAYER
 10
296.0
 20
48.0
 30
0.0
 11
296.0
 21
40.0
 31
0.0
  0
LINE
  5
124
100
AcDbEntity
100
AcDbLine
  8
0
 62
256
370
-1
 48
1.0
  6
BYLAYER
 10
296.0
 20
40.0
 30
0.0
 11
290.0
 21
40.0
 31
0.0
  0
LINE
  5
125
100
AcDbEntity
100
AcDbLine
  8
0
 62
256
370
-1
 48
1.0
  6
BYLAYER
 10
290.0
 20
40.0
 30
0.0
 11
290.0
 21
24.0
 31
0.0
  0
LINE
  5
126
100
AcDbEntity
100
AcDbLine
  8
0
 62
256
370
-1
 48
1.0
  6
BYLAYER
 10
290.0
 20
24.0
 30
0.0
 11
296.0
 21
24.0000000000000036
 31
0.0
  0
LINE
  5
127
100
AcDbEntity
100
AcDbLine
  8
0
 62
256
370
-1
 48
1.0
  6
BYLAYER
 10
296.0
 20
24.0000000000000036
 30
0.0
 11
296.0
 21
16.0
 31
0.0
  0
LINE
  5
128
100
AcDbEntity
100
AcDbLine
  8
0
 62
256
370
-1
 48
1.0
  6
BYLAYER
 10
296.0
 20
16.0
 30
0.0
 11
290.0
 21
16.0
 31
0.0
  0
LINE
  5
129
100
AcDbEntity
100
AcDbLine
  8
0
 62
256
370
-1
 48
1.0
  6
BYLAYER
 10
290.0
 20
16.0
 30
0.0
 11
290.0
 21
10.0
 31
0.0
  0
LINE
  5
12A
100
AcDbEntity
100
AcDbLine
  8
0
 62
256
370
-1
 48
1.0
  6
BYLAYER
 10
290.0
 20
54.0
 30
0.0
 11
296.0
 21
54.0
 31
0.0
  0
LINE
  5
12B
100
AcDbEntity
100
AcDbLine
  8
0
 62
256
370
-1
 48
1.0
  6
BYLAYER
 10
340.0
 20
10.0
 30
0.0
 11
296.0
 21
54.0
 31
0.0
  0
DIMENSION
  5
12C
100
AcDbEntity
  8
dims
 62
256
370
-1
 48
1.0
  6
BYLAYER
100
AcDbDimension
 10
260.0
 20
-0.6786634460547702
 30
0.0
 11
252.0
 21
1.1963365539452298
 31
0.0
 70
1
 71
8
 72
2
 41
1.0
 42
0.0
  1

  3
Standard
100
AcDbAlignedDimension
 13
260.0
 23
4.0
 33
0.0
 14
244.0
 24
4.0
 34
0.0
1001
ACAD
1000
DSTYLE
1002
{
1070
144
1040
1.0
1070
40
1040
1.0
1002
}
  0
LINE
  5
12D
100
AcDbEntity
100
AcDbLine
  8
guide
 62
256
370
-1
 48
1.0
  6
BYLAYER
 10
100.0
 20
80.0
 30
0.0
 11
140.0
 21
80.0
 31
0.0
  0
LINE
  5
12E
100
AcDbEntity
100
AcDbLine
  8
0
 62
256
370
-1
 48
1.0
  6
BYLAYER
 10
148.0
 20
80.0
 30
0.0
 11
148.0
 21
74.0
 31
0.0
  0
LINE
  5
12F
100
AcDbEntity
100
AcDbLine
  8
0
 62
256
370
-1
 48
1.0
  6
BYLAYER
 10
132.0
 20
80.0
 30
0.0
 11
132.0
 21
74.0
 31
0.0
  0
LINE
  5
130
100
AcDbEntity
100
AcDbLine
  8
0
 62
256
370
-1
 48
1.0
  6
BYLAYER
 10
148.0
 20
74.0
 30
0.0
 11
156.0
 21
74.0
 31
0.0
  0
LINE
  5
131
100
AcDbEntity
100
AcDbLine
  8
0
 62
256
370
-1
 48
1.0
  6
BYLAYER
 10
132.0
 20
74.0
 30
0.0
 11
124.0
 21
74.0
 31
0.0
  0
LINE
  5
132
100
AcDbEntity
100
AcDbLine
  8
0
 62
256
370
-1
 48
1.0
  6
BYLAYER
 10
156.0
 20
74.0
 30
0.0
 11
156.0
 21
80.0
 31
0.0
  0
LINE
  5
133
100
AcDbEntity
100
AcDbLine
  8
0
 62
256
370
-1
 48
1.0
  6
BYLAYER
 10
124.0
 20
74.0
 30
0.0
 11
124.0
 21
80.0
 31
0.0
  0
LINE
  5
134
100
AcDbEntity
100
AcDbLine
  8
0
 62
256
370
-1
 48
1.0
  6
BYLAYER
 10
156.0
 20
80.0
 30
0.0
 11
148.0
 21
80.0
 31
0.0
  0
LINE
  5
135
100
AcDbEntity
100
AcDbLine
  8
0
 62
256
370
-1
 48
1.0
  6
BYLAYER
 10
124.0
 20
80.0
 30
0.0
 11
132.0
 21
80.0
 31
0.0
  0
DIMENSION
  5
136
100
AcDbEntity
  8
dims
 62
256
370
-1
 48
1.0
  6
BYLAYER
100
AcDbDimension
 10
273.9999999999999432
 20
-10.0000000000000036
 30
0.0
 11
251.9999999999999716
 21
-8.1250000000000018
 31
0.0
 70
1
 71
8
 72
2
 41
1.0
 42
0.0
  1

  3
Standard
100
AcDbAlignedDimension
 13
273.9999999999999432
 23
9.9999999999999964
 33
0.0
 14
230.0
 24
10.0
 34
0.0
1001
ACAD
1000
DSTYLE
1002
{
1070
144
1040
1.0
1070
40
1040
1.0
1002
}
  0
LINE
  5
137
100
AcDbEntity
100
AcDbLine
  8
guide
 62
256
370
-1
 48
1.0
  6
BYLAYER
 10
118.0
 20
80.0
 30
0.0
 11
118.0
 21
0.0
 31
0.0
  0
DIMENSION
  5
138
100
AcDbEntity
  8
dims
 62
256
370
-1
 48
1.0
  6
BYLAYER
100
AcDbDimension
 10
296.0
 20
-5.3897900972954602
 30
0.0
 11
300.0
 21
-3.5147900972954602
 31
0.0
 70
1
 71
8
 72
2
 41
1.0
 42
0.0
  1

  3
Standard
100
AcDbAlignedDimension
 13
296.0
 23
4.0
 33
0.0
 14
304.0
 24
4.0
 34
0.0
1001
ACAD
1000
DSTYLE
1002
{
1070
144
1040
1.0
1070
40
1040
1.0
1002
}
  0
DIMENSION
  5
139
100
AcDbEntity
  8
dims
 62
256
370
-1
 48
1.0
  6
BYLAYER
100
AcDbDimension
 10
326.0000000000000568
 20
-9.9999999999999787
 30
0.0
 11
330.0
 21
-8.1249999999999858
 31
0.0
 70
1
 71
8
 72
2
 41
1.0
 42
0.0
  1

  3
Standard
100
AcDbAlignedDimension
 13
326.0000000000000568
 23
4.0
 33
0.0
 14
334.0
 24
3.9999999999999876
 34
0.0
1001
ACAD
1000
DSTYLE
1002
{
1070
144
1040
1.0
1070
40
1040
1.0
1002
}
  0
DIMENSION
  5
13A
100
AcDbEntity
  8
dims
 62
256
370
-1
 48
1.0
  6
BYLAYER
100
AcDbDimension
 10
312.0
 20
-3.9374999999999929
 30
0.0
 11
319.0
 21
-2.0624999999999911
 31
0.0
 70
1
 71
8
 72
2
 41
1.0
 42
0.0
  1

  3
Standard
100
AcDbAlignedDimension
 13
312.0
 23
3.9999999999999964
 33
0.0
 14
326.0000000000000568
 24
4.0
 34
0.0
1001
ACAD
1000
DSTYLE
1002
{
1070
144
1040
1.0
1070
40
1040
1.0
1002
}
  0
LINE
  5
13B
100
AcDbEntity
100
AcDbLine
  8
0
 62
256
370
-1
 48
1.0
  6
BYLAYER
 10
162.0
 20
72.0
 30
0.0
 11
156.0
 21
72.0
 31
0.0
  0
LINE
  5
13C
100
AcDbEntity
100
AcDbLine
  8
0
 62
256
370
-1
 48
1.0
  6
BYLAYER
 10
118.0
 20
72.0
 30
0.0
 11
124.0
 21
72.0
 31
0.0
  0
LINE
  5
13D
100
AcDbEntity
100
AcDbLine
  8
0
 62
256
370
-1
 48
1.0
  6
BYLAYER
 10
304.0
 20
10.0000000000000018
 30
0.0
 11
290.0
 21
10.0
 31
0.0
  0
DIMENSION
  5
13E
100
AcDbEntity
  8
dims
 62
256
370
-1
 48
1.0
  6
BYLAYER
100
AcDbDimension
 10
312.0
 20
-5.3897900972954602
 30
0.0
 11
308.0
 21
-3.5147900972954602
 31
0.0
 70
1
 71
8
 72
2
 41
1.0
 42
0.0
  1

  3
Standard
100
AcDbAlignedDimension
 13
312.0
 23
4.0
 33
0.0
 14
304.0
 24
4.0
 34
0.0
1001
ACAD
1000
DSTYLE
1002
{
1070
144
1040
1.0
1070
40
1040
1.0
1002
}
  0
DIMENSION
  5
13F
100
AcDbEntity
  8
dims
 62
256
370
-1
 48
1.0
  6
BYLAYER
100
AcDbDimension
 10
244.0
 20
-2.0
 30
0.0
 11
240.0
 21
-0.125
 31
0.0
 70
1
 71
8
 72
2
 41
1.0
 42
0.0
  1

  3
Standard
100
AcDbAlignedDimension
 13
244.0
 23
4.0
 33
0.0
 14
236.0
 24
4.0
 34
0.0
1001
ACAD
1000
DSTYLE
1002
{
1070
144
1040
1.0
1070
40
1040
1.0
1002
}
  0
LINE
  5
140
100
AcDbEntity
100
AcDbLine
  8
0
 62
256
370
-1
 48
1.0
  6
BYLAYER
 10
156.0
 20
72.0
 30
0.0
 11
156.0
 21
64.0
 31
0.0
  0
LINE
  5
141
100
AcDbEntity
100
AcDbLine
  8
0
 62
256
370
-1
 48
1.0
  6
BYLAYER
 10
124.0
 20
72.0
 30
0.0
 11
124.0
 21
64.0
 31
0.0
  0
LINE
  5
142
100
AcDbEntity
100
AcDbLine
  8
0
 62
256
370
-1
 48
1.0
  6
BYLAYER
 10
156.0
 20
64.0
 30
0.0
 11
162.0
 21
64.0
 31
0.0
  0
LINE
  5
143
100
AcDbEntity
100
AcDbLine
  8
0
 62
256
370
-1
 48
1.0
  6
BYLAYER
 10
124.0
 20
64.0
 30
0.0
 11
118.0
 21
64.0
 31
0.0
  0
LINE
  5
144
100
AcDbEntity
100
AcDbLine
  8
0
 62
256
370
-1
 48
1.0
  6
BYLAYER
 10
162.0
 20
64.0
 30
0.0
 11
162.0
 21
72.0
 31
0.0
  0
LINE
  5
145
100
AcDbEntity
100
AcDbLine
  8
0
 62
256
370
-1
 48
1.0
  6
BYLAYER
 10
118.0
 20
64.0
 30
0.0
 11
118.0
 21
72.0
 31
0.0
  0
LINE
  5
146
100
AcDbEntity
100
AcDbLine
  8
0
 62
256
370
-1
 48
1.0
  6
BYLAYER
 10
162.0
 20
50.0
 30
0.0
 11
156.0
 21
49.9999999999999929
 31
0.0
  0
LINE
  5
147
100
AcDbEntity
100
AcDbLine
  8
0
 62
256
370
-1
 48
1.0
  6
BYLAYER
 10
118.0
 20
50.0
 30
0.0
 11
124.0
 21
50.0
 31
0.0
  0
LINE
  5
148
100
AcDbEntity
100
AcDbLine
  8
0
 62
256
370
-1
 48
1.0
  6
BYLAYER
 10
156.0
 20
49.9999999999999929
 30
0.0
 11
156.0
 21
41.9999999999999929
 31
0.0
  0
LINE
  5
149
100
AcDbEntity
100
AcDbLine
  8
0
 62
256
370
-1
 48
1.0
  6
BYLAYER
 10
124.0
 20
50.0
 30
0.0
 11
124.0
 21
42.0
 31
0.0
  0
LINE
  5
14A
100
AcDbEntity
100
AcDbLine
  8
0
 62
256
370
-1
 48
1.0
  6
BYLAYER
 10
156.0
 20
41.9999999999999929
 30
0.0
 11
162.0
 21
42.0
 31
0.0
  0
LINE
  5
14B
100
AcDbEntity
100
AcDbLine
  8
0
 62
256
370
-1
 48
1.0
  6
BYLAYER
 10
124.0
 20
42.0
 30
0.0
 11
118.0
 21
42.0
 31
0.0
  0
LINE
  5
14C
100
AcDbEntity
100
AcDbLine
  8
0
 62
256
370
-1
 48
1.0
  6
BYLAYER
 10
162.0
 20
42.0
 30
0.0
 11
162.0
 21
50.0
 31
0.0
  0
LINE
  5
14D
100
AcDbEntity
100
AcDbLine
  8
0
 62
256
370
-1
 48
1.0
  6
BYLAYER
 10
118.0
 20
42.0
 30
0.0
 11
118.0
 21
50.0
 31
0.0
  0
DIMENSION
  5
14E
100
AcDbEntity
  8
dims
 62
256
370
-1
 48
1.0
  6
BYLAYER
100
AcDbDimension
 10
103.0
 20
-7.3883357245520003
 30
0.0
 11
112.0
 21
-5.5133357245520003
 31
0.0
 70
1
 71
8
 72
2
 41
1.0
 42
0.0
  1

  3
Standard
100
AcDbAlignedDimension
 13
103.0
 23
4.0
 33
0.0
 14
121.0
 24
4.0
 34
0.0
1001
ACAD
1000
DSTYLE
1002
{
1070
144
1040
1.0
1070
40
1040
1.0
1002
}
  0
CIRCLE
  5
14F
100
AcDbEntity
100
AcDbCircle
  8
0
 62
256
370
-1
 48
1.0
  6
BYLAYER
 10
110.0
 20
180.0
 30
0.0
 40
3.0
  0
DIMENSION
  5
150
100
AcDbEntity
  8
dims
 62
256
370
-1
 48
1.0
  6
BYLAYER
100
AcDbDimension
 10
100.0
 20
210.0
 30
0.0
 11
140.0
 21
211.875
 31
0.0
 70
1
 71
8
 72
2
 41
1.0
 42
0.0
  1

  3
Standard
100
AcDbAlignedDimension
 13
100.0
 23
200.0
 33
0.0
 14
180.0
 24
200.0
 34
0.0
1001
ACAD
1000
DSTYLE
1002
{
1070
144
1040
1.0
1070
40
1040
1.0
1002
}
  0
LINE
  5
151
100
AcDbEntity
100
AcDbLine
  8
0
 62
256
370
-1
 48
1.0
  6
BYLAYER
 10
0.0
 20
200.0
 30
0.0
 11
80.0
 21
200.0
 31
0.0
  0
LINE
  5
152
100
AcDbEntity
100
AcDbLine
  8
0
 62
256
370
-1
 48
1.0
  6
BYLAYER
 10
80.0
 20
175.0
 30
0.0
 11
80.0
 21
124.0000000000000142
 31
0.0
  0
LINE
  5
153
100
AcDbEntity
100
AcDbLine
  8
0
 62
256
370
-1
 48
1.0
  6
BYLAYER
 10
80.0
 20
191.0000000000000284
 30
0.0
 11
80.0
 21
181.0000000000000284
 31
0.0
  0
LINE
  5
154
100
AcDbEntity
100
AcDbLine
  8
0
 62
256
370
-1
 48
1.0
  6
BYLAYER
 10
80.0
 20
200.0
 30
0.0
 11
80.0
 21
197.0000000000000284
 31
0.0
  0
LINE
  5
155
100
AcDbEntity
100
AcDbLine
  8
0
 62
256
370
-1
 48
1.0
  6
BYLAYER
 10
80.0
 20
117.9999999999999858
 30
0.0
 11
80.0
 21
108.0000000000000426
 31
0.0
  0
LINE
  5
156
100
AcDbEntity
100
AcDbLine
  8
0
 62
256
370
-1
 48
1.0
  6
BYLAYER
 10
80.0
 20
102.0000000000001137
 30
0.0
 11
80.0
 21
100.0
 31
0.0
  0
LINE
  5
157
100
AcDbEntity
100
AcDbLine
  8
0
 62
256
370
-1
 48
1.0
  6
BYLAYER
 10
80.0
 20
100.0
 30
0.0
 11
0.0
 21
100.0
 31
0.0
  0
LINE
  5
158
100
AcDbEntity
100
AcDbLine
  8
0
 62
256
370
-1
 48
1.0
  6
BYLAYER
 10
80.0
 20
107.9999999999999858
 30
0.0
 11
80.0
 21
117.9999999999999858
 31
0.0
  0
LINE
  5
159
100
AcDbEntity
100
AcDbLine
  8
0
 62
256
370
-1
 48
1.0
  6
BYLAYER
 10
80.0
 20
181.0
 30
0.0
 11
80.0000000000000142
 21
191.0
 31
0.0
  0
LINE
  5
15A
100
AcDbEntity
100
AcDbLine
  8
0
 62
256
370
-1
 48
1.0
  6
BYLAYER
 10
80.0
 20
124.0
 30
0.0
 11
80.0
 21
175.0000000000000284
 31
0.0
  0
LINE
  5
15B
100
AcDbEntity
100
AcDbLine
  8
0
 62
256
370
-1
 48
1.0
  6
BYLAYER
 10
80.0
 20
197.0
 30
0.0
 11
80.0
 21
200.0
 31
0.0
  0
LINE
  5
15C
100
AcDbEntity
100
AcDbLine
  8
0
 62
256
370
-1
 48
1.0
  6
BYLAYER
 10
0.0
 20
181.0
 30
0.0
 11
0.0
 21
191.0
 31
0.0
  0
LINE
  5
15D
100
AcDbEntity
100
AcDbLine
  8
0
 62
256
370
-1
 48
1.0
  6
BYLAYER
 10
0.0
 20
124.0
 30
0.0
 11
0.0
 21
175.0000000000000284
 31
0.0
  0
LINE
  5
15E
100
AcDbEntity
100
AcDbLine
  8
0
 62
256
370
-1
 48
1.0
  6
BYLAYER
 10
0.0
 20
197.0
 30
0.0
 11
0.0
 21
200.0
 31
0.0
  0
LINE
  5
15F
100
AcDbEntity
100
AcDbLine
  8
0
 62
256
370
-1
 48
1.0
  6
BYLAYER
 10
0.0
 20
108.0
 30
0.0
 11
0.0
 21
118.0
 31
0.0
  0
LINE
  5
160
100
AcDbEntity
100
AcDbLine
  8
0
 62
256
370
-1
 48
1.0
  6
BYLAYER
 10
0.0
 20
100.0
 30
0.0
 11
0.0
 21
102.0
 31
0.0
  0
LINE
  5
161
100
AcDbEntity
100
AcDbLine
  8
guide
 62
256
370
-1
 48
1.0
  6
BYLAYER
 10
40.0
 20
200.0
 30
0.0
 11
40.0
 21
100.0
 31
0.0
  0
CIRCLE
  5
162
100
AcDbEntity
100
AcDbCircle
  8
0
 62
256
370
-1
 48
1.0
  6
BYLAYER
 10
40.0
 20
107.0
 30
0.0
 40
3.0
  0
CIRCLE
  5
163
100
AcDbEntity
100
AcDbCircle
  8
0
 62
256
370
-1
 48
1.0
  6
BYLAYER
 10
140.0
 20
107.0
 30
0.0
 40
3.0
  0
DIMENSION
  5
164
100
AcDbEntity
  8
dims
 62
256
370
-1
 48
1.0
  6
BYLAYER
100
AcDbDimension
 10
210.0000000000000284
 20
32.0000000000000355
 30
0.0
 11
208.125
 21
21.0000000000000391
 31
0.0
 70
1
 71
8
 72
2
 41
1.0
 42
0.0
  1

  3
Standard
100
AcDbAlignedDimension
 13
230.0000000000000284
 23
32.0
 33
0.0
 14
230.0
 24
10.0
 34
0.0
1001
ACAD
1000
DSTYLE
1002
{
1070
144
1040
1.0
1070
40
1040
1.0
1002
}
  0
DIMENSION
  5
165
100
AcDbEntity
  8
dims
 62
256
370
-1
 48
1.0
  6
BYLAYER
100
AcDbDimension
 10
40.0
 20
9.9999999999999947
 30
0.0
 11
38.125
 21
4.9999999999999947
 31
0.0
 70
1
 71
8
 72
2
 41
1.0
 42
0.0
  1

  3
Standard
100
AcDbAlignedDimension
 13
20.0
 23
10.0
 33
0.0
 14
20.0
 24
0.0
 34
0.0
1001
ACAD
1000
DSTYLE
1002
{
1070
144
1040
1.0
1070
40
1040
1.0
1002
}
  0
CIRCLE
  5
166
100
AcDbEntity
100
AcDbCircle
  8
guide
 62
256
370
-1
 48
1.0
  6
BYLAYER
 10
-50.0
 20
60.0
 30
0.0
 40
11.0
  0
CIRCLE
  5
167
100
AcDbEntity
100
AcDbCircle
  8
guide
 62
256
370
-1
 48
1.0
  6
BYLAYER
 10
-58.0
 20
60.0000000000000071
 30
0.0
 40
1.625
  0
CIRCLE
  5
168
100
AcDbEntity
100
AcDbCircle
  8
guide
 62
256
370
-1
 48
1.0
  6
BYLAYER
 10
-50.0
 20
52.0
 30
0.0
 40
1.625
  0
CIRCLE
  5
169
100
AcDbEntity
100
AcDbCircle
  8
guide
 62
256
370
-1
 48
1.0
  6
BYLAYER
 10
-42.0
 20
60.0
 30
0.0
 40
1.625
  0
CIRCLE
  5
16A
100
AcDbEntity
100
AcDbCircle
  8
guide
 62
256
370
-1
 48
1.0
  6
BYLAYER
 10
-50.0
 20
68.0
 30
0.0
 40
1.625
  0
CIRCLE
  5
16B
100
AcDbEntity
100
AcDbCircle
  8
guide
 62
256
370
-1
 48
1.0
  6
BYLAYER
 10
-50.0
 20
60.0
 30
0.0
 40
4.0
  0
LINE
  5
16C
100
AcDbEntity
100
AcDbLine
  8
guide
 62
256
370
-1
 48
1.0
  6
BYLAYER
 10
-90.0
 20
60.0
 30
0.0
 11
-10.0
 21
60.0
 31
0.0
  0
LINE
  5
16D
100
AcDbEntity
100
AcDbLine
  8
guide
 62
256
370
-1
 48
1.0
  6
BYLAYER
 10
-90.0
 20
45.0
 30
0.0
 11
-10.0
 21
45.0
 31
0.0
  0
LINE
  5
16E
100
AcDbEntity
100
AcDbLine
  8
guide
 62
256
370
-1
 48
1.0
  6
BYLAYER
 10
-10.0
 20
39.0
 30
0.0
 11
-90.0
 21
39.0
 31
0.0
  0
LINE
  5
16F
100
AcDbEntity
100
AcDbLine
  8
guide
 62
256
370
-1
 48
1.0
  6
BYLAYER
 10
-90.0
 20
33.0
 30
0.0
 11
-10.0
 21
33.0
 31
0.0
  0
LINE
  5
170
100
AcDbEntity
100
AcDbLine
  8
guide
 62
256
370
-1
 48
1.0
  6
BYLAYER
 10
-23.0
 20
23.0
 30
0.0
 11
-23.0
 21
26.0
 31
0.0
  0
LINE
  5
171
100
AcDbEntity
100
AcDbLine
  8
guide
 62
256
370
-1
 48
1.0
  6
BYLAYER
 10
-10.0
 20
23.0
 30
0.0
 11
-90.0
 21
23.0
 31
0.0
  0
CIRCLE
  5
172
100
AcDbEntity
100
AcDbCircle
  8
0
 62
256
370
-1
 48
1.0
  6
BYLAYER
 10
-77.0
 20
23.0000000000000107
 30
0.0
 40
3.9500000000000002
  0
CIRCLE
  5
173
100
AcDbEntity
100
AcDbCircle
  8
0
 62
256
370
-1
 48
1.0
  6
BYLAYER
 10
-23.0
 20
23.0
 30
0.0
 40
3.9500000000000002
  0
ARC
  5
174
100
AcDbEntity
  8
0
 62
256
370
-1
 48
1.0
  6
BYLAYER
100
AcDbCircle
 10
20.0
 20
10.0
 30
0.0
 40
10.0195122136758741
100
AcDbArc
 50
6.8125234404720487
 51
180.0698996343965916
  0
ARC
  5
175
100
AcDbEntity
  8
0
 62
256
370
-1
 48
1.0
  6
BYLAYER
100
AcDbCircle
 10
20.0
 20
10.0
 30
0.0
 40
10.0195122136758741
100
AcDbArc
 50
266.4236656250025703
 51
273.5763343749974297
  0
LINE
  5
176
100
AcDbEntity
100
AcDbLine
  8
0
 62
256
370
-1
 48
1.0
  6
BYLAYER
 10
10.0
 20
-6.0
 30
0.0
 11
9.9804952425846327
 21
9.987776410884603
 31
0.0
  0
LINE
  5
177
100
AcDbEntity
100
AcDbLine
  8
0
 62
256
370
-1
 48
1.0
  6
BYLAYER
 10
31.9753732278891079
 20
0.0229686434365917
 30
0.0
 11
31.9912015088768484
 21
-0.0293335024359251
 31
0.0
  0
LINE
  5
178
100
AcDbEntity
100
AcDbLine
  8
0
 62
256
370
-1
 48
1.0
  6
BYLAYER
 10
36.5992958346977915
 20
0.7139075178577734
 30
0.0
 11
36.5992958346977915
 21
0.7139075178577734
 31
0.0
  0
LINE
  5
179
100
AcDbEntity
100
AcDbLine
  8
0
 62
256
370
-1
 48
1.0
  6
BYLAYER
 10
36.5992958346977915
 20
0.7139075178577734
 30
0.0
 11
31.7682292027887385
 21
0.1193147016228124
 31
0.0
  0
LINE
  5
17A
100
AcDbEntity
100
AcDbLine
  8
0
 62
256
370
-1
 48
1.0
  6
BYLAYER
 10
32.0
 20
0.0
 30
0.0
 11
29.8581847467720287
 21
11.7907591961264302
 31
0.0
  0
LINE
  5
17B
100
AcDbEntity
100
AcDbLine
  8
0
 62
256
370
-1
 48
1.0
  6
BYLAYER
 10
177.0
 20
84.0
 30
0.0
 11
177.0
 21
90.0000000000000142
 31
0.0
  0
LINE
  5
17C
100
AcDbEntity
100
AcDbLine
  8
0
 62
256
370
-1
 48
1.0
  6
BYLAYER
 10
103.0
 20
84.0
 30
0.0
 11
103.0
 21
90.0
 31
0.0
  0
LINE
  5
17D
100
AcDbEntity
100
AcDbLine
  8
0
 62
256
370
-1
 48
1.0
  6
BYLAYER
 10
177.0
 20
98.0
 30
0.0
 11
177.0
 21
103.9999999999999858
 31
0.0
  0
LINE
  5
17E
100
AcDbEntity
100
AcDbLine
  8
0
 62
256
370
-1
 48
1.0
  6
BYLAYER
 10
103.0
 20
98.0
 30
0.0
 11
103.0
 21
104.0
 31
0.0
  0
LINE
  5
17F
100
AcDbEntity
100
AcDbLine
  8
0
 62
256
370
-1
 48
1.0
  6
BYLAYER
 10
100.0
 20
200.0
 30
0.0
 11
100.0
 21
0.0
 31
0.0
  0
LINE
  5
180
100
AcDbEntity
100
AcDbLine
  8
0
 62
256
370
-1
 48
1.0
  6
BYLAYER
 10
177.0
 20
17.9999999999999822
 30
0.0
 11
177.0
 21
23.9999999999999858
 31
0.0
  0
LINE
  5
181
100
AcDbEntity
100
AcDbLine
  8
0
 62
256
370
-1
 48
1.0
  6
BYLAYER
 10
103.0
 20
18.0
 30
0.0
 11
103.0
 21
24.0
 31
0.0
  0
LINE
  5
182
100
AcDbEntity
100
AcDbLine
  8
0
 62
256
370
-1
 48
1.0
  6
BYLAYER
 10
177.0
 20
10.0000000000000178
 30
0.0
 11
177.0
 21
4.0000000000000142
 31
0.0
  0
LINE
  5
183
100
AcDbEntity
100
AcDbLine
  8
0
 62
256
370
-1
 48
1.0
  6
BYLAYER
 10
103.0
 20
10.0
 30
0.0
 11
103.0
 21
4.0
 31
0.0
  0
CIRCLE
  5
184
100
AcDbEntity
100
AcDbCircle
  8
0
 62
256
370
-1
 48
1.0
  6
BYLAYER
 10
-50.0
 20
60.0
 30
0.0
 40
11.0
  0
CIRCLE
  5
185
100
AcDbEntity
100
AcDbCircle
  8
0
 62
256
370
-1
 48
1.0
  6
BYLAYER
 10
-40.0
 20
50.0
 30
0.0
 40
1.5
  0
CIRCLE
  5
186
100
AcDbEntity
100
AcDbCircle
  8
0
 62
256
370
-1
 48
1.0
  6
BYLAYER
 10
-60.0
 20
50.0
 30
0.0
 40
1.5
  0
CIRCLE
  5
187
100
AcDbEntity
100
AcDbCircle
  8
0
 62
256
370
-1
 48
1.0
  6
BYLAYER
 10
-60.0
 20
70.0
 30
0.0
 40
1.5
  0
CIRCLE
  5
188
100
AcDbEntity
100
AcDbCircle
  8
0
 62
256
370
-1
 48
1.0
  6
BYLAYER
 10
-40.0
 20
70.0
 30
0.0
 40
1.5
  0
LINE
  5
189
100
AcDbEntity
100
AcDbLine
  8
0
 62
256
370
-1
 48
1.0
  6
BYLAYER
 10
-10.0
 20
16.0
 30
0.0
 11
-90.0
 21
16.0
 31
0.0
  0
LINE
  5
18A
100
AcDbEntity
100
AcDbLine
  8
0
 62
256
370
-1
 48
1.0
  6
BYLAYER
 10
-90.0
 20
16.0
 30
0.0
 11
-90.0
 21
75.0
 31
0.0
  0
LINE
  5
18B
100
AcDbEntity
100
AcDbLine
  8
0
 62
256
370
-1
 48
1.0
  6
BYLAYER
 10
-90.0
 20
75.0
 30
0.0
 11
-10.0
 21
75.0
 31
0.0
  0
LINE
  5
18C
100
AcDbEntity
100
AcDbLine
  8
0
 62
256
370
-1
 48
1.0
  6
BYLAYER
 10
-10.0
 20
75.0
 30
0.0
 11
-10.0
 21
16.0
 31
0.0
  0
DIMENSION
  5
18D
100
AcDbEntity
  8
dims
 62
256
370
-1
 48
1.0
  6
BYLAYER
100
AcDbDimension
 10
200.0
 20
14.0
 30
0.0
 11
198.125
 21
54.0
 31
0.0
 70
1
 71
8
 72
2
 41
1.0
 42
0.0
  1

  3
Standard
100
AcDbAlignedDimension
 13
180.0
 23
14.0
 33
0.0
 14
180.0
 24
94.0
 34
0.0
1001
ACAD
1000
DSTYLE
1002
{
1070
144
1040
1.0
1070
40
1040
1.0
1002
}
  0
ENDSEC
  0
SECTION
  2
OBJECTS
  0
DICTIONARY
  5
C
100
AcDbDictionary
280
0
281
1
  3
ACAD_GROUP
350
D
  3
ACAD_LAYOUT
350
1A
  3
ACAD_MLINESTYLE
350
17
  3
ACAD_PLOTSETTINGS
350
19
  3
ACAD_PLOTSTYLENAME
350
E
  3
AcDbVariableDictionary
350
18E
  3
QCAD_OBJECTS
350
18F
  0
DICTIONARY
  5
D
100
AcDbDictionary
280
0
281
1
  0
ACDBDICTIONARYWDFLT
  5
E
100
AcDbDictionary
281
1
  3
Normal
350
F
100
AcDbDictionaryWithDefault
340
F
  0
ACDBPLACEHOLDER
  5
F
  0
DICTIONARY
  5
17
100
AcDbDictionary
280
0
281
1
  3
Standard
350
18
  0
MLINESTYLE
  5
18
100
AcDbMlineStyle
  2
STANDARD
 70
0
  3

 62
256
 51
90.0
 52
90.0
 71
2
 49
0.5
 62
256
  6
BYLAYER
 49
-0.5
 62
256
  6
BYLAYER
  0
DICTIONARY
  5
19
100
AcDbDictionary
280
0
281
1
  0
DICTIONARY
  5
1A
100
AcDbDictionary
281
1
  3
Layout1
350
1E
  3
Layout2
350
26
  3
Model
350
22
  0
LAYOUT
  5
1E
100
AcDbPlotSettings
  1

  2
none_device
  4

  6

 40
0.0
 41
0.0
 42
0.0
 43
0.0
 44
0.0
 45
0.0
 46
0.0
 47
0.0
 48
0.0
 49
0.0
140
0.0
141
0.0
142
1.0
143
1.0
 70
688
 72
0
 73
0
 74
5
  7

 75
16
147
1.0
148
0.0
149
0.0
100
AcDbLayout
  1
Layout1
 70
1
 71
1
 10
0.0
 20
0.0
 11
420.0
 21
297.0
 12
0.0
 22
0.0
 32
0.0
 14
100000000000000000000.0
 24
100000000000000000000.0
 34
100000000000000000000.0
 15
-100000000000000000000.0
 25
-100000000000000000000.0
 35
-100000000000000000000.0
146
0.0
 13
0.0
 23
0.0
 33
0.0
 16
1.0
 26
0.0
 36
0.0
 17
0.0
 27
1.0
 37
0.0
 76
0
330
1B
  0
LAYOUT
  5
22
100
AcDbPlotSettings
  1

  2
none_device
  4

  6

 40
0.0
 41
0.0
 42
0.0
 43
0.0
 44
0.0
 45
0.0
 46
0.0
 47
0.0
 48
0.0
 49
0.0
140
0.0
141
0.0
142
1.0
143
1.0
 70
1712
 72
0
 73
0
 74
0
  7

 75
0
147
1.0
148
0.0
149
0.0
100
AcDbLayout
  1
Model
 70
1
 71
0
 10
0.0
 20
0.0
 11
12.0
 21
9.0
 12
0.0
 22
0.0
 32
0.0
 14
0.0
 24
0.0
 34
0.0
 15
0.0
 25
0.0
 35
0.0
146
0.0
 13
0.0
 23
0.0
 33
0.0
 16
1.0
 26
0.0
 36
0.0
 17
0.0
 27
1.0
 37
0.0
 76
0
330
1F
  0
LAYOUT
  5
26
100
AcDbPlotSettings
  1

  2
none_device
  4

  6

 40
0.0
 41
0.0
 42
0.0
 43
0.0
 44
0.0
 45
0.0
 46
0.0
 47
0.0
 48
0.0
 49
0.0
140
0.0
141
0.0
142
1.0
143
1.0
 70
688
 72
0
 73
0
 74
5
  7

 75
16
147
1.0
148
0.0
149
0.0
100
AcDbLayout
  1
Layout2
 70
1
 71
2
 10
0.0
 20
0.0
 11
12.0
 21
9.0
 12
0.0
 22
0.0
 32
0.0
 14
0.0
 24
0.0
 34
0.0
 15
0.0
 25
0.0
 35
0.0
146
0.0
 13
0.0
 23
0.0
 33
0.0
 16
1.0
 26
0.0
 36
0.0
 17
0.0
 27
1.0
 37
0.0
 76
0
330
23
  0
DICTIONARY
  5
18E
100
AcDbDictionary
281
1
  3
DIMASSOC
350
191
  3
HIDETEXT
350
190
  0
DICTIONARYVAR
  5
190
100
DictionaryVariables
280
0
  1
2
  0
DICTIONARYVAR
  5
191
100
DictionaryVariables
280
0
  1
1
  0
DICTIONARY
  5
18F
100
AcDbDictionary
281
1
  3
ColorSettings/BackgroundColor
350
192
  3
ColorSettings/ColorMode
350
193
  3
Grid/DisplayGrid00
350
194
  3
Grid/DisplayGrid01
350
195
  3
Grid/DisplayGrid02
350
196
  3
Grid/DisplayGrid03
350
197
  3
Grid/GridSpacingX00
350
198
  3
Grid/GridSpacingX01
350
199
  3
Grid/GridSpacingX02
350
19A
  3
Grid/GridSpacingX03
350
19B
  3
Grid/GridSpacingY00
350
19C
  3
Grid/GridSpacingY01
350
19D
  3
Grid/GridSpacingY02
350
19E
  3
Grid/GridSpacingY03
350
19F
  3
Grid/IsometricGrid00
350
1A0
  3
Grid/IsometricGrid01
350
1A1
  3
Grid/IsometricGrid02
350
1A2
  3
Grid/IsometricGrid03
350
1A3
  3
Grid/IsometricProjection00
350
1A4
  3
Grid/IsometricProjection01
350
1A5
  3
Grid/IsometricProjection02
350
1A6
  3
Grid/IsometricProjection03
350
1A7
  3
Grid/MetaGridSpacingX00
350
1A8
  3
Grid/MetaGridSpacingX01
350
1A9
  3
Grid/MetaGridSpacingX02
350
1AA
  3
Grid/MetaGridSpacingX03
350
1AB
  3
Grid/MetaGridSpacingY00
350
1AC
  3
Grid/MetaGridSpacingY01
350
1AD
  3
Grid/MetaGridSpacingY02
350
1AE
  3
Grid/MetaGridSpacingY03
350
1AF
  3
MultiPageSettings/Columns
350
1B0
  3
MultiPageSettings/GlueMarginsBottom
350
1B1
  3
MultiPageSettings/GlueMarginsLeft
350
1B2
  3
MultiPageSettings/GlueMarginsRight
350
1B3
  3
MultiPageSettings/GlueMarginsTop
350
1B4
  3
MultiPageSettings/PrintCropMarks
350
1B5
  3
MultiPageSettings/Rows
350
1B6
  3
PageSettings/OffsetX
350
1B7
  3
PageSettings/OffsetY
350
1B8
  3
PageSettings/PageOrientation
350
1B9
  3
PageSettings/PaperHeight
350
1BA
  3
PageSettings/PaperWidth
350
1BB
  3
PageSettings/Scale
350
1BC
  3
PageSettings/ShowPaperBorders
350
1BD
  3
QCADVersion
350
1BE
  3
UnitSettings/PaperUnit
350
1BF
  3
ViewportCenter
350
1C0
  3
ViewportHeight
350
1C1
  3
ViewportWidth
350
1C2
  0
XRECORD
  5
192
330
18F
100
AcDbXrecord
280
1
1000
White
  0
XRECORD
  5
193
330
18F
100
AcDbXrecord
280
1
1000
FullColor
  0
XRECORD
  5
194
330
18F
100
AcDbXrecord
280
1
290
1
  0
XRECORD
  5
195
330
18F
100
AcDbXrecord
280
1
290
1
  0
XRECORD
  5
196
330
18F
100
AcDbXrecord
280
1
290
1
  0
XRECORD
  5
197
330
18F
100
AcDbXrecord
280
1
290
1
  0
XRECORD
  5
198
330
18F
100
AcDbXrecord
280
1
1000
auto
  0
XRECORD
  5
199
330
18F
100
AcDbXrecord
280
1
1000
auto
  0
XRECORD
  5
19A
330
18F
100
AcDbXrecord
280
1
1000
auto
  0
XRECORD
  5
19B
330
18F
100
AcDbXrecord
280
1
1000
auto
  0
XRECORD
  5
19C
330
18F
100
AcDbXrecord
280
1
1000
auto
  0
XRECORD
  5
19D
330
18F
100
AcDbXrecord
280
1
1000
auto
  0
XRECORD
  5
19E
330
18F
100
AcDbXrecord
280
1
1000
auto
  0
XRECORD
  5
19F
330
18F
100
AcDbXrecord
280
1
1000
auto
  0
XRECORD
  5
1A0
330
18F
100
AcDbXrecord
280
1
290
0
  0
XRECORD
  5
1A1
330
18F
100
AcDbXrecord
280
1
290
0
  0
XRECORD
  5
1A2
330
18F
100
AcDbXrecord
280
1
290
0
  0
XRECORD
  5
1A3
330
18F
100
AcDbXrecord
280
1
290
0
  0
XRECORD
  5
1A4
330
18F
100
AcDbXrecord
280
1
 90
0
  0
XRECORD
  5
1A5
330
18F
100
AcDbXrecord
280
1
 90
0
  0
XRECORD
  5
1A6
330
18F
100
AcDbXrecord
280
1
 90
0
  0
XRECORD
  5
1A7
330
18F
100
AcDbXrecord
280
1
 90
0
  0
XRECORD
  5
1A8
330
18F
100
AcDbXrecord
280
1
1000
auto
  0
XRECORD
  5
1A9
330
18F
100
AcDbXrecord
280
1
1000
auto
  0
XRECORD
  5
1AA
330
18F
100
AcDbXrecord
280
1
1000
auto
  0
XRECORD
  5
1AB
330
18F
100
AcDbXrecord
280
1
1000
auto
  0
XRECORD
  5
1AC
330
18F
100
AcDbXrecord
280
1
1000
auto
  0
XRECORD
  5
1AD
330
18F
100
AcDbXrecord
280
1
1000
auto
  0
XRECORD
  5
1AE
330
18F
100
AcDbXrecord
280
1
1000
auto
  0
XRECORD
  5
1AF
330
18F
100
AcDbXrecord
280
1
1000
auto
  0
XRECORD
  5
1B0
330
18F
100
AcDbXrecord
280
1
 90
1
  0
XRECORD
  5
1B1
330
18F
100
AcDbXrecord
280
1
 40
10.0
  0
XRECORD
  5
1B2
330
18F
100
AcDbXrecord
280
1
 40
10.0
  0
XRECORD
  5
1B3
330
18F
100
AcDbXrecord
280
1
 40
10.0
  0
XRECORD
  5
1B4
330
18F
100
AcDbXrecord
280
1
 40
10.0
  0
XRECORD
  5
1B5
330
18F
100
AcDbXrecord
280
1
290
0
  0
XRECORD
  5
1B6
330
18F
100
AcDbXrecord
280
1
 90
1
  0
XRECORD
  5
1B7
330
18F
100
AcDbXrecord
280
1
 40
0.0
  0
XRECORD
  5
1B8
330
18F
100
AcDbXrecord
280
1
 40
0.0
  0
XRECORD
  5
1B9
330
18F
100
AcDbXrecord
280
1
1000
Portrait
  0
XRECORD
  5
1BA
330
18F
100
AcDbXrecord
280
1
 40
297.0
  0
XRECORD
  5
1BB
330
18F
100
AcDbXrecord
280
1
 40
210.0
  0
XRECORD
  5
1BC
330
18F
100
AcDbXrecord
280
1
1000
1:1
  0
XRECORD
  5
1BD
330
18F
100
AcDbXrecord
280
1
290
1
  0
XRECORD
  5
1BE
330
18F
100
AcDbXrecord
280
1
1000
3.15.5
  0
XRECORD
  5
1BF
330
18F
100
AcDbXrecord
280
1
 90
4
  0
XRECORD
  5
1C1
330
18F
100
AcDbXrecord
280
1
 40
230.900869565217306
  0
XRECORD
  5
1C2
330
18F
100
AcDbXrecord
280
1
 40
464.3060869565215398
  0
ENDSEC
  0
EOF
